<svg xmlns="http://www.w3.org/2000/svg" xmlns:xlink="http://www.w3.org/1999/xlink" width="16" height="16" viewBox="0 0 16 16">
  <defs>
    <clipPath id="clip-path">
      <rect id="Rectángulo_2760" data-name="Rectángulo 2760" width="16" height="16" fill="#8395a7"/>
    </clipPath>
  </defs>
  <g id="Grupo_7728" data-name="Grupo 7728" clip-path="url(#clip-path)">
    <path id="Trazado_12655" data-name="Trazado 12655" d="M13,9H11.681A5.59,5.59,0,0,0,13,5.5C13,1.7,10.52,0,8.063,0A4.711,4.711,0,0,0,3.5,3.19a5.809,5.809,0,0,0-.353,1.793c-.011.169-.022.339-.022.517A5.59,5.59,0,0,0,4.444,9H3a3.009,3.009,0,0,0-3,3v4H16V12a3.009,3.009,0,0,0-3-3M1,15V12a2,2,0,0,1,2-2h.547a11.192,11.192,0,0,0,1.566,5Zm5.133-.3A9.723,9.723,0,0,1,4.548,10h.926A5.1,5.1,0,0,0,7,10.816V12h.333ZM4.125,5.5a6.514,6.514,0,0,1,.062-.813,3.783,3.783,0,0,0,1.78-2.145,6.735,6.735,0,0,0,4.841,1.637,9.572,9.572,0,0,0,1.03-.059A6.182,6.182,0,0,1,12,5.5C12,7.985,9.638,10,8.063,10S4.125,7.985,4.125,5.5M8.667,12H9V10.857A5.041,5.041,0,0,0,10.651,10h.8a9.723,9.723,0,0,1-1.585,4.7ZM15,15H10.887a11.192,11.192,0,0,0,1.566-5H13a2,2,0,0,1,2,2Z" fill="#8395a7"/>
    <path id="Trazado_12656" data-name="Trazado 12656" d="M6.5,5a.5.5,0,1,0,.5.5A.5.5,0,0,0,6.5,5" fill="#8395a7"/>
    <path id="Trazado_12657" data-name="Trazado 12657" d="M9.5,5a.5.5,0,1,0,.5.5A.5.5,0,0,0,9.5,5" fill="#8395a7"/>
  </g>
</svg>
