<svg id="Grupo_7727" data-name="Grupo 7727" xmlns="http://www.w3.org/2000/svg" width="16" height="10" viewBox="0 0 16 10">
  <path id="Trazado_11998" data-name="Trazado 11998" d="M264,1.987a8.613,8.613,0,0,0-8,5,8.9,8.9,0,0,0,16,0,8.613,8.613,0,0,0-8-5m0,9a7.587,7.587,0,0,1-6.892-4,7.937,7.937,0,0,1,13.784,0,7.588,7.588,0,0,1-6.892,4" transform="translate(-256 -1.987)" fill="#8395a7"/>
  <path id="Trazado_11999" data-name="Trazado 11999" d="M264,6.987v-3a3,3,0,1,0,2.121.879Z" transform="translate(-256 -1.987)" fill="#8395a7"/>
</svg>
