<svg id="Grupo_5759" data-name="Grupo 5759" xmlns="http://www.w3.org/2000/svg" width="11.355" height="11.283" viewBox="0 0 11.355 11.283">
  <path id="Trazado_11265" data-name="Trazado 11265" d="M348.526,121.1l-.264,1.847L348,124.788l1.847-.261,1.846-.264-1.583-1.583Z" transform="translate(-348 -113.505)" fill="#8395a7"/>
  <path id="Trazado_11266" data-name="Trazado 11266" d="M352.559,120.76l-.527-.527,4.75-4.752-1.057-1.056-4.751,4.75-.528-.527L355.2,113.9l-.528-.527-5.278,5.279,3.167,3.166,5.277-5.279-.527-.527Z" transform="translate(-348.344 -111.596)" fill="#8395a7"/>
  <path id="Trazado_11267" data-name="Trazado 11267" d="M361.4,113.348l-2.11-2.112a.735.735,0,0,0-1.034-.021l-.052.077-.012-.014-1.014,1.013,3.167,3.167,1.013-1.013-.014-.014.076-.05A.732.732,0,0,0,361.4,113.348Z" transform="translate(-350.268 -111.013)" fill="#8395a7"/>
</svg>
