<?xml version="1.0" standalone="no"?>
<!DOCTYPE svg PUBLIC "-//W3C//DTD SVG 1.1//EN" "http://www.w3.org/Graphics/SVG/1.1/DTD/svg11.dtd" >
<svg xmlns="http://www.w3.org/2000/svg">
<defs>
  <font id="aqm-icons" horiz-adv-x="1113.6125">
    <font-face font-family="icons-aqm"
      units-per-em="1001" ascent="1001"
      descent="0" />
    <missing-glyph horiz-adv-x="0" />
    <glyph glyph-name="Connection"
      unicode="&#xE001;"
      horiz-adv-x="1001" d="M577.0470588235295 129.5411764705882H559.3823529411765V423.9529411764705C559.3823529411765 447.5058823529412 541.7176470588234 471.0588235294117 518.164705882353 471.0588235294117H117.764705882353C94.2117647058824 471.0588235294117 70.6588235294118 447.5058823529412 70.6588235294118 423.9529411764705V129.5411764705882H52.9941176470588C47.1058823529412 129.5411764705882 35.3294117647059 123.6529411764706 35.3294117647059 111.8764705882352V82.435294117647C35.3294117647059 58.8823529411765 58.8823529411765 35.3294117647057 82.4352941176471 35.3294117647057H541.7176470588234C565.2705882352941 35.3294117647057 588.8235294117648 58.8823529411762 588.8235294117648 82.435294117647V117.7647058823529C594.7117647058824 123.6529411764706 582.9352941176471 129.5411764705882 577.0470588235295 129.5411764705882zM100.1 423.9529411764705C100.1 429.8411764705882 105.9882352941176 441.6176470588236 117.764705882353 441.6176470588236H518.164705882353C524.0529411764707 441.6176470588236 529.9411764705883 429.8411764705883 529.9411764705883 423.9529411764705V129.5411764705882H100.1V423.9529411764705zM559.3823529411765 88.3235294117648C559.3823529411765 82.4352941176471 553.4941176470588 70.6588235294117 541.7176470588234 70.6588235294117H88.3235294117647C82.4352941176471 70.6588235294117 70.6588235294118 76.5470588235294 70.6588235294118 88.3235294117648V105.9882352941177H559.3823529411765V88.3235294117648zM500.5 423.9529411764705H129.5411764705883C123.6529411764706 423.9529411764705 117.764705882353 418.0647058823529 117.764705882353 406.2882352941176V158.9823529411764C117.764705882353 153.0941176470589 123.6529411764706 141.3176470588235 135.4294117647059 141.3176470588235H506.3882352941176C512.2764705882353 141.3176470588235 524.0529411764707 147.2058823529411 524.0529411764707 158.9823529411764V406.2882352941176C518.164705882353 418.0647058823529 506.3882352941176 423.9529411764705 500.5 423.9529411764705zM482.835294117647 176.6470588235294H147.2058823529412V388.6235294117647H482.835294117647V176.6470588235294zM594.7117647058824 270.8588235294118H624.1529411764706V241.4176470588235H594.7117647058824V270.8588235294118zM653.5941176470589 270.8588235294118H683.035294117647V241.4176470588235H653.5941176470589V270.8588235294118zM712.4764705882353 270.8588235294118H741.9176470588235V241.4176470588235H712.4764705882353V270.8588235294118zM712.4764705882353 329.7411764705883H741.9176470588235V300.3H712.4764705882353V329.7411764705883zM712.4764705882353 394.5117647058824H741.9176470588235V365.0705882352941H712.4764705882353V394.5117647058824zM712.4764705882353 453.3941176470588H741.9176470588235V423.9529411764705H712.4764705882353V453.3941176470588zM712.4764705882353 518.164705882353H741.9176470588235V488.7235294117647H712.4764705882353V518.164705882353zM712.4764705882353 577.0470588235294H741.9176470588235V547.6058823529411H712.4764705882353V577.0470588235294zM842.0176470588236 853.7941176470588C830.2411764705884 853.7941176470588 818.464705882353 853.7941176470588 800.8000000000001 847.9058823529411C777.2470588235295 930.3411764705882 694.8117647058824 977.4470588235293 612.3764705882354 953.8941176470588C559.3823529411765 942.1176470588236 518.164705882353 900.9 506.3882352941176 847.9058823529411C441.6176470588236 865.5705882352942 370.9588235294118 830.2411764705882 353.2941176470589 765.4705882352941C347.4058823529412 753.6941176470589 347.4058823529412 741.9176470588235 347.4058823529412 724.2529411764706C353.2941176470589 659.4823529411765 406.2882352941177 606.4882352941177 476.9470588235295 606.4882352941177H842.0176470588236C912.6764705882352 606.4882352941177 965.6705882352944 659.4823529411765 965.6705882352944 730.1411764705883C965.6705882352944 730.1411764705883 965.6705882352944 730.1411764705883 965.6705882352944 730.1411764705883C959.7823529411766 794.9117647058823 906.7882352941178 853.7941176470588 842.0176470588236 853.7941176470588zM900.9 665.3705882352941C883.2352941176471 647.7058823529412 865.570588235294 635.929411764706 836.1294117647059 635.929411764706H476.9470588235294C423.9529411764706 635.929411764706 382.7352941176471 677.1470588235294 382.7352941176471 724.2529411764706C382.7352941176471 777.2470588235294 423.9529411764706 818.464705882353 471.0588235294118 818.464705882353C488.7235294117647 818.464705882353 500.5 818.464705882353 512.2764705882353 806.6882352941176C518.164705882353 806.6882352941177 529.9411764705883 812.5764705882352 529.9411764705883 818.464705882353C529.9411764705883 824.3529411764706 529.9411764705883 824.3529411764706 529.9411764705883 824.3529411764706C541.7176470588234 889.1235294117647 600.5999999999999 936.229411764706 671.2588235294118 930.3411764705882C724.2529411764706 918.5647058823528 765.4705882352941 877.3470588235294 777.2470588235294 824.3529411764706C777.2470588235294 818.464705882353 789.0235294117647 812.5764705882352 794.9117647058823 812.5764705882352C794.9117647058823 812.5764705882352 800.8 812.5764705882352 800.8 812.5764705882352C812.5764705882353 818.464705882353 824.3529411764706 824.3529411764706 842.0176470588236 824.3529411764706C889.1235294117648 824.3529411764706 930.3411764705882 783.135294117647 930.3411764705882 730.1411764705883C930.3411764705882 706.5882352941176 918.5647058823528 683.035294117647 900.9 665.3705882352941L900.9 665.3705882352941z" />
    <glyph glyph-name="binder"
      unicode="&#xE002;"
      horiz-adv-x="1001" d="M359.1823529411765 824.3529411764706L476.9470588235294 706.5882352941176H900.9C906.7882352941178 706.5882352941176 912.6764705882352 700.7 912.6764705882352 694.8117647058823V194.3117647058824C912.6764705882352 188.4235294117648 906.7882352941178 182.5352941176472 900.9 182.5352941176472H105.9882352941176C100.1 182.5352941176472 94.2117647058824 188.4235294117648 94.2117647058824 194.3117647058824V812.5764705882352C88.3235294117647 818.464705882353 94.2117647058824 824.3529411764706 105.9882352941176 824.3529411764706H359.1823529411765M382.7352941176471 883.2352941176471H359.1823529411765H105.9882352941176C64.7705882352941 883.2352941176471 29.4411764705882 847.9058823529411 29.4411764705882 812.5764705882352V194.3117647058824C29.4411764705882 153.0941176470589 64.7705882352941 123.6529411764707 100.1 123.6529411764707H895.0117647058823C936.2294117647058 123.6529411764707 965.670588235294 158.9823529411765 965.670588235294 194.3117647058824V694.8117647058823C965.670588235294 736.0294117647059 930.3411764705882 765.4705882352941 895.0117647058823 765.4705882352941H500.5L400.4 865.5705882352942L382.7352941176471 883.2352941176471L382.7352941176471 883.2352941176471z" />
    <glyph glyph-name="building"
      unicode="&#xE003;"
      horiz-adv-x="1001" d="M648.9816666666667 694.0266666666666V5.0050000000001H962.6283333333334V694.0266666666666H648.9816666666667zM774.1066666666667 128.4616666666667H710.71V191.8583333333334H774.1066666666667V128.4616666666667zM774.1066666666667 255.255H710.71V316.9833333333334H774.1066666666667V255.255zM774.1066666666667 380.38H710.71V443.7766666666666H774.1066666666667V380.38zM774.1066666666667 505.505H710.71V567.2333333333333H774.1066666666667V505.505zM899.2316666666667 128.4616666666667H835.835V191.8583333333334H899.2316666666667V128.4616666666667zM899.2316666666667 255.255H835.835V316.9833333333334H899.2316666666667V255.255zM899.2316666666667 380.38H835.835V443.7766666666666H899.2316666666667V380.38zM899.2316666666667 505.505H835.835V567.2333333333333H899.2316666666667V505.505zM460.46 567.2333333333333V755.755L397.0633333333334 880.88H333.6666666666667V1006.005H270.27V880.88H206.8733333333333L143.4766666666666 755.755V567.2333333333333H83.4166666666667L20.02 503.8366666666666V1.6683333333332H583.9166666666666V505.505L523.8566666666667 567.2333333333333H460.46zM335.3350000000001 755.755H398.7316666666667V692.3583333333333H335.3350000000001V755.755zM210.21 755.755H273.6066666666667V692.3583333333333H210.21V755.755zM210.21 128.4616666666667H146.8133333333334V191.8583333333334H210.21V128.4616666666667zM210.21 255.255H146.8133333333334V316.9833333333334H210.21V255.255zM210.21 380.38H146.8133333333334V443.7766666666666H210.21V380.38zM210.21 630.63H273.6066666666667V567.2333333333333H210.21V630.63zM335.3350000000001 128.4616666666667H271.9383333333334V191.8583333333334H335.3350000000001V128.4616666666667zM335.3350000000001 255.255H271.9383333333334V316.9833333333334H335.3350000000001V255.255zM335.3350000000001 380.38H271.9383333333334V443.7766666666666H335.3350000000001V380.38zM335.3350000000001 630.63H398.7316666666667V567.2333333333333H335.3350000000001V630.63zM460.46 128.4616666666667H397.0633333333334V191.8583333333334H460.46V128.4616666666667zM460.46 255.255H397.0633333333334V316.9833333333334H460.46V255.255zM460.46 380.38H397.0633333333334V443.7766666666666H460.46V380.38z" />
    <glyph glyph-name="bullet-select"
      unicode="&#xE004;"
      horiz-adv-x="1001" d="M907.15625 656.90625L813.3125 750.75L500.5 437.9375L187.6875 750.75L93.84375 656.90625L500.5 250.25z" />
    <glyph glyph-name="bullet"
      unicode="&#xE005;"
      horiz-adv-x="1001" d="M331.58125 794.54375L369.1187500000001 832.08125L669.4187499999999 513.0125L369.1187500000001 193.94375L331.58125 231.48125L594.34375 513.0125z" />
    <glyph glyph-name="calendar"
      unicode="&#xE006;"
      horiz-adv-x="938.3809217391305" d="M8136.989730434784 2.6200086956522A12.8302086956522 12.8302086956522 0 0 1 8162.650147826088 2.6200086956522A12.8302086956522 12.8302086956522 0 0 1 8136.989730434784 2.6200086956522M8175.489060869566 -24.6594173913044C8170.388313043479 -21.7521652173913 8163.363904347825 -19.7501652173913 8155.434243478261 -19.0799304347826L8151.70007826087 -35.8706173913043L8149.81123478261 -44.4182869565217L8147.922391304349 -35.8706173913043L8144.214339130435 -19.0799304347826C8136.258565217392 -19.7414608695651 8129.234156521741 -21.7521652173913 8124.150817391305 -24.6594173913044V-70.0961130434781H8136.119295652176L8141.263565217392 -121.4169478260868H8158.37631304348L8163.494469565219 -70.0961130434781H8175.480356521739V-24.6594173913044zM8188.327973913043 -70.0961130434781H8179.762895652175C8177.4127217391315 -70.0961130434781 8175.49776521739 -72.0197739130434 8175.49776521739 -74.3612434782607V-100.0303652173912C8175.49776521739 -102.3892434782607 8177.421426086957 -104.3041999999999 8179.762895652175 -104.3041999999999H8188.327973913043C8190.678147826088 -104.3041999999999 8192.593104347827 -102.3805391304346 8192.593104347827 -100.0303652173912V-74.3612434782607C8192.593104347827 -72.0110695652173 8190.669443478261 -70.0961130434781 8188.327973913043 -70.0961130434781zM312.7646260869566 625.616295652174H437.9244434782609V500.5000000000001H312.7646260869566V625.616295652174zM500.4564782608696 625.616295652174H625.6162956521739V500.5000000000001H500.4564782608696V625.616295652174zM688.1483304347827 625.616295652174H813.3081478260872V500.5000000000001H688.1483304347827V625.616295652174zM125.1598173913044 437.924443478261H250.2325913043479V312.8081478260871H125.1598173913044V437.924443478261zM312.7646260869566 437.924443478261H437.9244434782609V312.8081478260871H312.7646260869566V437.924443478261zM500.4564782608696 437.924443478261H625.6162956521739V312.8081478260871H500.4564782608696V437.924443478261zM688.1483304347827 437.924443478261H813.3081478260872V312.8081478260871H688.1483304347827V437.924443478261zM125.1598173913044 250.2238869565218H250.2325913043479V125.1598173913044H125.1598173913044V250.2238869565218zM312.7646260869566 250.2238869565218H437.9244434782609V125.1598173913044H312.7646260869566V250.2238869565218zM500.4564782608696 250.2238869565218H625.6162956521739V125.1598173913044H500.4564782608696V250.2238869565218zM813.3081478260871 875.8401826086957V969.6382347826088C813.3081478260871 986.9250695652177 799.2767391304349 1001.0000000000002 782.0421304347826 1001.0000000000002H656.8823130434782C639.5519565217392 1001.0000000000002 625.6162956521739 986.9250695652177 625.6162956521739 969.6382347826088V875.8401826086957H312.7646260869566V969.6382347826088C312.7646260869566 986.9250695652177 298.8289652173914 1001.0000000000002 281.7684434782609 1001.0000000000002H156.4258347826088C139.1912260869566 1001.0000000000002 125.1598173913044 986.9250695652177 125.1598173913044 969.6382347826088V875.8401826086957H0V0H938.3809217391304V875.8401826086957H813.3081478260871zM688.1483304347827 938.4679652173915H750.8631565217393V813.3516695652174H688.1483304347827V938.4679652173915zM187.8746434782609 938.4679652173915H250.2325913043479V813.3516695652174H187.8746434782609V938.4679652173915zM875.8401826086957 62.5755565217392H62.6277826086957V688.2353739130435H875.8401826086958V62.5755565217392z" />
    <glyph glyph-name="calendarday"
      unicode="&#xE007;"
      horiz-adv-x="1001" d="M311.9783333333334 490.49L311.9783333333334 208.5416666666666L415.415 208.5416666666666L415.415 588.9216666666666L338.6716666666667 588.9216666666666L228.5616666666667 557.2233333333334L248.5816666666667 477.1433333333333zM512.1783333333333 208.5416666666666L628.9616666666667 208.5416666666666L795.7950000000001 507.1733333333333L795.7950000000001 585.585L503.8366666666666 585.585L503.8366666666666 498.8316666666666L679.0116666666668 498.8316666666666zM789.1216666666667 829.1616666666666V910.91C789.1216666666667 925.925 777.4433333333333 937.6033333333334 762.4283333333333 937.6033333333334H653.9866666666666C638.9716666666666 937.6033333333334 627.2933333333333 925.925 627.2933333333333 910.91V829.1616666666666H357.0233333333333V910.91C357.0233333333333 925.925 345.345 937.6033333333334 330.33 937.6033333333334H221.8883333333333C206.8733333333333 937.6033333333334 195.195 925.925 195.195 910.91V829.1616666666666H86.7533333333334V71.7383333333332H897.5633333333334V829.1616666666666H789.1216666666667zM680.68 884.2166666666667H734.0666666666667V775.775H680.68V884.2166666666667zM248.5816666666667 884.2166666666667H301.9683333333334V775.775H248.5816666666667V884.2166666666667zM842.5083333333333 126.7933333333333H140.14V667.3333333333333H842.5083333333333V126.7933333333333z" />
    <glyph glyph-name="close"
      unicode="&#xE008;"
      horiz-adv-x="1001" d="M960.96 870.87L870.8699999999999 960.96L500.5 590.59L130.13 960.96L40.04 870.87L410.41 500.5L40.04 130.1300000000001L130.13 40.0400000000001L500.5 410.41L870.8699999999999 40.0400000000001L960.96 130.1300000000001L590.59 500.5z" />
    <glyph glyph-name="configuration"
      unicode="&#xE009;"
      horiz-adv-x="1001" d="M832.0812500000001 588.0875000000001H725.7250000000001C719.4687500000001 606.85625 713.2125000000001 625.625 700.7 644.3937500000001L769.5187500000001 713.2125000000001C788.2875000000001 731.98125 788.2875000000001 757.00625 769.5187500000001 769.51875L738.2375000000001 800.8C719.46875 819.56875 694.4437500000001 819.56875 681.93125 800.8L613.1125000000001 731.98125C594.34375 744.4937500000001 575.5749999999999 750.75 550.5500000000001 757.00625V850.85C550.5500000000001 875.875 531.78125 894.64375 506.7562500000001 894.64375H469.21875C444.19375 894.64375 425.425 875.875 425.425 850.85V757.00625C400.4000000000001 750.75 381.63125 738.2375 362.8625 725.7249999999999L300.3 788.2875C281.53125 807.05625 256.50625 807.05625 243.99375 788.2875L212.7125 757.00625C193.94375 738.2375 193.94375 713.2125000000001 212.7125 700.7L275.2750000000001 638.1375C262.7625 619.3687500000001 250.25 594.34375 243.99375 569.3187499999999H168.91875C143.89375 569.3187499999999 125.125 550.55 125.125 525.5250000000001V481.73125C125.125 456.7062500000001 143.89375 437.9375000000001 168.91875 437.9375000000001H250.25C256.50625 412.9125000000002 269.01875 387.8875000000001 281.53125 369.1187500000001L225.225 312.8125C206.45625 294.04375 206.45625 269.0187500000001 225.225 256.50625L256.50625 225.225C275.275 206.45625 300.3 206.45625 312.8125 225.225L375.375 287.7875C394.14375 275.275 419.16875 269.01875 444.19375 262.7625V175.175C444.19375 150.1499999999999 462.9625 131.38125 487.9875 131.38125H531.78125C556.80625 131.38125 575.5749999999999 150.15 575.5749999999999 175.175V275.2749999999999C594.34375 281.5312499999999 619.3687499999999 294.04375 631.88125 306.5562499999999L700.6999999999999 237.7375C719.46875 218.9687499999999 744.4937499999999 218.9687499999999 757.00625 237.7375L788.2875 269.01875C807.05625 287.7875 807.05625 312.8124999999999 788.2875 325.325L713.2125 400.3999999999999C719.46875 419.16875 731.98125 437.9374999999999 731.98125 456.70625H832.0812500000001C857.10625 456.70625 875.875 475.475 875.875 500.4999999999999V544.29375C875.875 569.3187499999999 857.1062499999999 588.0875000000001 832.0812500000001 588.0875000000001zM487.9875 412.9125C431.68125 412.9125 381.63125 456.70625 381.63125 519.26875C381.63125 575.575 425.425 625.625 487.9875 625.625C544.2937499999999 625.625 594.34375 581.83125 594.34375 519.26875C594.34375 456.7062500000001 544.2937499999999 412.9125 487.9875 412.9125z" />
    <glyph glyph-name="dashboards"
      unicode="&#xE00A;"
      horiz-adv-x="1001" d="M775.775 942.19125H131.38125V57.5575H868.3675000000001V803.3025L775.775 942.19125zM212.7125 469.21875C212.7125 511.76125 228.97875 549.2987499999999 255.255 578.0775000000001L372.8725 466.7162500000001C372.8725 466.7162500000001 266.51625 460.46 212.7125 455.4550000000002C212.7125 461.7112500000001 212.7125 465.465 212.7125 469.21875zM487.9875 207.7075000000001C370.37 207.7075000000001 274.02375 297.7975000000002 265.265 412.9125C340.34 417.9175 487.9875 427.9275000000001 487.9875 427.9275000000001L324.07375 583.0825C365.365 626.87625 422.9225 654.40375 487.9875 654.40375C611.8612499999999 654.40375 710.7099999999999 554.30375 710.7099999999999 431.68125S611.8612499999999 207.7075000000001 487.9875 207.7075000000001zM770.77 648.1475H220.22L220.22 648.1475H770.77L770.77 648.1475zM721.9712499999999 696.94625H181.43125V745.745H721.9712499999999V696.94625z" />
    <glyph glyph-name="database"
      unicode="&#xE00B;"
      horiz-adv-x="1001" d="M88.3235294117647 865.5705882352942A412.1764705882353 117.764705882353 0 0 1 912.6764705882352 865.5705882352942A412.1764705882353 117.764705882353 0 0 1 88.3235294117647 865.5705882352942M88.3235294117647 771.3588235294118V630.0411764705882C88.3235294117647 565.2705882352941 270.8588235294117 512.2764705882353 500.5 512.2764705882353S912.6764705882352 565.2705882352941 912.6764705882352 630.0411764705882V771.3588235294118C794.9117647058823 694.8117647058823 535.8294117647058 688.9235294117648 500.5 688.9235294117648S206.0882352941177 694.8117647058823 88.3235294117647 771.3588235294118zM88.3235294117647 535.8294117647058V394.5117647058824C88.3235294117647 329.7411764705883 270.8588235294117 276.7470588235294 500.5 276.7470588235294S912.6764705882352 329.7411764705883 912.6764705882352 394.5117647058824V535.8294117647058C794.9117647058823 459.2823529411764 535.8294117647058 453.3941176470588 500.5 453.3941176470588S206.0882352941177 459.2823529411766 88.3235294117647 535.8294117647058zM88.3235294117647 300.3V158.9823529411764C88.3235294117647 94.2117647058823 270.8588235294117 41.2176470588234 500.5 41.2176470588234S912.6764705882352 94.2117647058823 912.6764705882352 158.9823529411764V300.3C794.9117647058823 223.7529411764705 535.8294117647058 217.864705882353 500.5 217.864705882353S206.0882352941177 223.7529411764706 88.3235294117647 300.3z" />
    <glyph glyph-name="delete"
      unicode="&#xE00C;"
      horiz-adv-x="935.5868260869566" d="M686.1115130434783 127.5535130434782H623.7883826086958V626.6956347826087H498.9593304347827V127.5622173913045H436.4534086956523V626.6956347826087H311.8071478260871V127.5622173913045H249.3012260869566V626.6956347826087H124.6462608695652V34.1645652173914C124.6462608695652 17.0170000000002 138.7560086956522 2.9072521739132 155.8948695652174 2.9072521739132H779.5004608695652C796.6480260869565 2.9072521739132 810.7577739130435 17.0170000000002 810.7577739130435 34.1645652173914V626.6956347826087H686.1115130434782V127.5535130434782zM873.263695652174 876.1709478260871H623.7883826086958V969.9254782608696C623.7883826086958 986.8902521739132 609.6786347826088 1001.0000000000002 592.5310695652175 1001.0000000000002H343.0557565217392C325.9081913043479 1001.0000000000002 311.8071478260871 986.8902521739132 311.8071478260871 969.9254782608696V876.1709478260871H62.3231304347826C27.8626173913044 876.1709478260871 0 848.1342434782609 0 813.8478173913045V751.341895652174C0 717.0554695652174 27.8626173913044 689.0187652173913 62.3231304347826 689.0187652173913H873.263695652174C907.3760347826088 689.0187652173913 935.5868260869566 717.0554695652174 935.5868260869566 751.341895652174V813.8478173913045C935.5868260869566 848.1342434782609 907.3760347826088 876.1709478260871 873.263695652174 876.1709478260871zM374.1302782608696 876.1709478260871V938.6768695652175H561.2824608695653V876.1709478260871H374.1302782608696z" />
    <glyph glyph-name="demo"
      unicode="&#xE00D;"
      horiz-adv-x="1057.7233333333334" d="M795.7950000000001 613.9466666666667C705.705 613.9466666666667 632.2983333333334 540.54 632.2983333333334 450.45C632.2983333333334 402.0683333333334 653.9866666666667 358.6916666666666 687.3533333333334 328.6616666666668V66.7333333333334L797.4633333333334 176.8433333333334L907.5733333333334 66.7333333333334V328.6616666666668C940.94 358.6916666666666 962.6283333333334 402.0683333333334 962.6283333333334 450.45C959.2916666666666 540.54 885.885 613.9466666666667 795.7950000000001 613.9466666666667zM795.7950000000001 340.3399999999999C735.735 340.3399999999999 685.6850000000001 388.7216666666666 685.6850000000001 450.45C685.6850000000001 510.51 734.0666666666667 560.56 795.7950000000001 560.56C855.8550000000001 560.56 905.905 512.1783333333334 905.905 450.45C904.2366666666666 390.39 855.855 340.3399999999999 795.7950000000001 340.3399999999999zM503.8366666666666 110.11L180.18 110.11L180.18 900.9L587.2533333333334 900.9L834.1666666666666 652.3183333333334L849.1816666666666 669.0016666666667L849.1816666666666 692.3583333333333L598.9316666666666 942.6083333333333L138.4716666666667 942.6083333333333L138.4716666666667 66.7333333333334L608.9416666666667 66.7333333333334L507.1733333333333 108.4416666666666zM301.9683333333334 669.0016666666667H575.575V613.9466666666667H301.9683333333334V669.0016666666667zM301.9683333333334 560.56H575.575V505.505H301.9683333333334V560.56zM301.9683333333334 450.45H575.575V395.3950000000001H301.9683333333334V450.45z" />
    <glyph glyph-name="download"
      unicode="&#xE00E;"
      horiz-adv-x="1001.0021070268608" d="M984.1564272738946 329.6443523891917C972.9386162664158 340.8705915041141 959.29351031517 346.487925115297 943.2590359036536 346.487925115297H664.1243314241691L582.3126924687997 264.6783931867887C559.0511159243658 242.2238079300829 531.7819742904834 230.9912477345777 500.5010535134303 230.9912477345777C469.2264538169601 230.9912477345777 441.948884075634 242.2090587420566 418.689414558061 264.6783931867887L337.4782782580507 346.487925115297H57.7493922037901C41.7107037385519 346.487925115297 28.0761329216106 340.8642704235314 16.8435727261055 329.6443523891916C5.6131195574612 318.4181132742692 0 304.781435430467 0 288.7322118309243V96.2384518720123C0 80.1955493530523 5.6131195574612 66.5609785361111 16.8435727261055 55.3326323943277C28.0740258947497 44.1063932794053 41.708596711691 38.4974877756659 57.7493922037901 38.4974877756659H943.2611429305144C959.295617342031 38.4974877756659 972.9407232932768 44.1063932794052 984.1585343007556 55.3326323943277C995.3932015231215 66.5609785361111 1001.002107026861 80.1955493530523 1001.002107026861 96.2384518720123V288.7322118309243C1001.0021070268608 304.781435430467 995.3932015231214 318.4181132742692 984.1564272738946 329.6443523891917zM758.5823455987135 126.9188699937063C750.9528013353624 119.2977538377988 741.9262982632289 115.4903563001367 731.498622328591 115.4903563001367S712.0570854829849 119.297753837799 704.4296482464948 126.9188699937063C696.8148531711702 134.5399861496137 693.0074556335079 143.5601681411646 693.0074556335079 153.9815229952197C693.0074556335079 164.4070919029968 696.8148531711702 173.442023082574 704.4296482464948 181.0504970773159C712.0570854829849 188.677934313806 721.070946393953 192.4937599589118 731.498622328591 192.4937599589118S750.9506943085016 188.677934313806 758.5823455987135 181.0504970773159C766.1950336471772 173.4441301094348 770.0045382117004 164.4091989298576 770.0045382117004 153.9815229952197C770.0045382117005 143.5622751680254 766.1950336471772 134.5399861496137 758.5823455987135 126.9188699937063zM912.5722967013768 126.9188699937063C904.9575016260522 119.2977538377988 895.9309985539185 115.4903563001367 885.5012155924196 115.4903563001367C875.0756466846426 115.4903563001367 866.0554646930918 119.297753837799 858.4322415103236 126.9188699937063C850.8195534618599 134.5399861496137 847.0121559241975 143.5601681411646 847.0121559241975 153.9815229952197C847.0121559241975 164.4070919029968 850.8195534618599 173.442023082574 858.4322415103236 181.0504970773159C866.0533576662309 188.677934313806 875.0735396577818 192.4937599589118 885.5012155924196 192.4937599589118C895.9288915270577 192.4937599589118 904.9553945991912 188.677934313806 912.5722967013768 181.0504970773159C920.1934128572842 173.4441301094348 924.0071314755291 164.4091989298576 924.0071314755291 153.9815229952197C924.0071314755291 143.5622751680254 920.1997339378668 134.5399861496137 912.5722967013768 126.9188699937063zM473.4320794313343 319.4210580600619C480.6549675105299 311.8083700115982 489.6772565289417 307.998865447075 500.5010535134305 307.998865447075C511.3332786053629 307.998865447075 520.3450324894702 311.8083700115982 527.5700275955267 319.4210580600619L797.0735122937966 588.9266497851928C809.502863746298 600.5553310305488 812.3157446056113 614.5944510047846 805.4952986568493 631.0376886273173C798.6896018961137 646.673934962122 786.8544320183887 654.4931116429548 770.0045382117005 654.5015397503985H615.9998379210107V924.0029174218074C615.9998379210107 934.4284863295846 612.1840122759048 943.4528823748572 604.5776453080238 951.0718915039035C596.9502080715337 958.693007659811 587.9300260799829 962.504619251195 577.5086712259276 962.504619251195H423.4934358009334C413.0720809468782 962.504619251195 404.0476849016055 958.693007659811 396.4244617188372 951.0718915039035C388.8075596166517 943.4528823748572 384.9959480252675 934.4305933564455 384.9959480252675 924.0029174218074V654.4994327235374H230.9954617882997C214.1434609547505 654.4994327235374 202.31882621133 646.671827935261 195.5004872894289 631.0355816004565C188.6863624212497 614.5986650585064 191.4908151731193 600.5532240036878 203.9264877062035 588.9245427583319L473.4320794313343 319.4210580600619z" />
    <glyph glyph-name="drawer-close"
      unicode="&#xE00F;"
      horiz-adv-x="1001" d="M1097.096 140.14C1097.096 76.0759999999999 1045.0439999999999 24.0240000000001 980.98 24.0240000000001H260.26C196.196 24.0240000000001 144.144 76.0760000000001 144.144 140.14V860.86C144.144 924.924 196.196 976.976 260.26 976.976H980.98C1045.044 976.976 1097.096 924.924 1097.096 860.86V140.14zM1097.096 140.14C1097.096 76.0759999999999 1045.0439999999999 24.0240000000001 980.98 24.0240000000001H260.26C196.196 24.0240000000001 144.144 76.0760000000001 144.144 140.14V860.86C144.144 924.924 196.196 976.976 260.26 976.976H980.98C1045.044 976.976 1097.096 924.924 1097.096 860.86V140.14zM500.5 756.7560000000001L748.7479999999999 508.508L488.4879999999999 244.2440000000001" />
    <glyph glyph-name="drawer-open"
      unicode="&#xE010;"
      horiz-adv-x="1001" d="M1097.096 140.14C1097.096 76.0759999999999 1045.0439999999999 24.0240000000001 980.98 24.0240000000001H260.26C196.196 24.0240000000001 144.144 76.0760000000001 144.144 140.14V860.86C144.144 924.924 196.196 976.976 260.26 976.976H980.98C1045.044 976.976 1097.096 924.924 1097.096 860.86V140.14zM1097.096 140.14C1097.096 76.0759999999999 1045.0439999999999 24.0240000000001 980.98 24.0240000000001H260.26C196.196 24.0240000000001 144.144 76.0760000000001 144.144 140.14V860.86C144.144 924.924 196.196 976.976 260.26 976.976H980.98C1045.044 976.976 1097.096 924.924 1097.096 860.86V140.14zM736.7359999999999 756.7560000000001L488.4879999999999 508.508L748.7479999999999 244.2440000000001" />
    <glyph glyph-name="email"
      unicode="&#xE011;"
      horiz-adv-x="1113.6125" d="M62.5625 844.59375V156.40625H1063.5625V844.59375H62.5625zM919.66875 782.03125L563.0625 425.4250000000001L200.2 782.03125H919.66875zM1001 287.7875L819.56875 469.21875L775.775 425.4250000000001L982.23125 218.96875H150.15L356.60625 425.4250000000001L312.8125 469.21875L125.125 287.7875V769.51875L513.0124999999999 381.63125L563.0625 337.8375L606.8562499999999 381.63125L1001 775.775V287.7875z" />
    <glyph glyph-name="favorite-false"
      unicode="&#xE012;"
      horiz-adv-x="1001" d="M800.8 65.0650000000001L490.49 265.2650000000001L205.205 65.0650000000001L305.305 400.4000000000001L25.025 605.605H385.385L490.49 945.945L620.62 605.605H985.9849999999998L675.675 400.4000000000001L800.8 65.0650000000001zM175.175 555.5550000000001L360.36 420.42L290.29 195.1949999999999L485.485 335.3350000000001L695.695 195.1949999999999L610.6100000000001 420.42L815.8150000000002 555.5549999999998H580.5800000000003L490.49 795.7950000000001L420.42 555.5550000000001H175.175z" />
    <glyph glyph-name="favorite-true"
      unicode="&#xE013;"
      horiz-adv-x="1089.1389582842328" d="M528.0316285646948 961.55451331605L667.2232382748056 604.9408908790949L1039.2187131746405 604.9408908790949L720.446335140231 393.5111949092623L853.220975724723 46.9004949328305L528.0316285646948 253.7533820410087L230.8693377327363 46.9004949328305L335.7584727786943 393.5111949092623L47.183596511902 604.9408908790949L419.179071411737 604.9408908790949z" />
    <glyph glyph-name="fingerprint"
      unicode="&#xE014;"
      horiz-adv-x="1001" d="M688.9235294117647 889.1235294117647C688.9235294117647 889.1235294117647 683.035294117647 889.1235294117647 683.035294117647 889.1235294117647C630.0411764705882 912.6764705882352 565.2705882352941 924.4529411764706 494.6117647058823 924.4529411764706C423.9529411764705 924.4529411764706 359.1823529411764 912.6764705882354 306.1882352941176 889.1235294117647C294.4117647058824 889.1235294117647 282.6352941176471 889.1235294117647 276.7470588235294 900.9C270.8588235294118 912.6764705882352 276.7470588235294 924.4529411764706 288.5235294117648 924.4529411764706C347.4058823529412 953.8941176470588 418.064705882353 965.670588235294 494.6117647058824 965.670588235294C571.1588235294118 965.670588235294 641.8176470588236 953.8941176470588 700.7 924.4529411764706C706.5882352941177 924.4529411764706 712.4764705882353 912.6764705882352 706.5882352941177 900.9C700.7 895.0117647058823 694.8117647058824 889.1235294117647 688.9235294117647 889.1235294117647zM217.864705882353 736.0294117647059C211.9764705882353 736.0294117647059 206.0882352941177 736.0294117647059 206.0882352941177 741.9176470588235C200.2 747.8058823529411 194.3117647058824 759.5823529411765 206.0882352941177 765.4705882352941C288.5235294117648 847.9058823529411 382.7352941176471 889.1235294117647 494.6117647058824 889.1235294117647C606.4882352941177 889.1235294117647 700.7 847.9058823529413 783.135294117647 765.4705882352941C789.0235294117647 759.5823529411765 789.0235294117647 747.8058823529411 783.135294117647 736.0294117647059C777.2470588235295 730.1411764705883 765.4705882352941 730.1411764705883 753.6941176470589 736.0294117647059C683.035294117647 812.5764705882352 588.8235294117648 847.9058823529411 494.6117647058824 847.9058823529411C394.5117647058824 847.9058823529411 306.1882352941177 812.5764705882352 235.5294117647059 736.0294117647059C229.6411764705882 736.0294117647059 223.7529411764706 736.0294117647059 217.864705882353 736.0294117647059zM806.6882352941176 459.2823529411766C794.9117647058823 459.2823529411766 789.0235294117647 465.1705882352942 789.0235294117647 476.9470588235295C789.0235294117647 641.8176470588236 659.4823529411765 771.3588235294119 494.6117647058823 771.3588235294119C471.0588235294118 771.3588235294118 441.6176470588236 771.3588235294118 418.064705882353 765.4705882352941C412.1764705882353 759.5823529411765 400.4 765.4705882352941 394.5117647058824 777.2470588235294C394.5117647058824 789.0235294117647 400.4 800.8 406.2882352941177 800.8C435.7294117647059 806.6882352941177 459.2823529411765 812.5764705882353 488.7235294117647 812.5764705882353C671.2588235294118 812.5764705882353 824.3529411764706 665.3705882352942 824.3529411764706 476.9470588235293C824.3529411764706 465.1705882352942 818.464705882353 459.2823529411766 806.6882352941176 459.2823529411766zM176.6470588235294 459.2823529411766C176.6470588235294 459.2823529411766 176.6470588235294 459.2823529411766 176.6470588235294 459.2823529411766C164.8705882352941 459.2823529411766 158.9823529411765 471.0588235294117 158.9823529411765 476.9470588235295C158.9823529411765 565.2705882352942 194.3117647058824 647.7058823529412 253.1941176470589 712.4764705882353C276.7470588235294 736.0294117647059 300.3 753.6941176470589 323.8529411764706 765.4705882352941C335.6294117647059 771.3588235294118 347.4058823529412 765.4705882352941 353.2941176470589 759.5823529411765C359.1823529411765 747.8058823529411 353.2941176470589 736.0294117647059 347.4058823529412 730.1411764705883C323.8529411764706 718.364705882353 300.3 706.5882352941176 282.6352941176471 683.035294117647C229.6411764705882 630.0411764705882 200.2 559.3823529411765 200.2 476.9470588235293C200.2 465.1705882352942 188.4235294117647 459.2823529411766 176.6470588235294 459.2823529411766zM206.0882352941177 282.6352941176471C200.2 282.6352941176471 200.2 282.6352941176471 194.3117647058824 282.6352941176471C182.535294117647 288.5235294117647 182.535294117647 300.3000000000001 188.4235294117647 312.0764705882354L200.2 329.7411764705884C223.7529411764706 382.7352941176471 235.5294117647059 429.8411764705883 235.5294117647059 471.0588235294117C235.5294117647059 541.7176470588236 259.0823529411765 606.4882352941177 312.0764705882353 653.5941176470587C359.1823529411765 706.5882352941176 423.9529411764706 736.0294117647059 494.6117647058824 736.0294117647059C565.2705882352941 736.0294117647059 635.929411764706 706.5882352941176 688.9235294117647 647.7058823529412C694.8117647058823 641.8176470588235 694.8117647058823 630.0411764705882 688.9235294117647 618.2647058823529C683.035294117647 612.3764705882353 671.2588235294116 612.3764705882353 659.4823529411765 618.2647058823529C618.2647058823529 665.3705882352941 559.3823529411765 694.8117647058823 494.6117647058823 694.8117647058823C435.7294117647058 694.8117647058823 382.735294117647 671.2588235294118 341.5176470588235 630.0411764705882C300.3 588.8235294117646 276.7470588235294 535.8294117647058 276.7470588235294 471.0588235294117C276.7470588235294 423.9529411764705 264.9705882352942 365.0705882352941 235.5294117647059 312.0764705882354L223.7529411764706 294.4117647058823C223.7529411764706 288.5235294117647 211.9764705882353 282.6352941176471 206.0882352941177 282.6352941176471zM765.4705882352941 229.6411764705882C759.5823529411765 229.6411764705882 747.8058823529411 235.5294117647059 747.8058823529411 241.4176470588235L724.2529411764706 317.964705882353C712.4764705882353 382.7352941176471 706.5882352941176 435.7294117647059 706.5882352941176 471.0588235294117L706.5882352941176 482.835294117647C706.5882352941177 500.5 706.5882352941177 529.9411764705883 694.8117647058824 547.6058823529411C688.9235294117648 559.3823529411765 694.8117647058824 571.1588235294118 706.5882352941177 571.1588235294118C718.364705882353 577.0470588235294 730.1411764705882 571.1588235294118 730.1411764705882 559.3823529411765C741.9176470588235 529.9411764705883 741.9176470588235 506.3882352941176 741.9176470588235 476.9470588235293L741.9176470588235 465.1705882352942C741.9176470588235 435.7294117647059 741.9176470588235 376.8470588235295 753.6941176470588 323.8529411764706L777.2470588235294 253.1941176470589C789.0235294117647 241.4176470588235 783.135294117647 229.6411764705882 765.4705882352941 229.6411764705882C771.3588235294118 229.6411764705882 765.4705882352941 229.6411764705882 765.4705882352941 229.6411764705882zM706.5882352941177 135.429411764706C700.7 135.429411764706 688.9235294117647 141.3176470588236 688.9235294117647 147.2058823529412L671.2588235294116 206.0882352941177C635.9294117647058 306.1882352941176 630.0411764705882 418.0647058823529 630.0411764705882 476.9470588235293C630.0411764705882 553.4941176470588 571.1588235294117 612.3764705882352 494.6117647058823 612.3764705882352C418.064705882353 618.2647058823529 353.2941176470589 553.4941176470588 353.2941176470589 476.9470588235293C353.2941176470589 447.5058823529412 347.4058823529412 329.7411764705883 259.0823529411765 206.0882352941177C253.1941176470589 194.3117647058824 241.4176470588236 194.3117647058824 229.6411764705883 200.2000000000001C217.864705882353 206.0882352941177 217.864705882353 217.864705882353 223.7529411764706 229.6411764705882C306.1882352941177 347.4058823529412 312.0764705882354 459.2823529411766 312.0764705882354 476.9470588235295C312.0764705882354 577.0470588235295 388.6235294117648 659.4823529411765 488.7235294117647 659.4823529411765S665.3705882352941 582.9352941176471 665.3705882352941 482.8352941176471C665.3705882352941 441.6176470588237 671.2588235294118 323.8529411764706 706.5882352941177 223.7529411764706L724.2529411764706 164.8705882352941C730.1411764705882 153.0941176470589 724.2529411764706 141.3176470588236 706.5882352941177 135.429411764706C712.4764705882353 135.429411764706 712.4764705882353 135.429411764706 706.5882352941177 135.429411764706zM412.1764705882353 29.4411764705882C406.2882352941177 29.4411764705882 406.2882352941177 29.4411764705882 400.4 35.3294117647059C394.5117647058824 41.2176470588237 388.6235294117647 52.9941176470589 394.5117647058824 64.7705882352942C547.6058823529412 264.9705882352943 547.6058823529412 459.2823529411766 547.6058823529412 482.8352941176471C547.6058823529412 518.164705882353 524.0529411764707 541.7176470588236 488.7235294117647 541.7176470588236C453.3941176470589 541.7176470588236 429.8411764705883 518.164705882353 429.8411764705883 482.8352941176471C429.8411764705883 476.9470588235295 435.7294117647059 306.1882352941177 300.3 135.429411764706C294.4117647058825 129.5411764705883 282.6352941176471 123.6529411764707 270.8588235294118 129.5411764705883C264.9705882352942 135.429411764706 259.0823529411765 147.2058823529413 264.9705882352942 158.9823529411765C388.6235294117648 317.9647058823531 382.7352941176472 476.9470588235295 382.7352941176472 482.8352941176471C382.7352941176472 535.829411764706 423.9529411764707 582.9352941176471 482.8352941176472 582.9352941176471C547.6058823529412 577.0470588235294 588.8235294117648 529.9411764705883 588.8235294117648 476.9470588235293C588.8235294117648 453.3941176470588 588.8235294117648 241.4176470588235 429.8411764705882 35.3294117647059C423.9529411764706 29.4411764705882 418.064705882353 29.4411764705882 412.1764705882353 29.4411764705882zM488.7235294117647 382.7352941176471C482.835294117647 382.7352941176471 482.835294117647 382.7352941176471 488.7235294117647 382.7352941176471C476.9470588235295 382.7352941176471 465.1705882352941 394.5117647058824 471.0588235294118 406.2882352941176C476.9470588235294 447.5058823529412 471.0588235294118 476.9470588235293 471.0588235294118 476.9470588235293C471.0588235294118 488.7235294117646 476.9470588235294 494.6117647058824 488.7235294117647 494.6117647058824C500.5 494.6117647058824 506.3882352941177 488.7235294117647 506.3882352941177 476.9470588235293C506.3882352941177 476.9470588235293 506.3882352941177 441.6176470588236 500.5000000000001 394.5117647058824C506.3882352941176 388.6235294117647 494.6117647058824 382.7352941176471 488.7235294117647 382.7352941176471zM341.5176470588235 64.7705882352941C335.6294117647059 64.7705882352941 335.6294117647059 64.7705882352941 329.7411764705883 70.6588235294117C323.8529411764706 76.5470588235294 317.9647058823529 88.3235294117648 323.8529411764706 100.0999999999999C376.8470588235295 170.7588235294117 418.064705882353 247.3058823529412 447.5058823529412 329.7411764705883C453.3941176470588 341.5176470588235 459.2823529411764 347.4058823529412 471.0588235294118 341.5176470588235C482.835294117647 335.6294117647059 488.7235294117647 329.7411764705883 482.835294117647 317.9647058823529C459.2823529411764 229.6411764705881 412.1764705882353 147.2058823529411 353.2941176470588 76.5470588235294C353.2941176470589 64.7705882352941 347.4058823529412 64.7705882352941 341.5176470588235 64.7705882352941zM506.3882352941176 29.4411764705882C500.5 29.4411764705882 500.5 29.4411764705882 494.6117647058824 35.3294117647059C482.8352941176472 41.2176470588237 482.8352941176472 52.9941176470589 488.7235294117647 64.7705882352942C535.8294117647059 141.3176470588237 582.9352941176471 247.3058823529413 582.9352941176471 247.3058823529413C588.8235294117648 253.1941176470589 594.7117647058824 259.0823529411765 600.6 259.0823529411765C606.4882352941177 259.0823529411765 618.264705882353 253.1941176470589 618.264705882353 247.3058823529413C618.264705882353 247.3058823529413 624.1529411764707 217.864705882353 635.9294117647061 188.4235294117648L659.4823529411766 111.8764705882353C665.3705882352942 100.1 659.4823529411766 88.3235294117648 647.7058823529414 88.3235294117648C635.9294117647062 82.4352941176471 624.1529411764708 88.3235294117648 624.1529411764708 100.0999999999999L600.6000000000001 176.6470588235294C600.6000000000001 182.535294117647 600.6000000000001 182.535294117647 594.7117647058825 188.4235294117647C577.0470588235296 153.0941176470589 547.6058823529413 94.2117647058823 518.1647058823531 47.1058823529412C518.164705882353 29.4411764705882 512.2764705882353 29.4411764705882 506.3882352941176 29.4411764705882z" />
    <glyph glyph-name="fullscreen-close"
      unicode="&#xE015;"
      horiz-adv-x="1033.2903225806451" d="M193.741935483871 710.3870967741935L387.483870967742 710.3870967741935L387.483870967742 770.3548387096774L193.741935483871 770.3548387096774L129.1612903225807 770.3548387096774L129.1612903225807 710.3870967741935L129.1612903225807 530.483870967742L193.741935483871 530.483870967742zM839.5483870967743 770.3548387096774L645.8064516129033 770.3548387096774L645.8064516129033 710.3870967741935L839.5483870967743 710.3870967741935L839.5483870967743 530.483870967742L904.1290322580646 530.483870967742L904.1290322580646 710.3870967741935L904.1290322580646 770.3548387096774zM193.741935483871 470.516129032258L129.1612903225807 470.516129032258L129.1612903225807 290.6129032258064L129.1612903225807 230.6451612903226L193.741935483871 230.6451612903226L387.483870967742 230.6451612903226L387.483870967742 290.6129032258064L193.741935483871 290.6129032258064zM839.5483870967743 290.6129032258064L645.8064516129033 290.6129032258064L645.8064516129033 230.6451612903226L839.5483870967743 230.6451612903226L904.1290322580646 230.6451612903226L904.1290322580646 290.6129032258064L904.1290322580646 470.516129032258L839.5483870967743 470.516129032258zM258.3225806451613 650.4193548387098H774.9677419354838V350.5806451612903H258.3225806451612V650.4193548387098z" />
    <glyph glyph-name="fullscreen-expand"
      unicode="&#xE016;"
      horiz-adv-x="1033.2903225806451" d="M839.5483870967743 244.483870967742L701.1612903225806 244.483870967742L701.1612903225806 198.3548387096775L885.6774193548388 198.3548387096775L885.6774193548388 382.8709677419354L839.5483870967743 382.8709677419354zM193.741935483871 751.9032258064516L332.1290322580646 751.9032258064516L332.1290322580646 798.0322580645161L147.6129032258065 798.0322580645161L147.6129032258065 613.516129032258L193.741935483871 613.516129032258zM701.1612903225806 798.0322580645161L701.1612903225806 751.9032258064516L839.5483870967743 751.9032258064516L839.5483870967743 613.516129032258L885.6774193548388 613.516129032258L885.6774193548388 798.0322580645161zM193.741935483871 382.8709677419354L147.6129032258065 382.8709677419354L147.6129032258065 198.3548387096775L332.1290322580646 198.3548387096775L332.1290322580646 244.483870967742L193.741935483871 244.483870967742zM332.1290322580646 613.516129032258H701.1612903225806V382.8709677419354H332.1290322580645V613.516129032258z" />
    <glyph glyph-name="glass"
      unicode="&#xE017;"
      horiz-adv-x="1001" d="M959.7823529411766 170.7588235294118L794.9117647058823 335.6294117647059C836.1294117647059 400.4 859.6823529411764 476.9470588235293 859.6823529411764 559.3823529411764C859.6823529411764 789.0235294117647 677.1470588235294 971.5588235294118 447.5058823529412 971.5588235294118S35.3294117647059 789.0235294117647 35.3294117647059 559.3823529411764S217.8647058823529 147.2058823529412 447.5058823529412 147.2058823529412C529.9411764705883 147.2058823529412 606.4882352941177 170.7588235294118 671.2588235294116 211.9764705882353L836.1294117647059 47.1058823529412C847.9058823529411 35.3294117647059 865.570588235294 35.3294117647059 877.3470588235293 47.1058823529412L959.7823529411764 129.5411764705883C965.670588235294 141.3176470588236 965.670588235294 158.9823529411764 959.7823529411766 170.7588235294118zM447.5058823529412 259.0823529411765C282.6352941176471 259.0823529411765 153.0941176470588 388.6235294117648 153.0941176470588 553.4941176470588S282.6352941176471 847.9058823529413 447.5058823529412 847.9058823529413S741.9176470588235 718.364705882353 741.9176470588235 553.4941176470588S612.3764705882353 259.0823529411765 447.5058823529412 259.0823529411765z" />
    <glyph glyph-name="groups"
      unicode="&#xE018;"
      horiz-adv-x="1001" d="M512.2764705882353 435.7294117647059C447.5058823529412 459.2823529411766 435.7294117647059 471.0588235294117 435.7294117647059 471.0588235294117L435.7294117647059 535.8294117647058C435.7294117647059 535.8294117647058 459.2823529411765 553.4941176470588 465.1705882352941 612.3764705882352C482.835294117647 606.4882352941177 494.6117647058824 635.929411764706 500.5 647.7058823529412C500.5 659.4823529411765 500.5 700.7 482.835294117647 694.8117647058823C482.835294117647 724.2529411764706 482.835294117647 747.8058823529411 482.835294117647 765.4705882352941C476.9470588235294 812.5764705882352 429.8411764705882 865.5705882352942 353.2941176470589 865.5705882352942C276.7470588235294 865.5705882352942 229.6411764705882 812.5764705882352 223.7529411764706 765.4705882352941C223.7529411764706 753.6941176470589 223.7529411764706 724.2529411764706 229.6411764705882 694.8117647058823C211.9764705882353 700.7 206.0882352941177 659.4823529411765 206.0882352941177 647.7058823529412C206.0882352941177 635.929411764706 223.7529411764706 606.4882352941177 235.5294117647059 612.3764705882353C241.4176470588235 553.4941176470588 264.9705882352942 535.8294117647059 264.9705882352942 535.8294117647059L264.9705882352942 471.0588235294117C264.9705882352942 471.0588235294117 247.3058823529412 459.2823529411766 182.5352941176471 435.7294117647059C117.764705882353 406.2882352941176 52.9941176470588 388.6235294117647 35.3294117647059 359.1823529411764C17.6647058823529 329.7411764705883 23.5529411764706 164.8705882352941 23.5529411764706 164.8705882352941H671.2588235294118C671.2588235294118 164.8705882352941 677.1470588235294 335.629411764706 659.4823529411765 359.1823529411766C647.7058823529412 388.6235294117647 577.0470588235295 406.2882352941176 512.2764705882353 435.7294117647059zM959.7823529411766 341.5176470588235C942.1176470588236 365.0705882352941 942.1176470588236 382.7352941176471 883.2352941176471 406.2882352941176C824.3529411764706 429.8411764705883 812.5764705882353 441.6176470588236 812.5764705882353 441.6176470588236L812.5764705882353 494.6117647058824C812.5764705882353 494.6117647058824 836.129411764706 512.2764705882353 842.0176470588236 565.2705882352941C853.7941176470588 559.3823529411766 871.4588235294118 582.9352941176471 871.4588235294118 600.6C871.4588235294118 612.3764705882353 871.4588235294118 647.7058823529412 853.7941176470588 641.8176470588235C859.6823529411764 665.3705882352942 859.6823529411764 688.9235294117648 859.6823529411764 700.7C853.7941176470588 747.8058823529411 812.5764705882352 794.9117647058824 741.9176470588235 794.9117647058824C671.2588235294118 794.9117647058824 630.0411764705882 747.8058823529411 624.1529411764706 700.7C624.1529411764706 688.9235294117648 624.1529411764706 665.3705882352942 630.0411764705882 641.8176470588235C612.3764705882352 647.7058823529412 612.3764705882352 612.3764705882353 612.3764705882352 600.6C612.3764705882352 588.8235294117646 630.0411764705882 565.2705882352941 641.8176470588235 565.2705882352941C647.7058823529411 512.2764705882353 671.2588235294116 494.6117647058824 671.2588235294116 494.6117647058824L647.7058823529412 482.835294117647C700.7 459.2823529411764 759.5823529411765 418.0647058823529 759.5823529411765 382.7352941176471V164.8705882352941H971.5588235294118C971.5588235294118 164.8705882352941 977.4470588235293 312.0764705882354 959.7823529411766 341.5176470588235z" />
    <glyph glyph-name="grupperson"
      unicode="&#xE019;"
      horiz-adv-x="775.8361858190709" d="M152.9645476772616 890.8655256723716A78.317848410758 78.317848410758 0 0 1 309.6002444987775 890.8655256723716A78.317848410758 78.317848410758 0 0 1 152.9645476772616 890.8655256723716M305.9290953545232 752.5855745721271L231.2823960880196 604.515892420538L156.6356968215159 752.5855745721271C124.8190709046455 746.4669926650367 96.6735941320293 736.6772616136919 74.6466992665037 724.440097799511V447.880195599022H148.0696821515892L178.6625916870416 135.8325183374083H282.6784841075795L313.2713936430318 447.880195599022H386.6943765281174V724.440097799511C365.8911980440098 737.90097799511 337.7457212713937 746.4669926650366 305.9290953545232 752.5855745721271zM417.2872860635697 554.3435207823961A52.619804400978 52.619804400978 0 0 1 522.5268948655256 554.3435207823961A52.619804400978 52.619804400978 0 0 1 417.2872860635697 554.3435207823961M520.0794621026895 461.341075794621L469.9070904645477 360.9963325183375L419.7347188264059 461.341075794621C397.7078239608802 457.6699266503668 379.3520782396088 450.3276283618583 364.6674816625917 441.7616136919316V254.5330073349633H413.6161369193154L434.419315403423 42.8300733496333H505.3948655256723L526.19804400978 254.5330073349633H575.1466992665037V441.7616136919316C561.6858190709047 450.3276283618582 542.1063569682151 457.6699266503667 520.0794621026895 461.341075794621zM599.6210268948655 474.80195599022A42.8300733496333 42.8300733496333 0 0 1 685.281173594132 474.80195599022A42.8300733496333 42.8300733496333 0 0 1 599.6210268948655 474.80195599022M684.057457212714 398.9315403422983L642.4511002444988 316.942542787286L600.8447432762837 398.9315403422983C583.7127139364304 395.260391198044 567.8044009779951 390.3655256723715 555.5672371638142 383.0232273838631V230.0586797066014H595.9498777506112L613.0819070904645 57.5146699266504H670.5965770171149L688.9523227383863 230.0586797066014H729.3349633251834V383.0232273838631C717.0977995110024 390.3655256723717 701.1894865525672 395.260391198044 684.057457212714 398.9315403422983z" />
    <glyph glyph-name="letter"
      unicode="&#xE01A;"
      horiz-adv-x="1001" d="M29.4411764705882 824.3529411764706V176.6470588235294H971.5588235294118V824.3529411764706H29.4411764705882zM836.1294117647059 765.4705882352941L494.6117647058824 423.9529411764705L158.9823529411765 765.4705882352941H836.1294117647059zM912.6764705882352 300.3L741.9176470588235 471.0588235294117L700.7 429.8411764705883L895.0117647058823 235.5294117647059H111.8764705882353L306.1882352941176 429.8411764705883L259.0823529411765 471.0588235294117L88.3235294117647 300.3V753.6941176470589L453.3941176470589 388.6235294117647L494.6117647058824 347.4058823529412L535.8294117647058 388.6235294117647L906.7882352941176 759.5823529411764V300.3z" />
    <glyph glyph-name="library"
      unicode="&#xE01B;"
      horiz-adv-x="1001" d="M904.2366666666666 997.6633333333332H96.7633333333333C60.06 997.6633333333332 33.3666666666667 970.97 33.3666666666667 937.6033333333334V126.7933333333333C33.3666666666667 93.4266666666667 60.06 63.3966666666668 96.7633333333333 63.3966666666668H160.16C160.16 30.0300000000001 186.8533333333333 1e-13 223.5566666666667 1e-13S286.9533333333333 26.6933333333335 286.9533333333333 63.3966666666668H724.0566666666666C724.0566666666666 30.0300000000001 750.75 1e-13 787.4533333333333 1e-13C820.8199999999999 1e-13 850.8499999999999 26.6933333333335 850.8499999999999 63.3966666666668H914.2466666666666C947.6133333333332 63.3966666666668 977.643333333333 90.09 977.643333333333 126.7933333333333V937.6033333333334C967.6333333333334 970.97 940.94 997.6633333333332 904.2366666666666 997.6633333333332zM844.1766666666667 190.19H156.8233333333334V500.5H840.84V190.19zM844.1766666666667 563.8966666666666H156.8233333333334V874.2066666666667H840.84V563.8966666666666zM780.78 437.1033333333334H220.22V250.25H780.78V437.1033333333334zM593.9266666666667 313.6466666666667H407.0733333333334V377.0433333333332H593.9266666666667V313.6466666666667zM780.78 810.81H220.22V623.9566666666667H780.78V810.81zM593.9266666666667 687.3533333333332H407.0733333333334V750.75H593.9266666666667V687.3533333333332z" />
    <glyph glyph-name="license"
      unicode="&#xE01C;"
      horiz-adv-x="1001" d="M789.0235294117647 630.0411764705882C688.9235294117648 630.0411764705882 612.3764705882353 553.4941176470588 612.3764705882353 453.3941176470588C612.3764705882353 400.4 635.929411764706 353.2941176470588 671.2588235294118 323.8529411764706V41.2176470588234L789.0235294117647 158.9823529411764L906.7882352941178 41.2176470588234V323.8529411764706C942.1176470588236 353.2941176470588 965.670588235294 400.4000000000001 965.670588235294 453.3941176470588C965.670588235294 553.4941176470588 889.1235294117647 630.0411764705882 789.0235294117647 630.0411764705882zM789.0235294117647 335.6294117647059C724.2529411764706 335.6294117647059 671.2588235294118 388.6235294117647 671.2588235294118 453.3941176470588C671.2588235294118 518.1647058823528 724.2529411764706 571.1588235294117 789.0235294117647 571.1588235294117C853.7941176470588 571.1588235294117 906.7882352941178 518.1647058823528 906.7882352941178 453.3941176470588C906.7882352941178 388.6235294117647 853.7941176470588 335.6294117647059 789.0235294117647 335.6294117647059zM476.9470588235294 158.9823529411764L200.2 158.9823529411764L200.2 865.5705882352942L529.9411764705883 865.5705882352942L706.5882352941177 688.9235294117648L847.9058823529411 688.9235294117648L847.9058823529411 718.364705882353L577.0470588235295 983.335294117647L82.4352941176471 983.335294117647L82.4352941176471 41.2176470588234L588.8235294117648 41.2176470588234L476.9470588235294 158.9823529411764zM259.0823529411765 688.9235294117648H553.4941176470588V630.0411764705882H259.0823529411765V688.9235294117648zM259.0823529411765 571.1588235294118H553.4941176470588V512.2764705882353H259.0823529411765V571.1588235294117zM259.0823529411765 453.3941176470588H553.4941176470588V394.5117647058824H259.0823529411765V453.3941176470588z" />
    <glyph glyph-name="notebook"
      unicode="&#xE01D;"
      horiz-adv-x="1001" d="M883.2352941176471 971.5588235294118H176.6470588235294C147.2058823529412 971.5588235294118 117.764705882353 942.1176470588236 117.764705882353 912.6764705882352V794.9117647058823H206.0882352941177C223.7529411764706 794.9117647058823 235.5294117647059 783.135294117647 235.5294117647059 765.4705882352941C235.5294117647059 747.8058823529411 223.7529411764706 736.0294117647059 206.0882352941177 736.0294117647059H88.3235294117647C70.6588235294118 736.0294117647059 58.8823529411765 724.2529411764706 58.8823529411765 706.5882352941176C58.8823529411765 688.9235294117648 70.6588235294118 677.1470588235294 88.3235294117647 677.1470588235294H117.764705882353V559.3823529411765H206.0882352941177C223.7529411764706 559.3823529411765 235.5294117647059 547.6058823529411 235.5294117647059 529.9411764705883C235.5294117647059 512.2764705882353 223.7529411764706 500.5 206.0882352941177 500.5H88.3235294117647C70.6588235294118 500.5 58.8823529411765 488.7235294117647 58.8823529411765 471.0588235294117C58.8823529411765 453.3941176470588 70.6588235294118 441.6176470588236 88.3235294117647 441.6176470588236H117.764705882353V323.8529411764706H206.0882352941177C223.7529411764706 323.8529411764706 235.5294117647059 312.0764705882354 235.5294117647059 294.4117647058823C235.5294117647059 276.7470588235294 223.7529411764706 264.9705882352942 206.0882352941177 264.9705882352942H88.3235294117647C70.6588235294118 264.9705882352942 58.8823529411765 253.1941176470589 58.8823529411765 235.5294117647059C58.8823529411765 217.864705882353 70.6588235294118 206.0882352941177 88.3235294117647 206.0882352941177H117.764705882353V88.3235294117648C117.764705882353 58.8823529411765 147.2058823529412 29.4411764705882 176.6470588235294 29.4411764705882H883.2352941176471C918.5647058823528 29.4411764705882 942.1176470588236 58.8823529411765 942.1176470588236 88.3235294117648V912.6764705882352C942.1176470588236 942.1176470588236 918.5647058823528 971.5588235294118 883.2352941176471 971.5588235294118zM765.4705882352941 382.7352941176471H423.9529411764706C423.9529411764706 382.7352941176471 423.9529411764706 453.3941176470588 429.8411764705882 465.1705882352942C441.6176470588236 482.8352941176471 476.9470588235294 488.7235294117647 506.3882352941176 506.3882352941176C541.7176470588234 518.1647058823528 547.6058823529411 524.0529411764705 547.6058823529411 524.0529411764705L547.6058823529411 559.3823529411765C547.6058823529411 559.3823529411765 535.8294117647058 571.1588235294118 529.9411764705882 600.6C529.9411764705883 594.7117647058824 518.164705882353 612.3764705882353 518.164705882353 618.2647058823529C518.164705882353 624.1529411764706 518.164705882353 647.7058823529412 529.9411764705883 641.8176470588235C529.9411764705883 659.4823529411765 524.0529411764707 671.2588235294118 529.9411764705883 677.1470588235294C529.9411764705883 706.5882352941176 553.4941176470588 730.1411764705883 594.7117647058824 730.1411764705883C635.9294117647058 730.1411764705883 659.4823529411765 700.7 665.370588235294 677.1470588235294C665.370588235294 671.2588235294118 665.370588235294 653.5941176470587 665.370588235294 641.8176470588235C677.1470588235293 641.8176470588235 677.1470588235293 624.1529411764707 677.1470588235293 618.2647058823529C677.1470588235293 612.3764705882353 665.370588235294 594.7117647058824 659.4823529411764 600.6C653.5941176470587 571.1588235294118 641.8176470588234 559.3823529411765 641.8176470588234 559.3823529411765L641.8176470588234 524.0529411764705C641.8176470588234 524.0529411764705 647.705882352941 518.164705882353 683.0352941176468 506.3882352941176C718.3647058823527 494.6117647058824 753.6941176470585 482.835294117647 759.5823529411763 465.1705882352942C765.4705882352941 453.3941176470588 765.4705882352941 382.7352941176471 765.4705882352941 382.7352941176471z" />
    <glyph glyph-name="person"
      unicode="&#xE01E;"
      horiz-adv-x="866.9863387978143" d="M362.3838797814208 883.396174863388A87.5191256830601 87.5191256830601 0 0 1 537.422131147541 883.396174863388A87.5191256830601 87.5191256830601 0 0 1 362.3838797814208 883.396174863388M533.3196721311475 728.8702185792349L449.9030054644809 563.4043715846994L366.4863387978142 728.8702185792349C330.931693989071 722.032786885246 299.4795081967213 711.0928961748634 274.8647540983606 697.4180327868853V388.3661202185793H356.9139344262295L391.1010928961749 39.6571038251367H507.337431693989L541.5245901639344 388.3661202185793H623.5737704918032V697.4180327868853C598.9590163934425 712.4603825136612 567.5068306010929 722.032786885246 533.3196721311475 728.8702185792349z" />
    <glyph glyph-name="plane"
      unicode="&#xE01F;"
      horiz-adv-x="1001" d="M932.932 938.938C927.927 941.941 920.92 941.941 915.915 938.938L599.5989999999999 751.751C591.591 746.746 588.588 736.7360000000001 593.593 727.7270000000001C598.598 719.719 608.608 716.716 617.617 721.721L843.843 855.855L422.4220000000001 419.419L213.2130000000001 483.4829999999999L486.486 645.645C494.494 650.6500000000001 497.4970000000001 660.6600000000001 492.4920000000001 669.669C487.4870000000001 677.6769999999999 477.4770000000001 680.6800000000001 468.4680000000001 675.675L161.161 492.492C155.155 489.4890000000001 152.152 482.4820000000001 153.153 475.475S159.159 463.463 165.165 461.461L415.415 384.384L525.525 183.183C525.525 183.183 525.525 183.183 525.525 182.182C527.527 179.1790000000001 530.53 176.1760000000002 533.533 175.1750000000001C535.535 174.1740000000001 537.5369999999999 174.1740000000001 540.54 174.1740000000001C544.544 174.1740000000001 549.549 176.1760000000002 552.552 179.1790000000001L679.6790000000001 303.3030000000001L918.9180000000002 230.2300000000002C920.92 230.23 921.921 230.23 923.923 230.23C927.927 230.23 930.93 231.231 933.933 233.233C937.937 236.236 940.94 241.241 940.94 247.2470000000001V923.923C940.94 929.929 937.937 935.935 932.932 938.938zM526.526 374.374C524.524 371.371 523.523 368.368 523.523 364.3640000000001V259.2590000000002L448.4480000000001 396.3960000000001L781.781 742.7420000000002L526.526 374.374zM558.558 233.233V341.341L642.642 315.3150000000001L558.558 233.233zM906.906 270.27L568.568 374.374L906.906 862.862V270.27zM343.343 343.343C336.336 350.35 325.325 350.35 319.319 343.343L158.158 182.182C151.151 175.1750000000001 151.151 164.1640000000001 158.158 158.158C161.161 155.155 166.166 153.153 170.17 153.153S179.179 155.155 182.182 158.158L343.343 319.3190000000001C349.349 325.3250000000001 349.349 336.336 343.343 343.343zM129.129 129.129C122.122 136.1360000000001 111.111 136.1360000000001 105.105 129.129L65.065 89.0890000000001C58.058 82.082 58.058 71.0710000000001 65.065 65.0650000000001C68.068 61.0609999999999 73.073 60.0600000000001 77.077 60.0600000000001S86.086 62.062 89.089 65.0650000000001L129.129 105.105C135.135 111.111 135.135 122.1220000000001 129.129 129.129zM305.305 90.09C302.302 93.093 297.297 95.095 293.293 95.095C288.288 95.095 284.284 93.093 281.281 90.09C278.278 87.0870000000001 276.276 82.082 276.276 78.078C276.276 73.073 278.278 69.069 281.281 66.0659999999999C284.284 63.063 289.289 61.0609999999999 293.293 61.0609999999999S302.302 63.063 305.305 66.0659999999999C308.308 69.069 310.31 74.074 310.31 78.078C310.31 83.083 308.308 87.0870000000001 305.305 90.09zM433.433 218.218C426.426 225.225 415.415 225.225 409.409 218.218L324.324 133.1330000000001C317.317 126.126 317.317 115.115 324.324 109.1089999999999C327.327 106.106 332.332 104.1039999999999 336.336 104.1039999999999S345.345 106.106 348.348 109.1089999999999L433.4330000000001 194.194C440.44 201.2009999999999 440.44 211.211 433.433 218.218zM726.7259999999999 225.225C719.7189999999999 232.2320000000001 708.708 232.2320000000001 702.7019999999999 225.225L617.6169999999998 140.14C610.6099999999999 133.1330000000001 610.6099999999999 122.1220000000001 617.6169999999998 116.116C620.6199999999999 113.113 625.6249999999999 111.111 629.6289999999999 111.111C633.6329999999999 111.111 638.6379999999999 113.113 641.641 116.116L726.7259999999999 201.2009999999999C733.733 207.207 733.733 218.218 726.7259999999999 225.225zM547.547 706.706C544.5440000000001 709.7090000000001 539.5390000000001 711.711 535.535 711.711C530.53 711.711 526.526 709.7090000000001 523.5229999999999 706.706C520.52 703.703 518.5179999999999 698.6980000000001 518.5179999999999 694.694C518.5179999999999 689.6890000000001 520.52 685.6850000000001 523.5229999999999 682.682C526.526 679.6790000000001 531.531 677.677 535.535 677.677C540.54 677.677 544.544 679.6790000000001 547.547 682.682C550.55 685.6850000000001 552.552 690.69 552.552 694.694C552.552 698.6980000000001 550.55 703.703 547.547 706.706z" />
    <glyph glyph-name="plus-circle"
      unicode="&#xE020;"
      horiz-adv-x="1001" d="M22.2444444444445 500.5A478.2555555555555 478.2555555555555 0 0 1 978.7555555555558 500.5A478.2555555555555 478.2555555555555 0 0 1 22.2444444444445 500.5M750.75 528.3055555555555L528.3055555555555 528.3055555555555L528.3055555555555 750.75L472.6944444444445 750.75L472.6944444444445 528.3055555555555L250.25 528.3055555555555L250.25 472.6944444444445L472.6944444444445 472.6944444444445L472.6944444444445 250.25L528.3055555555555 250.25L528.3055555555555 472.6944444444445L750.75 472.6944444444445z" />
    <glyph glyph-name="plus"
      unicode="&#xE021;"
      horiz-adv-x="1001" d="M250.25 528.3055555555555H472.6944444444445V750.75H528.3055555555555V528.3055555555555H750.75V472.6944444444445H528.3055555555555V250.25H472.6944444444445V472.6944444444445H250.25V528.3055555555555M194.6388888888889 973.1944444444443H806.3611111111112C900.9 973.1944444444443 973.1944444444443 900.9 973.1944444444443 806.3611111111111V194.6388888888888C973.1944444444443 100.1 900.9 27.8055555555555 806.3611111111112 27.8055555555555H194.6388888888889C100.1 27.8055555555555 27.8055555555556 100.1 27.8055555555556 194.6388888888888V806.3611111111111C27.8055555555556 900.9 100.1 973.1944444444443 194.6388888888889 973.1944444444443M194.6388888888889 917.5833333333334C133.4666666666667 917.5833333333334 83.4166666666667 867.5333333333333 83.4166666666667 806.3611111111111V194.6388888888888C83.4166666666667 133.4666666666666 133.4666666666667 83.4166666666666 194.6388888888889 83.4166666666666H806.3611111111112C867.5333333333334 83.4166666666666 917.5833333333334 133.4666666666666 917.5833333333334 194.6388888888888V806.3611111111111C917.5833333333334 867.5333333333333 867.5333333333334 917.5833333333334 806.3611111111112 917.5833333333334H194.6388888888889z" />
    <glyph glyph-name="remove"
      unicode="&#xE022;"
      horiz-adv-x="1001" d="M775.775 994.74375H225.225C106.35625 994.74375 6.25625 894.64375 6.25625 775.775V225.225C6.25625 106.3562499999999 106.35625 6.25625 225.225 6.25625H775.775C894.6437500000001 6.25625 994.74375 106.3562499999999 994.74375 225.225V775.775C994.74375 894.64375 894.6437500000001 994.74375 775.775 994.74375zM775.775 444.19375H225.225V556.8062500000001H775.775V444.19375z" />
    <glyph glyph-name="reports"
      unicode="&#xE023;"
      horiz-adv-x="1001" d="M58.80875 168.9187500000001H943.4425V113.86375H58.80875V168.9187500000001zM58.80875 721.97125H280.28V225.225H58.80875V721.97125zM390.39 500.5H611.8612499999999V223.97375H390.39V500.5zM721.9712499999999 887.13625H943.4425V223.97375H721.9712499999999V887.13625z" />
    <glyph glyph-name="sendemail"
      unicode="&#xE024;"
      horiz-adv-x="1068.5022173913044" d="M934.8730695652176 511.206347826087L934.8730695652176 600.3214608695653L1068.5022173913044 600.3214608695653L934.8730695652176 667.1360347826087L934.8730695652176 747.738295652174L681.6200695652175 1001.0000000000002L133.5246956521739 1001.0000000000002L133.5246956521739 667.1360347826087L0 600.3214608695653L133.5246956521739 600.3214608695653L133.5246956521739 511.206347826087L0 600.3214608695653L0 35.3135391304348L264.1160260869566 266.4574956521739L340.4183391304349 333.1676173913044L366.5400869565218 355.9730086956522L200.3392695652174 466.7967652173913L200.3392695652174 934.1854260869566L653.940243478261 934.1854260869566L667.8323826086958 920.3977391304348L667.8323826086958 733.8548608695653L854.2795130434783 733.8548608695653L868.162947826087 720.0584695652174L868.162947826087 466.7967652173913L701.9708347826088 355.9730086956522L728.0838782608696 333.1676173913044L804.3861913043479 266.4574956521739L1068.5022173913044 35.3135391304348L1068.5022173913044 600.3214608695653zM626.5389565217392 333.1676173913044L441.8588086956522 333.1676173913044L365.556495652174 266.4574956521739L60.2602 -0.6876434782608L1008.2420173913044 -0.6876434782608L703.0501739130435 266.4574956521739z" />
    <glyph glyph-name="settings"
      unicode="&#xE025;"
      horiz-adv-x="1001" d="M68.068 799.799H213.213C225.225 744.7439999999999 275.275 702.702 334.334 702.702C402.402 702.702 458.458 758.758 458.458 826.826C457.457 895.895 402.4020000000001 950.95 334.334 950.95C275.275 950.95 226.226 909.909 213.213 853.8530000000001H68.068C53.053 853.8530000000001 41.041 841.841 41.041 826.826S53.053 799.799 68.068 799.799zM334.334 896.896C372.372 896.896 404.404 865.865 404.404 826.826C404.404 788.788 373.373 756.7560000000001 334.334 756.7560000000001C296.296 756.7560000000001 264.264 787.787 264.264 826.826C264.264 865.865 295.295 896.896 334.334 896.896zM528.5279999999999 799.799H932.932C947.9469999999998 799.799 959.959 811.8109999999999 959.959 826.826S947.9469999999998 853.853 932.932 853.853H528.5279999999999C513.5129999999999 853.853 501.5009999999999 841.841 501.5009999999999 826.826S514.514 799.799 528.5279999999999 799.799zM68.068 473.473H502.502C517.5169999999999 473.473 529.529 485.485 529.529 500.5C529.529 515.515 517.5169999999999 527.527 502.502 527.527H68.068C53.053 527.527 41.041 515.515 41.041 500.5C41.041 485.485 53.053 473.473 68.068 473.473zM932.932 527.527H817.817C805.805 582.5820000000001 755.755 624.624 696.696 624.624C628.6280000000002 624.624 572.5720000000001 568.568 572.5720000000001 500.5000000000001C572.5720000000001 432.4320000000002 628.6280000000002 376.3760000000001 696.696 376.3760000000001C755.7550000000001 376.3760000000001 804.8040000000001 417.4170000000002 817.817 473.4730000000001H932.932C947.947 473.4730000000001 959.959 485.4850000000001 959.959 500.5000000000002C959.959 515.515 947.947 527.527 932.932 527.527zM696.6959999999999 430.4300000000001C658.6579999999999 430.4300000000001 626.626 461.461 626.626 500.5C626.626 538.538 657.6569999999999 570.5699999999999 696.6959999999999 570.5699999999999C734.7339999999999 570.5699999999999 766.766 539.539 766.766 500.5C766.766 462.462 735.735 430.4300000000001 696.6959999999999 430.4300000000001zM303.303 297.2970000000001C244.244 297.2970000000001 195.195 256.2560000000001 182.182 200.2000000000001H68.068C53.053 200.2000000000001 41.041 188.188 41.041 173.173S53.053 146.146 68.068 146.146H183.183C195.195 91.091 245.245 49.049 304.304 49.049C372.372 49.049 428.428 105.1049999999999 428.428 173.173C427.427 242.2420000000001 372.372 297.2970000000001 303.303 297.2970000000001zM303.303 104.104C265.265 104.104 233.233 135.135 233.233 174.1740000000001C233.233 212.212 264.264 244.2440000000001 303.303 244.2440000000001C341.341 244.2440000000001 373.373 213.2130000000001 373.373 174.1740000000001C373.373 135.135 342.3420000000001 104.104 303.303 104.104zM932.932 201.2009999999999H498.4979999999999C483.4829999999999 201.2009999999999 471.4709999999999 189.189 471.4709999999999 174.174S483.4829999999999 147.1469999999999 498.4979999999999 147.1469999999999H932.932C947.9469999999998 147.1469999999999 959.959 159.1589999999999 959.959 174.174S947.947 201.2009999999999 932.932 201.2009999999999z" />
    <glyph glyph-name="share"
      unicode="&#xE026;"
      horiz-adv-x="1033.2903225806451" d="M871.8387096774194 641.1935483870968L871.8387096774194 641.1935483870968C871.8387096774194 788.8064516129032 751.9032258064516 908.741935483871 608.9032258064516 908.741935483871C512.0322580645161 908.741935483871 424.3870967741936 853.3870967741935 378.258064516129 774.9677419354839C355.1935483870969 784.1935483870967 336.741935483871 793.4193548387096 313.6774193548387 793.4193548387096C230.6451612903226 793.4193548387096 166.0645161290323 728.8387096774193 166.0645161290323 645.8064516129032L166.0645161290323 641.1935483870968C92.258064516129 604.2903225806451 46.1290322580645 525.8709677419354 46.1290322580645 442.8387096774193C46.1290322580645 313.6774193548388 152.2258064516129 207.5806451612903 281.3870967741936 207.5806451612903H341.3548387096775V267.5483870967742H281.3870967741936C184.5161290322581 267.5483870967742 106.0967741935484 345.9677419354839 106.0967741935484 442.8387096774194C106.0967741935484 502.8064516129033 138.3870967741936 562.7741935483871 193.741935483871 595.0645161290324L221.4193548387096 613.5161290322582V641.1935483870968L221.4193548387096 645.8064516129032C221.4193548387096 691.9354838709677 262.9354838709678 728.8387096774193 309.0645161290323 728.8387096774193C322.9032258064517 733.4516129032259 336.741935483871 728.8387096774193 350.5806451612903 724.2258064516129L401.3225806451613 701.1612903225806L429 747.2903225806451C465.9032258064516 811.8709677419355 535.0967741935483 848.7741935483871 608.9032258064516 848.7741935483871C719.6129032258065 848.7741935483871 811.8709677419356 761.1290322580645 816.483870967742 645.8064516129032L816.483870967742 645.8064516129032V608.9032258064516L844.1612903225807 590.4516129032257C899.5161290322582 558.1612903225806 931.8064516129032 502.8064516129032 931.8064516129032 438.225806451613C931.8064516129032 341.3548387096775 853.3870967741937 262.9354838709677 756.516129032258 262.9354838709677H696.5483870967741V202.9677419354838H756.516129032258C885.6774193548388 202.9677419354838 991.7741935483872 309.0645161290322 991.7741935483872 438.2258064516128C987.1612903225806 525.8709677419354 941.032258064516 604.2903225806451 871.8387096774194 641.1935483870968zM516.6451612903226 618.1290322580644L341.3548387096775 382.8709677419354L456.6774193548388 382.8709677419354L456.6774193548388 92.258064516129L576.6129032258065 92.258064516129L576.6129032258065 382.8709677419354L696.5483870967743 382.8709677419354z" />
    <glyph glyph-name="store"
      unicode="&#xE027;"
      horiz-adv-x="1001" d="M197.6975 913.4125H87.5875C72.5725 913.4125 60.06 900.9 60.06 885.885V115.1150000000001C60.06 100.1 72.5725 87.5875000000001 87.5875 87.5875000000001H197.6975C212.7125 87.5875000000001 225.225 100.1 225.225 115.1150000000001V885.885C225.225 900.9 212.7125 913.4125 197.6975 913.4125zM170.17 142.6425000000002H115.115V197.6975000000002H170.17V142.6425000000002zM170.17 803.3025H115.115V858.3575000000001H170.17V803.3025zM693.1925 583.0825H638.1374999999999C623.1225 583.0825 610.6099999999999 570.57 610.6099999999999 555.5550000000001V115.1149999999999C610.6099999999999 100.0999999999999 623.1225 87.5874999999999 638.1374999999999 87.5874999999999H693.1925C708.2075 87.5874999999999 720.72 100.0999999999999 720.72 115.1149999999999V555.5550000000001C720.72 570.57 708.2075 583.0825 693.1925 583.0825zM913.4125 638.1375H803.3025C788.2874999999999 638.1375 775.775 625.625 775.775 610.61V115.1150000000001C775.775 100.1 788.2874999999999 87.5875000000001 803.3025 87.5875000000001H913.4125C928.4275 87.5875000000001 940.94 100.1 940.94 115.1150000000001V610.61C940.94 625.625 928.4275 638.1375 913.4125 638.1375zM885.8849999999999 142.6425000000002H830.8299999999998V197.6975000000002H885.8849999999999V142.6425000000002zM885.8849999999999 528.0275000000001H830.8299999999998V583.0825H885.8849999999999V528.0275000000001zM528.0275 748.2475000000001H307.8075C292.7925 748.2475000000001 280.2800000000001 735.735 280.2800000000001 720.72V115.1150000000001C280.2800000000001 100.1 292.7925 87.5875000000001 307.8075 87.5875000000001H528.0275C543.0425 87.5875000000001 555.5550000000001 100.1 555.5550000000001 115.1150000000001V720.72C555.555 735.735 543.0424999999999 748.2475000000001 528.0275 748.2475000000001zM500.5 197.6975H335.335V252.7525H500.5V197.6975zM500.5 583.0825H335.335V638.1375H500.5V583.0825z" />
    <glyph glyph-name="upload"
      unicode="&#xE028;"
      horiz-adv-x="1001.0021070268608" d="M984.1522132201728 310.3861268804847C972.9407232932766 321.6186870759899 959.2956173420308 327.2296996065901 943.2527148230708 327.2296996065901H686.3850702096712C677.9696049272012 304.7751143498844 663.8293476636419 286.3302012094881 643.9790476070195 271.8949601854015C624.1203194429535 257.4576121344541 601.9691460542186 250.2347240552585 577.5107782527886 250.2347240552585H423.4955428277943C399.0350679995033 250.2347240552585 376.8754665033248 257.4597191613149 357.0293805004242 271.8949601854015C337.1748663900799 286.3302012094881 323.0430372339642 304.7730073230233 314.6212508709114 327.2296996065901H57.7493922037901C41.7107037385519 327.2296996065901 28.0761329216106 321.6186870759897 16.8435727261055 310.3861268804846C5.6131195574612 299.166208846145 0 285.5316380292037 0 269.4866284833827V76.9865474438881C0 60.9520730323716 5.6131195574612 47.3006460005431 16.8435727261055 36.089156073647C28.0740258947497 24.8608099318636 41.708596711691 19.2519044281244 57.7493922037901 19.2519044281244H943.2611429305144C959.295617342031 19.2519044281244 972.9407232932768 24.8608099318636 984.1585343007556 36.089156073647C995.3932015231215 47.3153951885694 1001.002107026861 60.9520730323716 1001.002107026861 76.9865474438881V269.4866284833827C1001.0021070268608 285.5316380292037 995.3932015231214 299.1514596581186 984.1522132201728 310.3861268804847zM758.5823455987135 107.666965565582C750.9528013353624 100.0458494096746 741.9262982632289 96.2300237645687 731.498622328591 96.2300237645687S712.0570854829849 100.0458494096746 704.4296482464948 107.666965565582C696.8148531711702 115.2796536140458 693.0074556335079 124.3082637130402 693.0074556335079 134.7359396476782S696.8148531711702 154.1964397350324 704.4296482464948 161.8049137297743C712.0570854829849 169.417601778238 721.070946393953 173.2418555307876 731.498622328591 173.2418555307876S750.9506943085016 169.4197088050988 758.5823455987135 161.8049137297743C766.1950336471772 154.1985467618932 770.0045382117004 145.163615582316 770.0045382117004 134.7359396476782S766.1950336471772 115.2817606409067 758.5823455987135 107.666965565582zM912.5722967013768 107.666965565582C904.9575016260522 100.0458494096746 895.9309985539185 96.2300237645687 885.5012155924196 96.2300237645687C875.0756466846426 96.2300237645687 866.0554646930918 100.0458494096746 858.4322415103236 107.666965565582C850.8195534618599 115.2796536140458 847.0121559241975 124.3082637130402 847.0121559241975 134.7359396476782S850.8195534618599 154.1964397350324 858.4322415103236 161.8049137297743C866.0533576662309 169.417601778238 875.0735396577818 173.2418555307876 885.5012155924196 173.2418555307876C895.9288915270577 173.2418555307876 904.9553945991912 169.4197088050988 912.5722967013768 161.8049137297743C920.1934128572842 154.1985467618932 924.0071314755291 145.163615582316 924.0071314755291 134.7359396476782S920.1997339378668 115.2817606409067 912.5722967013768 107.666965565582zM230.9975688151605 635.2412072148304H384.9980550521284V365.7335084628386C384.9980550521284 355.3079395550616 388.8096666435125 346.2814364829281 396.4265687456981 338.6645343807425C404.0476849016054 331.0518463322788 413.0720809468781 327.2296996065901 423.4955428277943 327.2296996065901H577.5107782527886C587.9363471605656 327.2296996065901 596.9523150983946 331.0497393054178 604.5797523348847 338.6645343807425C612.1945474102092 346.2793294560671 616.0019449478716 355.3058325282008 616.0019449478716 365.7335084628386V635.2412072148304H770.0066452385613C786.8565390452495 635.2412072148304 798.6896018961137 643.2668725280323 805.4974056837102 659.3034539664096C812.3178516324722 674.9418073280751 809.5049707731588 688.7807597505246 797.0756193206574 700.8139901531752L527.5679205686657 970.3174748514452C520.3429254626092 977.9385910073524 511.331171578502 981.7502025987366 500.4989464865695 981.7502025987366C489.6772565289416 981.7502025987366 480.6528604836689 977.9385910073524 473.4299724044733 970.3174748514452L203.9307017599252 700.8139901531752C191.4950292268411 688.7807597505246 188.6905764749714 674.9502354355188 195.5047013431507 659.3034539664097C202.3293613456345 643.2584444205886 214.1582101427769 635.2412072148304 230.9975688151605 635.2412072148304z" />
    <glyph glyph-name="user"
      unicode="&#xE029;"
      horiz-adv-x="1001" d="M942.1176470588236 259.0823529411765C912.6764705882352 300.3 824.3529411764706 329.7411764705883 730.1411764705882 365.0705882352942C635.929411764706 400.4000000000001 618.2647058823529 418.064705882353 618.2647058823529 418.064705882353L618.2647058823529 506.3882352941177C618.2647058823529 506.3882352941177 653.5941176470589 529.9411764705883 665.3705882352941 612.3764705882354C683.035294117647 606.4882352941177 700.7 647.7058823529412 706.5882352941177 665.3705882352941C706.5882352941177 683.035294117647 700.7 736.0294117647059 677.1470588235294 736.0294117647059C683.035294117647 777.2470588235294 688.9235294117647 812.5764705882352 683.035294117647 830.2411764705882C677.1470588235294 900.9 606.4882352941175 977.4470588235293 500.5 977.4470588235293C394.5117647058824 977.4470588235293 323.8529411764706 900.9 317.964705882353 830.2411764705882C317.964705882353 812.5764705882353 317.964705882353 777.2470588235294 323.8529411764706 736.0294117647059C300.3 736.0294117647059 294.4117647058824 683.035294117647 294.4117647058824 665.3705882352941C294.4117647058824 647.7058823529412 317.964705882353 606.4882352941177 341.5176470588235 612.3764705882352C347.4058823529412 529.9411764705883 382.7352941176471 506.3882352941176 382.7352941176471 506.3882352941176L382.7352941176471 418.0647058823529C382.7352941176471 418.0647058823529 359.1823529411765 406.2882352941176 270.8588235294117 365.0705882352941C176.6470588235294 329.7411764705883 88.3235294117647 300.3 58.8823529411765 259.0823529411765C35.3294117647059 217.864705882353 41.2176470588235 35.3294117647059 41.2176470588235 35.3294117647059H953.8941176470588C953.8941176470588 35.3294117647059 965.670588235294 217.864705882353 942.1176470588236 259.0823529411765z" />
  </font>
</defs>
</svg>
