<?xml version="1.0" standalone="no"?>
<!DOCTYPE svg PUBLIC "-//W3C//DTD SVG 1.1//EN" "http://www.w3.org/Graphics/SVG/1.1/DTD/svg11.dtd" >
<svg xmlns="http://www.w3.org/2000/svg">
<metadata>Generated by IcoMoon</metadata>
<defs>
<font id="AQMIcon" horiz-adv-x="1024">
<font-face units-per-em="1024" ascent="960" descent="-64" />
<missing-glyph horiz-adv-x="1024" />
<glyph unicode="&#x20;" horiz-adv-x="512" d="" />
<glyph unicode="&#xe900;" glyph-name="adjust" horiz-adv-x="1045" d="M30.867 788.543h165.404c14.586-63.329 70.417-109.857 137.14-109.997h0.015c77.669 0.093 140.607 63.031 140.7 140.691v0.009c-0.062 77.692-63.012 140.661-140.691 140.754h-0.009c-66.753-0.145-122.591-46.7-136.971-109.103l-0.184-0.948h-165.404c-16.957 0-30.703-13.746-30.703-30.703v0c0-16.957 13.746-30.703 30.703-30.703v0zM333.426 898.539c43.757-0.062 79.208-35.533 79.239-79.291v-0.003c-0.031-43.75-35.489-79.208-79.236-79.239h-0.003c-43.773 0-79.263 35.47-79.294 79.236v0.003c0.031 43.723 35.42 79.17 79.118 79.294h0.012zM554.728 788.543h459.183c16.957 0 30.703 13.746 30.703 30.703v0c0 16.957-13.746 30.703-30.703 30.703v0h-459.183c-0.016 0-0.035 0-0.055 0-16.957 0-30.703-13.746-30.703-30.703 0 0 0 0 0 0v0c0 0 0 0 0 0 0-16.957 13.746-30.703 30.703-30.703 0.019 0 0.038 0 0.058 0h-0.003zM30.867 417.27h493.595c16.957 0 30.703 13.746 30.703 30.703v0c0 0 0 0 0 0 0 16.968-13.74 30.727-30.7 30.758h-493.598c-16.964-0.031-30.703-13.79-30.703-30.758 0 0 0 0 0 0v0c0-16.957 13.746-30.703 30.703-30.703v0zM1013.911 478.73h-130.884c-14.563 63.322-70.377 109.852-137.084 109.997h-0.016c-77.699-0.093-140.661-63.055-140.754-140.745v-0.009c0.093-77.688 63.062-140.638 140.748-140.7h0.006c66.723 0.145 122.537 46.675 136.916 109.049l0.184 0.948h130.884c16.957 0 30.703 13.746 30.703 30.703v0c0 0 0 0 0 0 0 16.968-13.74 30.727-30.7 30.758h-0.003zM745.763 368.679c-43.768 0.062-79.232 35.526-79.294 79.288v0.006c0.062 43.768 35.526 79.232 79.288 79.294h0.006c43.78-0.031 79.263-35.514 79.294-79.291v-0.003c-0.062-43.768-35.526-79.232-79.288-79.294h-0.006zM298.851 217.454c-66.731-0.123-122.556-46.664-136.917-109.049l-0.184-0.947h-130.884c-16.964-0.031-30.703-13.79-30.703-30.758 0 0 0 0 0 0v0c0-16.957 13.746-30.703 30.703-30.703v0h130.884c14.545-63.332 70.37-109.873 137.087-109.997h0.014c77.692 0.062 140.661 63.012 140.754 140.691v0.009c-0.093 77.699-63.055 140.661-140.745 140.754h-0.009zM298.851-2.594c-43.744 0.093-79.177 35.545-79.239 79.288v0.006c0.031 43.761 35.482 79.231 79.233 79.294h0.006c43.78-0.031 79.263-35.514 79.294-79.291v-0.003c-0.062-43.768-35.526-79.232-79.288-79.294h-0.006zM1013.911 107.457h-493.595c-16.964-0.031-30.703-13.79-30.703-30.758 0 0 0 0 0 0v0c0-16.957 13.746-30.703 30.703-30.703v0h493.595c16.957 0 30.703 13.746 30.703 30.703v0c0 0 0 0 0 0 0 16.968-13.74 30.727-30.7 30.758h-0.003z" />
<glyph unicode="&#xe901;" glyph-name="administrator" d="M825.748 388.311h-83.794c50.682 59.707 82.076 137.18 83.788 221.939l0.006 0.363c0 241.324-157.53 349.387-313.584 349.387-1.918 0.044-4.178 0.069-6.444 0.069-130.707 0-241.842-83.795-282.616-200.595l-0.638-2.099c-12.783-33.684-20.87-72.621-22.391-113.238l-0.020-0.673c-0.711-10.932-1.421-21.536-1.421-32.796 1.718-85.123 33.112-162.596 84.218-222.814l-0.424 0.512h-91.883c-105.080-0.433-190.143-85.516-190.545-190.561v-254.098h1016.293v254.060c-0.433 105.060-85.484 190.112-190.503 190.545h-0.042zM63.515 7.222v190.545c0.093 70.119 56.911 126.937 127.021 127.030h34.773c8.198-118.281 44.123-226.66 101.26-320.728l-1.779 3.154zM389.562 26.298c-56.417 84.422-92.916 186.546-100.576 296.615l-0.108 1.938h58.814c27.653-21.695 59.81-39.299 94.63-51.143l2.282-0.674v-75.212h21.153zM262.040 610.668c0.254 18.46 1.676 36.343 4.197 53.871l-0.262-2.218c53.224 29.568 93.369 77.237 112.544 134.516l0.493 1.697c55.316-61.492 172.070-103.854 307.517-103.854 23.204 0.081 45.993 1.449 68.411 4.036l-2.819-0.265c6.391-26.224 10.128-56.367 10.276-87.358v-0.098c0-157.858-150.042-285.817-250.069-285.817s-250.288 127.631-250.288 285.489zM550.535 197.767h21.153v72.588c40.21 12.413 75.126 31.086 105.562 55.171l-0.67-0.511h50.888c-7.768-112.007-44.266-214.131-102.098-300.806l1.415 2.253zM952.778 7.222h-261.275c55.358 90.914 91.283 199.294 99.357 315.345l0.124 2.23h34.764c70.119-0.093 126.937-56.911 127.030-127.021v-0.009zM412.901 642.426c-17.539 0-31.757-14.218-31.757-31.757s14.218-31.757 31.757-31.757c17.539 0 31.757 14.218 31.757 31.757v0c-0.062 17.514-14.243 31.696-31.752 31.757h-0.006zM603.446 642.426c-17.539 0-31.757-14.218-31.757-31.757s14.218-31.757 31.757-31.757c17.539 0 31.757 14.218 31.757 31.757v0c-0.062 17.514-14.243 31.696-31.752 31.757h-0.006z" />
<glyph unicode="&#xe902;" glyph-name="catalog" horiz-adv-x="1007" d="M356.479-64.17h293.897c7.844 0 14.203 6.359 14.203 14.203v0 995.765c0 7.844-6.359 14.203-14.203 14.203v0h-293.897c-7.844 0-14.203-6.359-14.203-14.203v0-995.878c0-7.844 6.359-14.203 14.203-14.203v0zM370.682 819.672h154.87v-62.242h-154.87zM370.682 226.445h154.87v-44.249h-154.87zM370.682 153.792h169.073c7.844 0 14.203 6.359 14.203 14.203v0 72.824c0 7.844-6.359 14.203-14.203 14.203v0h-169.073v474.060h169.073c7.844 0 14.203 6.359 14.203 14.203v0 90.534c0 7.844-6.359 14.203-14.203 14.203v0h-169.073v83.688h265.492v-967.586h-265.492zM503.428 682.060c-46.594 0-84.367-37.772-84.367-84.367s37.772-84.367 84.367-84.367c46.594 0 84.367 37.772 84.367 84.367v0c-0.064 46.569-37.798 84.302-84.361 84.367h-0.006zM503.428 541.731c-30.907 0-55.962 25.055-55.962 55.962s25.055 55.962 55.962 55.962c30.907 0 55.962-25.055 55.962-55.962v0c-0.032-30.894-25.068-55.929-55.958-55.962h-0.003zM573.592 33.211h-140.328c-0.38 0.036-0.821 0.057-1.267 0.057-7.844 0-14.203-6.359-14.203-14.203s6.359-14.203 14.203-14.203c0.446 0 0.887 0.021 1.322 0.061l-0.056-0.004h140.328c0.38-0.036 0.821-0.057 1.267-0.057 7.844 0 14.203 6.359 14.203 14.203s-6.359 14.203-14.203 14.203c-0.446 0-0.887-0.021-1.322-0.061l0.056 0.004zM14.203-64.17h293.897c7.844 0 14.203 6.359 14.203 14.203v0 995.765c0 7.844-6.359 14.203-14.203 14.203h-293.897c-7.844 0-14.203-6.359-14.203-14.203v0-995.878c0-7.844 6.359-14.203 14.203-14.203v0zM28.292 819.842h154.983v-62.242h-154.983zM28.292 226.615h154.983v-44.249h-154.983zM28.292 153.961h169.186c7.844 0 14.203 6.359 14.203 14.203v0 72.654c0 7.844-6.359 14.203-14.203 14.203v0h-169.186v474.060h169.186c7.844 0 14.203 6.359 14.203 14.203v0 90.534c0 7.844-6.359 14.203-14.203 14.203v0h-169.186v83.688h265.605v-967.586h-265.605zM161.151 682.060c-46.594 0-84.367-37.772-84.367-84.367s37.772-84.367 84.367-84.367c46.594 0 84.367 37.772 84.367 84.367v0c-0.064 46.569-37.798 84.302-84.361 84.367h-0.006zM161.151 541.731c-30.907 0-55.962 25.055-55.962 55.962s25.055 55.962 55.962 55.962c30.907 0 55.962-25.055 55.962-55.962v0c-0.032-30.894-25.068-55.929-55.958-55.962h-0.003zM231.315 33.211h-140.385c-0.38 0.036-0.821 0.057-1.267 0.057-7.844 0-14.203-6.359-14.203-14.203s6.359-14.203 14.203-14.203c0.446 0 0.887 0.021 1.322 0.061l-0.056-0.004h140.328c0.38-0.036 0.821-0.057 1.267-0.057 7.844 0 14.203 6.359 14.203 14.203s-6.359 14.203-14.203 14.203c-0.446 0-0.887-0.021-1.322-0.061l0.056 0.004zM698.755-64.17h293.897c7.844 0 14.203 6.359 14.203 14.203v0 995.765c0 7.844-6.359 14.203-14.203 14.203v0h-293.897c-7.844 0-14.203-6.359-14.203-14.203v0-995.878c0-7.844 6.359-14.203 14.203-14.203v0zM712.958 819.672h154.87v-62.242h-154.87zM712.958 226.445h154.87v-44.249h-154.87zM712.958 153.792h169.073c7.844 0 14.203 6.359 14.203 14.203v0 72.824c0 7.844-6.359 14.203-14.203 14.203v0h-169.073v474.060h169.073c7.844 0 14.203 6.359 14.203 14.203v0 90.534c0 7.844-6.359 14.203-14.203 14.203v0h-169.073v83.688h265.492v-967.586h-265.492zM845.591 682.060c-46.594 0-84.367-37.772-84.367-84.367s37.772-84.367 84.367-84.367c46.594 0 84.367 37.772 84.367 84.367v0c-0.064 46.569-37.798 84.302-84.361 84.367h-0.006zM845.591 541.731c-30.907 0-55.962 25.055-55.962 55.962s25.055 55.962 55.962 55.962c30.907 0 55.962-25.055 55.962-55.962v0c-0.032-30.894-25.068-55.929-55.958-55.962h-0.003zM915.811 33.211h-140.328c-0.38 0.036-0.821 0.057-1.267 0.057-7.844 0-14.203-6.359-14.203-14.203s6.359-14.203 14.203-14.203c0.446 0 0.887 0.021 1.322 0.061l-0.056-0.004h140.328c0.38-0.036 0.821-0.057 1.267-0.057 7.844 0 14.203 6.359 14.203 14.203s-6.359 14.203-14.203 14.203c-0.446 0-0.887-0.021-1.322-0.061l0.056 0.004z" />
<glyph unicode="&#xe904;" glyph-name="dashboard" d="M571.605 482.219h229.163c0.152-0.003 0.33-0.005 0.51-0.005 14.138 0 25.6 11.462 25.6 25.6 0 1.799-0.186 3.554-0.539 5.249l0.029-0.166c-11.219 60.869-38.862 113.963-78.122 156.088l0.17-0.184 21.547 47.275h113.536c14.351 0 25.984 11.633 25.984 25.984s-11.633 25.984-25.984 25.984h-129.92c-0.014 0-0.031 0-0.049 0-10.188 0-19.006-5.863-23.265-14.399l-0.068-0.151-23.381-48.085c-36.474 27.741-80.276 47.858-127.956 57.112l-1.964 0.317c-1.515 0.319-3.256 0.501-5.040 0.501-14.138 0-25.6-11.462-25.6-25.6 0-0.176 0.002-0.352 0.005-0.527v0.026-229.163c0.067-14.074 11.313-25.5 25.311-25.855l0.033-0.001zM597.589 704.085c81.018-26.357 143.584-88.923 169.419-168.091l0.522-1.851h-169.941zM987.307 690.048h-77.952c-14.351 0-25.984-11.633-25.984-25.984s11.633-25.984 25.984-25.984h77.952c14.351 0 25.984 11.633 25.984 25.984s-11.633 25.984-25.984 25.984v0zM274.645 259.797l-30.933-63.403h-113.792c-14.351 0-25.984-11.633-25.984-25.984s11.633-25.984 25.984-25.984h129.92c0.014 0 0.031 0 0.049 0 10.188 0 19.006 5.863 23.265 14.399l0.068 0.151 30.933 63.403c54.571-48.030 126.628-77.342 205.532-77.342 151.947 0 278.506 108.701 306.155 252.582l0.313 1.955c0.324 1.528 0.51 3.284 0.51 5.082 0 14.138-11.462 25.6-25.6 25.6-0.179 0-0.358-0.002-0.536-0.006h-307.173v307.2c0.003 0.152 0.005 0.33 0.005 0.51 0 14.138-11.462 25.6-25.6 25.6-1.799 0-3.554-0.186-5.249-0.539l0.166 0.029c-145.986-27.836-254.845-154.468-254.845-306.525 0-73.812 25.651-141.632 68.524-195.034l-0.473 0.61zM441.685 704.085v-299.861c0-14.351 11.633-25.984 25.984-25.984v0h299.648c-34.195-106.266-132.183-181.811-247.816-181.811-143.482 0-259.797 116.315-259.797 259.797 0 115.633 75.545 213.621 179.972 247.303l1.839 0.513zM25.984 144.427c14.351 0 25.984 11.633 25.984 25.984s-11.633 25.984-25.984 25.984c-14.351 0-25.984-11.633-25.984-25.984v0c0-14.351 11.633-25.984 25.984-25.984v0zM25.984 222.379h77.952c14.351 0 25.984 11.633 25.984 25.984s-11.633 25.984-25.984 25.984h-77.952c-14.351 0-25.984-11.633-25.984-25.984s11.633-25.984 25.984-25.984v0z" />
<glyph unicode="&#xe905;" glyph-name="drag" d="M598.947 843.636c0 64.266 52.098 116.364 116.364 116.364s116.364-52.098 116.364-116.364c0-64.266-52.098-116.364-116.364-116.364s-116.364 52.098-116.364 116.364zM598.947 471.273c0 64.266 52.098 116.364 116.364 116.364s116.364-52.098 116.364-116.364c0-64.266-52.098-116.364-116.364-116.364s-116.364 52.098-116.364 116.364zM598.947 98.909c0 64.266 52.098 116.364 116.364 116.364s116.364-52.098 116.364-116.364c0-64.266-52.098-116.364-116.364-116.364s-116.364 52.098-116.364 116.364zM186.182 843.636c0 64.266 52.098 116.364 116.364 116.364s116.364-52.098 116.364-116.364c0-64.266-52.098-116.364-116.364-116.364s-116.364 52.098-116.364 116.364zM186.182 471.273c0 64.266 52.098 116.364 116.364 116.364s116.364-52.098 116.364-116.364c0-64.266-52.098-116.364-116.364-116.364s-116.364 52.098-116.364 116.364zM186.182 98.909c0 64.266 52.098 116.364 116.364 116.364s116.364-52.098 116.364-116.364c0-64.266-52.098-116.364-116.364-116.364s-116.364 52.098-116.364 116.364z" />
<glyph unicode="&#xe90b;" glyph-name="expand" d="M512 757.658l501.76-501.76-117.555-117.555-384.205 384.102-384.205-384.102-117.555 117.555 501.76 501.76z" />
<glyph unicode="&#xe90d;" glyph-name="lector" d="M520.149 768c-3.484 0.078-7.589 0.122-11.704 0.122-224.116 0-417.485-131.644-506.998-321.823l-1.447-3.42c96.16-194.049 292.86-325.109 520.171-325.109s424.012 131.061 518.657 321.739l1.513 3.37c-90.961 193.599-284.329 325.242-508.445 325.242-4.115 0-8.221-0.044-12.315-0.133l0.611 0.010zM520.192 182.827c-3.898-0.111-8.485-0.174-13.087-0.174-187.186 0-350.023 104.247-433.623 257.85l-1.29 2.59c90.686 156.407 257.318 259.922 448.128 259.922s357.442-103.514 446.803-257.45l1.325-2.472c-84.89-156.194-247.728-260.44-434.913-260.44-4.602 0-9.189 0.063-13.76 0.188l0.674-0.015zM520.192 442.88v195.072c-0.028 0-0.061 0-0.094 0-107.759 0-195.115-87.356-195.115-195.115s87.356-195.115 195.115-195.115c107.759 0 195.115 87.356 195.115 195.115 0 53.867-21.829 102.635-57.123 137.942v0z" />
<glyph unicode="&#xe90e;" glyph-name="menu" d="M176.128 705.268c70.342 0 127.366 57.024 127.366 127.366s-57.024 127.366-127.366 127.366c-70.342 0-127.366-57.024-127.366-127.366v0c0.083-70.309 57.057-127.283 127.358-127.366h0.008zM176.128 914.261c45.082 0 81.627-36.546 81.627-81.627s-36.546-81.627-81.627-81.627c-45.082 0-81.627 36.546-81.627 81.627v0c0.055 45.059 36.568 81.572 81.622 81.627h0.005zM506.636 960c-70.342 0-127.366-57.024-127.366-127.366s57.024-127.366 127.366-127.366c70.342 0 127.366 57.024 127.366 127.366v0c-0.083 70.309-57.057 127.283-127.358 127.366h-0.008zM506.636 751.006c-45.082 0-81.627 36.546-81.627 81.627s36.546 81.627 81.627 81.627c45.082 0 81.627-36.546 81.627-81.627v0c-0.055-45.059-36.568-81.572-81.622-81.627h-0.005zM837.193 960c-70.342 0-127.366-57.024-127.366-127.366s57.024-127.366 127.366-127.366c70.342 0 127.366 57.024 127.366 127.366v0c-0.083 70.309-57.057 127.283-127.358 127.366h-0.008zM837.193 751.006c-45.082 0-81.627 36.546-81.627 81.627s36.546 81.627 81.627 81.627c45.082 0 81.627-36.546 81.627-81.627v0c-0.055-45.059-36.568-81.572-81.622-81.627h-0.005zM176.128 327.509c70.342 0 127.366 57.024 127.366 127.366s-57.024 127.366-127.366 127.366c-70.325 0-127.338-56.996-127.366-127.315v-0.003c0.055-70.33 57.040-127.332 127.358-127.415h0.008zM176.128 536.552c45.082 0 81.627-36.546 81.627-81.627s-36.546-81.627-81.627-81.627c-45.082 0-81.627 36.546-81.627 81.627v0c0.139 44.996 36.619 81.426 81.622 81.481h0.005zM506.636 582.29c-70.342 0-127.366-57.024-127.366-127.366s57.024-127.366 127.366-127.366c70.342 0 127.366 57.024 127.366 127.366v0c-0.083 70.309-57.057 127.283-127.358 127.366h-0.008zM506.636 373.248c-45.082 0-81.627 36.546-81.627 81.627s36.546 81.627 81.627 81.627c45.082 0 81.627-36.546 81.627-81.627v0c-0.055-45.059-36.568-81.572-81.622-81.627h-0.005zM837.193 582.29c-70.342 0-127.366-57.024-127.366-127.366s57.024-127.366 127.366-127.366c70.342 0 127.366 57.024 127.366 127.366v0c-0.083 70.309-57.057 127.283-127.358 127.366h-0.008zM837.193 373.248c-45.082 0-81.627 36.546-81.627 81.627s36.546 81.627 81.627 81.627c45.082 0 81.627-36.546 81.627-81.627v0c-0.055-45.059-36.568-81.572-81.622-81.627h-0.005zM176.128-50.2c70.342 0 127.366 57.024 127.366 127.366s-57.024 127.366-127.366 127.366c-70.325 0-127.338-56.996-127.366-127.315v-0.003c0.055-70.33 57.040-127.332 127.358-127.415h0.008zM176.128 158.793c45.082 0 81.627-36.546 81.627-81.627s-36.546-81.627-81.627-81.627c-45.082 0-81.627 36.546-81.627 81.627v0c0.028 45.080 36.551 81.621 81.622 81.676h0.005zM506.636 204.337c-70.342 0-127.366-57.024-127.366-127.366s57.024-127.366 127.366-127.366c70.342 0 127.366 57.024 127.366 127.366v0c-0.083 70.309-57.057 127.283-127.358 127.366h-0.008zM506.636-4.657c-45.082 0-81.627 36.546-81.627 81.627s36.546 81.627 81.627 81.627c45.082 0 81.627-36.546 81.627-81.627v0c-0.194-44.955-36.654-81.329-81.622-81.384h-0.005zM837.193 204.337c-70.342 0-127.366-57.024-127.366-127.366s57.024-127.366 127.366-127.366c70.342 0 127.366 57.024 127.366 127.366v0c-0.083 70.309-57.057 127.283-127.358 127.366h-0.008zM837.193-4.657c-45.082 0-81.627 36.546-81.627 81.627s36.546 81.627 81.627 81.627c45.082 0 81.627-36.546 81.627-81.627v0c-0.194-44.955-36.654-81.329-81.622-81.384h-0.005z" />
<glyph unicode="&#xe90f;" glyph-name="menu-list" d="M416 448c0-52.928 43.072-96 96-96s96 43.072 96 96-43.072 96-96 96-96-43.072-96-96zM416 128c0-52.928 43.072-96 96-96s96 43.072 96 96-43.072 96-96 96-96-43.072-96-96zM416 768c0-52.928 43.072-96 96-96s96 43.072 96 96-43.072 96-96 96-96-43.072-96-96z" />
<glyph unicode="&#xe910;" glyph-name="moderator" horiz-adv-x="1023" d="M45.999 258.189l-22.999-161.259-22.999-160.996 161.193 22.737 161.193 23.131-137.997 137.997zM367.991 120.915l-45.999 45.999 414.581 414.778-91.998 91.998-414.647-414.647-45.999 45.999 414.055 414.91-45.999 45.999-460.711-460.711 276.453-275.993 460.646 460.777-45.999 45.999zM1003.038 756.225l-184.193 183.995c-11.679 12.009-27.991 19.459-46.043 19.459-17.132 0-32.696-6.71-44.208-17.645l0.028 0.026-4.534-6.571-1.051 1.249-88.515-88.515 276.453-276.453 88.449 88.515-1.183 1.249 6.571 4.337c10.972 11.46 17.727 27.035 17.727 44.188 0 18.070-7.496 34.389-19.547 46.017l-0.019 0.018z" />
<glyph unicode="&#xe911;" glyph-name="remove" d="M511.964 960c-282.75 0-511.964-229.214-511.964-511.964s229.214-511.964 511.964-511.964c282.724 0 511.923 229.173 511.964 511.887v0.004c0 0.022 0 0.047 0 0.072 0 282.75-229.214 511.964-511.964 511.964v0zM511.964 13.983c-0.021 0-0.047 0-0.072 0-239.721 0-434.053 194.332-434.053 434.053s194.332 434.053 434.053 434.053c239.721 0 434.053-194.332 434.053-434.053 0-0.025 0-0.051 0-0.076v0.003c-0.289-239.565-194.416-433.692-433.953-433.981h-0.027zM299.249 523.99h434.85v-72.475h-434.85z" />
<glyph unicode="&#xe912;" glyph-name="reports" d="M905.165 767.488l-169.933 186.931c-3.122 3.434-7.607 5.581-12.593 5.581-0.001 0-0.002 0-0.002 0h-543.437c-28.277 0-51.2-22.923-51.2-51.2v0-917.248c0-28.277 22.923-51.2 51.2-51.2v0h679.373c28.277 0 51.2 22.923 51.2 51.2v0 764.57c-0.013 4.383-1.683 8.373-4.416 11.38l0.012-0.014zM739.635 899.021l114.534-125.901h-97.28c-9.388 0-16.998 7.61-16.998 16.998v0zM858.573-25.446h-679.373c-9.388 0-16.998 7.61-16.998 16.998v0 917.248c-0.001 0.061-0.001 0.133-0.001 0.205 0 9.388 7.61 16.998 16.998 16.998 0 0 0.001 0 0.001 0h526.49v-135.936c0-28.277 22.923-51.2 51.2-51.2v0h118.63v-747.52c0-9.388-7.61-16.998-16.998-16.998v0zM466.278 617.779c0.104 0.708 0.164 1.525 0.164 2.356 0 9.388-7.61 16.998-16.998 16.998-0.058 0-0.115 0-0.173-0.001h-100.394v118.989c0 9.388-7.61 16.998-16.998 16.998v0c-0.043 0-0.093 0-0.144 0-75.075 0-135.936-60.861-135.936-135.936s60.861-135.936 135.936-135.936c68.229 0 124.718 50.267 134.453 115.788l0.091 0.743zM229.939 637.184c0 0.013 0 0.029 0 0.045 0 50.295 36.424 92.083 84.332 100.424l0.609 0.088v-117.76c0-9.388 7.61-16.998 16.998-16.998v0h96c-14.503-39.77-51.995-67.653-96-67.653-56.198 0-101.774 45.475-101.939 101.634v0.016zM399.821 807.066c-9.388 0-16.998-7.61-16.998-16.998v0-101.939c0-9.388 7.61-16.998 16.998-16.998v0h83.251c0.113-0.003 0.247-0.004 0.381-0.004 8.12 0 14.91 5.693 16.596 13.306l0.021 0.113c1.091 5.484 1.715 11.789 1.715 18.24 0 0.788-0.009 1.573-0.028 2.356l0.002-0.116c0 0.030 0 0.066 0 0.102 0 56.299-45.64 101.939-101.939 101.939v0zM416.819 705.126v65.741c29.616-7.734 51.13-34.215 51.2-65.733v-0.008zM348.877 229.427h-67.942c-9.388 0-16.998-7.61-16.998-16.998v0-101.939c0-9.388 7.61-16.998 16.998-16.998v0h67.942c9.388 0 16.998 7.61 16.998 16.998v0 101.99c0 9.388-7.61 16.998-16.998 16.998v0zM331.878 127.539h-33.997v67.891h33.997zM484.813 280.474h-67.994c-9.388 0-16.998-7.61-16.998-16.998v0-152.934c0-9.388 7.61-16.998 16.998-16.998v0h67.994c9.388 0 16.998 7.61 16.998 16.998v0 152.832c0 9.388-7.61 16.998-16.998 16.998v0zM467.814 127.437h-33.997v118.938h33.997zM620.749 348.314h-67.789c-9.388 0-16.998-7.61-16.998-16.998v0-220.877c0-9.388 7.61-16.998 16.998-16.998v0h67.738c9.388 0 16.998 7.61 16.998 16.998v0 220.928c0 9.388-7.61 16.998-16.998 16.998v0zM603.699 127.488h-33.946v186.88h33.997zM756.634 416.307h-67.942c-9.388 0-16.998-7.61-16.998-16.998v0-288.819c0-9.388 7.61-16.998 16.998-16.998v0h67.942c9.388 0 16.998 7.61 16.998 16.998v0 288.819c0 9.388-7.61 16.998-16.998 16.998v0zM739.635 127.488h-33.997v254.822h33.997zM824.576 671.13c0-9.388-7.61-16.998-16.998-16.998v0h-237.824c-9.388 0-16.998 7.61-16.998 16.998s7.61 16.998 16.998 16.998h237.875c9.388 0 16.998-7.61 16.998-16.998v0zM824.627 603.187c0-9.388-7.61-16.998-16.998-16.998v0h-237.875c-9.388 0-16.998 7.61-16.998 16.998s7.61 16.998 16.998 16.998h237.875c9.388 0 16.998-7.61 16.998-16.998v0zM824.627 535.245c0-9.388-7.61-16.998-16.998-16.998v0h-237.875c-9.388 0-16.998 7.61-16.998 16.998s7.61 16.998 16.998 16.998h237.875c9.388 0 16.998-7.61 16.998-16.998v0z" />
<glyph unicode="&#xe913;" glyph-name="send" d="M1013.896 957.379c-2.856 1.665-6.287 2.648-9.947 2.648-3.77 0-7.296-1.043-10.306-2.855l0.090 0.050-366.506-216.723c-5.918-3.547-9.819-9.927-9.819-17.218 0-3.755 1.035-7.269 2.835-10.272l-0.050 0.091c3.541-5.923 9.919-9.827 17.21-9.827 3.759 0 7.276 1.038 10.279 2.843l-0.090-0.050 262.962 155.496-489.81-508.225-243.606 74.533 317.915 187.98c5.918 3.547 9.819 9.927 9.819 17.218 0 3.755-1.035 7.269-2.835 10.272l0.050-0.091c-3.541 5.923-9.919 9.827-17.21 9.827-3.759 0-7.276-1.038-10.279-2.843l0.090 0.050-356.94-211.077c-5.919-3.536-9.821-9.909-9.821-17.194 0-0.841 0.052-1.67 0.153-2.484l-0.010 0.097c0.971-7.959 6.499-14.411 13.86-16.719l0.142-0.038 290.942-89.005 128.344-233.614c0.127-0.238 0.268-0.444 0.429-0.632l-0.004 0.005c2.168-3.648 5.376-6.481 9.214-8.128l0.128-0.049c2.288-0.989 4.952-1.566 7.75-1.568h0.001c0.001 0 0.003 0 0.004 0 5.44 0 10.372 2.171 13.979 5.694l-0.004-0.004 147.588 144.25 277.613-84.951c1.756-0.552 3.775-0.871 5.868-0.874h0.002c4.478 0.012 8.61 1.481 11.95 3.959l-0.054-0.038c4.916 3.705 8.067 9.525 8.087 16.082v785.998c0 0.016 0 0.034 0 0.053 0 7.37-3.986 13.81-9.919 17.281l-0.095 0.051zM542.524 301.543c-2.229-3.169-3.562-7.109-3.562-11.359 0-0.007 0-0.015 0-0.022v0.001-122.273l-87.639 159.529 387.834 402.418zM578.95 137.377v125.746l97.989-29.975zM983.989 181.040l-393.009 120.235 393.009 567.323zM328.915 264.848c-3.614 3.625-8.613 5.868-14.136 5.868s-10.522-2.243-14.136-5.868v0l-186.703-186.703c-3.626-3.618-5.87-8.621-5.87-14.147s2.244-10.529 5.87-14.147v0c3.609-3.612 8.596-5.847 14.106-5.847 0.011 0 0.021 0 0.032 0h-0.002c0.014 0 0.032 0 0.049 0 5.504 0 10.485 2.235 14.087 5.847v0l186.703 186.703c3.626 3.618 5.87 8.621 5.87 14.147s-2.244 10.529-5.87 14.147v0zM80.246 16.156c-3.623 3.616-8.624 5.851-14.147 5.851s-10.524-2.236-14.148-5.852v0l-45.993-45.993c-3.621-3.62-5.861-8.622-5.861-14.147s2.24-10.527 5.861-14.147v0c3.616-3.613 8.609-5.847 14.124-5.847 0.004 0 0.008 0 0.012 0h-0.001c0.016 0 0.035 0 0.054 0 5.506 0 10.488 2.244 14.080 5.868l46.016 45.994c3.577 3.636 5.786 8.628 5.786 14.136s-2.208 10.5-5.788 14.139l0.003-0.003zM285.275-28.671c-3.628 3.6-8.62 5.829-14.133 5.847h-0.003c-5.516-0.018-10.508-2.248-14.137-5.848l0.001 0.001c-3.605-3.634-5.836-8.634-5.847-14.156v-0.002c0.018-5.516 2.248-10.508 5.848-14.137l-0.001 0.001c3.628-3.6 8.62-5.829 14.133-5.847h0.003c5.516 0.018 10.508 2.248 14.137 5.848l-0.001-0.001c3.608 3.625 5.845 8.617 5.869 14.131v0.005c-0.018 5.527-2.257 10.528-5.87 14.159l0.001-0.001zM434.207 120.127c-3.62 3.621-8.622 5.861-14.147 5.861s-10.527-2.24-14.147-5.861l-98.885-98.885c-3.621-3.62-5.861-8.622-5.861-14.147s2.24-10.527 5.861-14.147v0c3.616-3.613 8.609-5.847 14.124-5.847 0.004 0 0.008 0 0.012 0h-0.001c0.014 0 0.032 0 0.049 0 5.504 0 10.485 2.235 14.087 5.847v0l98.907 98.907c3.614 3.619 5.849 8.617 5.849 14.136s-2.235 10.517-5.85 14.136v0zM775.398 127.721c-3.618 3.626-8.621 5.87-14.147 5.87s-10.529-2.244-14.147-5.87v0l-99.154-99.154c-3.626-3.618-5.87-8.621-5.87-14.147s2.244-10.529 5.87-14.147v0c3.612-3.613 8.603-5.847 14.115-5.847 0.007 0 0.015 0 0.022 0h-0.001c0.005 0 0.010 0 0.016 0 5.521 0 10.52 2.234 14.143 5.847v0l99.154 99.154c3.616 3.623 5.851 8.624 5.851 14.147s-2.236 10.524-5.852 14.148v0zM566.987 687.383c-3.628 3.6-8.62 5.829-14.133 5.847h-0.003c-5.516-0.018-10.508-2.248-14.137-5.848l0.001 0.001c-3.613-3.631-5.852-8.631-5.869-14.155v-0.003c0.030-5.511 2.267-10.493 5.87-14.114l-0.001 0.001c3.625-3.608 8.617-5.845 14.131-5.869h0.005c5.519 0.024 10.511 2.262 14.137 5.87l-0.001-0.001c3.603 3.62 5.839 8.603 5.869 14.108v0.006c-0.018 5.527-2.257 10.528-5.87 14.159l0.001-0.001z" />
<glyph unicode="&#xe914;" glyph-name="zoom" d="M1014.579 82.851l-178.529 178.666c45.311 69.586 72.258 154.738 72.258 246.184 0 251.569-203.937 455.506-455.506 455.506s-455.506-203.937-455.506-455.506c0-251.569 203.937-455.506 455.506-455.506 91.207 0 176.153 26.806 247.39 72.971l-1.777-1.079 178.529-178.734c5.928-5.801 14.050-9.38 23.007-9.38s17.080 3.579 23.013 9.386l91.614 91.682c5.886 5.851 9.529 13.952 9.529 22.905s-3.643 17.054-9.528 22.903l-0.002 0.002zM453.935 181.913c-0.020 0-0.044 0-0.068 0-179.062 0-324.22 145.158-324.22 324.22s145.158 324.22 324.22 324.22c179.062 0 324.22-145.158 324.22-324.22v0c-0.271-178.857-145.112-323.794-323.906-324.22h-0.041z" />
<glyph unicode="&#xe915;" glyph-name="applications" d="M512 960l-512-227.556 512-227.556 512 227.556zM512 349.184l-315.961 140.459-196.039-56.889 512-227.556 512 227.556-179.94 60.416zM512 79.986l-315.961 140.459-196.039-56.889 512-227.556 512 227.556-179.94 60.473z" />
<glyph unicode="&#xe916;" glyph-name="audit" horiz-adv-x="1067" d="M62.88-64h647.087c34.728 0 62.88 28.152 62.88 62.88v0 155.261l12.157-12.157-3.93-3.982c-3.879-3.855-6.279-9.193-6.279-15.091s2.401-11.237 6.278-15.090l148.083-148.083c14.464-13.889 34.143-22.442 55.82-22.442 44.538 0 80.644 36.105 80.644 80.644 0 21.677-8.553 41.356-22.468 55.848l0.026-0.027-148.135 148.082c-3.855 3.879-9.193 6.279-15.091 6.279s-11.237-2.401-15.090-6.278l-4.036-4.036-24.314 24.314c26.176 39.771 41.756 88.538 41.756 140.944 0 71.258-28.804 135.788-75.405 182.582l0.009-0.009c-9.124 8.993-18.94 17.346-29.339 24.951l-0.739 0.515v163.645c-0.476 5.81-2.753 11.012-6.266 15.128l0.031-0.037-183.924 184.081c-4.231 3.204-9.408 5.379-15.045 6.063l-0.151 0.015h-504.559c-34.728 0-62.88-28.152-62.88-62.88v0-898.397c0.089-34.66 28.207-62.723 62.88-62.723 0 0 0 0 0 0v0zM1012.891 43.629c7.512-6.961 12.199-16.88 12.199-27.893 0-20.981-17.009-37.99-37.99-37.99-11.026 0-20.956 4.698-27.896 12.201l-0.023 0.025-133.044 133.044 53.71 53.658zM810.051 208.165l20.384-20.436-15.72-15.458-20.279 20.331c2.41 2.201 4.926 4.664 7.546 7.231v0l0.314 0.367c2.882 2.672 5.397 5.24 7.755 7.912zM612.556 167.87c-0.506-0.004-1.104-0.007-1.703-0.007-118.656 0-214.847 96.19-214.847 214.847 0 118.058 95.222 213.875 213.052 214.839l0.092 0.001c3.61 0.221 7.831 0.347 12.080 0.347 40.266 0 77.893-11.298 109.884-30.896l-0.92 0.524c3.092-1.834 6.34-3.092 9.327-5.24h0.314c57.718-39.3 95.126-104.702 95.126-178.841 0-119.116-96.562-215.678-215.678-215.678-2.366 0-4.722 0.038-7.069 0.114l0.342-0.009zM588.923 887.059l110.826-110.826h-90.809c-11.061 0.030-20.017 9.004-20.017 20.069 0 0.018 0 0.037 0 0.055v-0.003zM42.654 897.12c-0.003 0.126-0.005 0.275-0.005 0.424 0 10.939 8.868 19.807 19.807 19.807 0.149 0 0.298-0.002 0.446-0.005h483.525v-121.044c0-34.728 28.152-62.88 62.88-62.88v0h121.096v-116.695c-0.576 0.314-1.258 0.419-1.834 0.734-32.177 14.971-69.849 23.705-109.562 23.705-1.163 0-2.324-0.007-3.484-0.022l0.176 0.002h-1.048c-13.78-0.28-27.038-1.584-39.969-3.841l1.56 0.225c-15.893-2.646-29.875-6.288-43.339-11.028l1.786 0.548h-382.729c-11.778 0-21.327-9.548-21.327-21.327s9.548-21.327 21.327-21.327h305.597c-27.631-22.293-50.193-49.659-66.507-80.811l-0.67-1.404h-238.42c-11.778 0-21.327-9.548-21.327-21.327s9.548-21.327 21.327-21.327h220.866c-7.149-22.6-11.268-48.59-11.268-75.543 0-0.393 0.001-0.786 0.003-1.178v0.061c0-1.782 0-3.563 0-5.24h-209.6c-11.778 0-21.327-9.548-21.327-21.327s9.548-21.327 21.327-21.327h214.001v-1.624c3.545-18.001 8.361-33.798 14.564-48.877l-0.625 1.717 0.367-1.048c5.312-12.703 10.734-23.327 16.84-33.495l-0.648 1.165h-244.498c-11.778 0-21.327-9.548-21.327-21.327s9.548-21.327 21.327-21.327h275.991c47.468-52.463 115.805-85.284 191.807-85.284 36.726 0 71.663 7.664 103.297 21.48l-1.664-0.648c2.882 1.258 5.869 1.939 8.594 3.301v-150.283c-0.146-11.025-9.044-19.924-20.055-20.069h-647.049c-11.084 0-20.069 8.985-20.069 20.069v0z" />
<glyph unicode="&#xe917;" glyph-name="cache" d="M1024 320l-192 128v-67.2c-9.389 1.698-20.419 2.848-31.652 3.192l-0.348 0.008c-0.287 0.001-0.627 0.002-0.966 0.002-123.712 0-224-100.288-224-224s100.288-224 224-224c112.421 0 205.5 82.818 221.553 190.773l0.15 1.225h-97.28c-14.719-55.646-64.615-95.999-123.935-95.999-70.692 0-128 57.308-128 128s57.308 128 128 128c0.168 0 0.337 0 0.505-0.001h-0.026c11.444-0.145 22.442-1.794 32.887-4.759l-0.887 0.215v-91.456zM208 848c-26.51 0-48-21.49-48-48s21.49-48 48-48c26.51 0 48 21.49 48 48v0c0 26.51-21.49 48-48 48v0zM336 848c-26.51 0-48-21.49-48-48s21.49-48 48-48c26.51 0 48 21.49 48 48v0c0 26.51-21.49 48-48 48v0zM464 848c-26.51 0-48-21.49-48-48s21.49-48 48-48c26.51 0 48 21.49 48 48v0c0 26.51-21.49 48-48 48v0zM896 960h-768c-70.692 0-128-57.308-128-128v0-768c0-70.692 57.308-128 128-128v0h320v64h-320c-35.346 0-64 28.654-64 64v0 576h896v-128h64v320c0 70.692-57.308 128-128 128v0zM960 704h-896v128c0 35.346 28.654 64 64 64v0h768c35.346 0 64-28.654 64-64v0z" />
<glyph unicode="&#xe918;" glyph-name="clean-filter" horiz-adv-x="845" d="M0 809.72v-67.244l67.115-67.244 269.171-267.423 21.163-22.846v-449.027l145.879 134.423v314.604l21.163 22.846 11.132 10.096-391.75 391.815zM609.339 590.643l85.301 84.783 67.115 67.244v67.244h-371.881l-150.28 150.28-31.648-31.713 604.873-604.873 31.713 31.713z" />
<glyph unicode="&#xe919;" glyph-name="connection" d="M597.194 38.587h-17.049v324.219c0 28.274-22.921 51.195-51.195 51.195v0h-443.461c-0.044 0-0.096 0-0.148 0-28.301 0-51.244-22.943-51.244-51.244 0-0.052 0-0.104 0-0.156v0.008-324.022h-17.049c0 0-0.001 0-0.001 0-9.416 0-17.049-7.633-17.049-17.049 0-0.069 0-0.139 0.001-0.208v0.011-34.146c0-28.274 22.921-51.195 51.195-51.195h511.901c28.274 0 51.195 22.921 51.195 51.195v0 34.146c0 0 0 0 0 0 0 9.416-7.633 17.049-17.049 17.049-0.017 0-0.035 0-0.052 0h0.003zM68.244 362.609c0 9.416 7.633 17.049 17.049 17.049v0h443.461c9.416 0 17.049-7.633 17.049-17.049v0-324.022h-477.952zM580.145-12.805c0-9.416-7.633-17.049-17.049-17.049v0h-511.901c-0.015 0-0.032 0-0.049 0-9.416 0-17.049 7.633-17.049 17.049 0 0 0 0 0 0v0 16.901h546.048zM511.901 362.609h-409.511c-9.422-0.028-17.049-7.672-17.049-17.098 0 0 0 0 0 0v0-273.024c0-9.416 7.633-17.049 17.049-17.049v0h409.511c9.416 0 17.049 7.633 17.049 17.049v273.024c0 0 0 0 0 0 0 9.426-7.627 17.070-17.046 17.098h-0.003zM494.853 89.585h-375.414v238.877h375.414zM614.292 191.975h34.146v-34.146h-34.146v34.146zM682.535 191.975h34.146v-34.146h-34.146v34.146zM750.779 191.975h34.146v-34.146h-34.146v34.146zM750.779 260.219h34.146v-34.146h-34.146v34.146zM750.779 328.463h34.146v-34.146h-34.146v34.146zM750.779 396.706h34.146v-34.146h-34.146v34.146zM750.779 464.95h34.146v-34.146h-34.146v34.146zM750.779 533.194h34.146v-34.146h-34.146v34.146zM890.223 840.364c-0.734 0.014-1.6 0.022-2.467 0.022-14.504 0-28.488-2.224-41.63-6.349l0.984 0.266c-20.428 73.001-86.364 125.651-164.598 125.651s-144.17-52.65-164.31-124.45l-0.288-1.201c-12.058 3.867-25.929 6.096-40.32 6.096-75.325 0-136.389-61.063-136.389-136.389 0-1.468 0.023-2.93 0.069-4.387l-0.005 0.213c4.108-74.031 65.141-132.508 139.833-132.508 0.626 0 1.25 0.004 1.874 0.012l-0.095-0.001h404.584c75.31 0.056 136.34 61.12 136.34 136.438v0 0.641c-0.817 73.926-59.86 133.796-133.381 135.941l-0.199 0.005zM959.846 631.593c-18.463-18.625-44.055-30.156-72.341-30.156-0.084 0-0.168 0-0.252 0h-404.374c-0.557-0.011-1.213-0.017-1.871-0.017-56.188 0-102.15 43.785-105.628 99.096l-0.015 0.305c-0.028 0.899-0.044 1.956-0.044 3.017 0 56.549 45.842 102.39 102.39 102.39 16.451 0 31.996-3.88 45.77-10.775l-0.591 0.268c2.213-1.125 4.825-1.783 7.591-1.783 6.654 0 12.418 3.813 15.227 9.372l0.045 0.098c0.753 1.516 1.306 3.277 1.566 5.131l0.011 0.092c9.811 66.619 66.58 117.176 135.157 117.176s125.346-50.557 135.067-116.432l0.090-0.744c1.083-8.467 8.244-14.944 16.918-14.944 0.828 0 1.642 0.059 2.439 0.173l-0.091-0.011c1.844 0.293 3.501 0.862 5.013 1.668l-0.085-0.042c13.104 6.637 28.568 10.525 44.941 10.525 0.865 0 1.728-0.011 2.587-0.032l-0.127 0.003c55.039-2.103 99.033-46.544 100.417-101.569l0.003-0.131c0.002-0.22 0.003-0.48 0.003-0.74 0-28.097-11.394-53.532-29.813-71.938v0z" />
<glyph unicode="&#xe91a;" glyph-name="datasource" horiz-adv-x="960" d="M576 68.544c94.397 5.238 181.763 30.678 259.362 72.035l-3.362-1.635c40.32 24.64 64 53.76 64 84.992v576c0 31.232-23.68 60.352-64 84.992-93.885 47.729-204.728 75.69-322.102 75.69-10.515 0-20.978-0.224-31.384-0.669l1.485 0.050c-8.956 0.397-19.46 0.623-30.017 0.623-117.327 0-228.128-27.939-326.114-77.527l4.131 1.896c-40.32-24.64-64-53.76-64-84.992v-576c0-31.232 23.68-60.352 64-84.992 74.236-39.721 161.602-65.162 254.38-70.328l1.62-0.072v-68.608h-192v-64h576v64h-192zM480 896c219.2 0 347.776-68.224 352-96-4.224-27.776-132.8-96-352-96s-347.776 68.224-352 96c4.224 27.776 132.8 96 352 96zM128 715.008c93.854-47.692 204.656-75.631 321.983-75.631 10.557 0 21.061 0.226 31.508 0.674l-1.49-0.051c8.956-0.397 19.46-0.623 30.017-0.623 117.327 0 228.128 27.939 326.114 77.527l-4.131-1.896v-107.008c-4.224-27.776-132.8-96-352-96s-347.776 68.224-352 96zM128 523.008c93.854-47.692 204.656-75.631 321.983-75.631 10.557 0 21.061 0.226 31.508 0.674l-1.49-0.051c8.956-0.397 19.46-0.623 30.017-0.623 117.327 0 228.128 27.939 326.114 77.527l-4.131-1.896v-107.008c-4.224-27.904-132.8-96-352-96s-347.776 68.224-352 96zM128 224v107.008c93.854-47.692 204.656-75.631 321.983-75.631 10.557 0 21.061 0.226 31.508 0.674l-1.49-0.051c8.956-0.397 19.46-0.623 30.017-0.623 117.327 0 228.128 27.939 326.114 77.527l-4.131-1.896v-107.008c-4.224-27.904-132.8-96-352-96s-347.776 68.224-352 96zM832 0h128v-64h-128v64zM0 0h128v-64h-128v64z" />
<glyph unicode="&#xe91b;" glyph-name="delete" horiz-adv-x="960" d="M928 768h-224v64c0 128-64 128-128 128h-192c-128 0-128-64-128-128v-64h-224c-17.673 0-32-14.327-32-32v0-64c0-17.673 14.327-32 32-32v0h896c17.673 0 32 14.327 32 32v0 64c0 17.673-14.327 32-32 32v0zM576 768h-192v64h192zM704 570.496v-474.496c0-17.673-14.327-32-32-32s-32 14.327-32 32v0 474.496l1.152 5.504h-130.304l1.152-5.504v-474.496c0-17.673-14.327-32-32-32s-32 14.327-32 32v0 474.496l1.152 5.504h-130.304l1.152-5.504v-474.496c0-17.673-14.327-32-32-32s-32 14.327-32 32v0 474.496l1.152 5.504h-129.152v-608c0-17.673 14.327-32 32-32v0h640c17.673 0 32 14.327 32 32v0 608h-129.152z" />
<glyph unicode="&#xe91c;" glyph-name="email" horiz-adv-x="1489" d="M805.516 265.542l590.848 590.941v-729.647l-274.525 274.618-65.815-65.815 306.455-306.548h-1235.503l306.548 306.548-65.908 65.815-274.525-274.618v719.5l580.794-580.794 65.164-65.815zM204.055 866.909h1071.29l-535.831-535.459zM0-64h1489.455v1024h-1489.455z" />
<glyph unicode="&#xe91d;" glyph-name="export" d="M256.040 448l-255.96-256.040h128.020v-256.040h256.040v255.96h128.020zM704.191 960h-576.171v-447.99h64.251v383.98h447.99v-319.97h320.050v-576.010h-447.99v-64.251h512v704.191zM704.191 640.030v229.456l229.697-229.617z" />
<glyph unicode="&#xe91e;" d="M122.88 960h778.24c67.865 0 122.88-55.015 122.88-122.88v0-778.24c0-67.865-55.015-122.88-122.88-122.88v0h-778.24c-67.865 0-122.88 55.015-122.88 122.88v0 778.24c0 67.865 55.015 122.88 122.88 122.88v0z" />
<glyph unicode="&#xe91f;" d="M573.44 224.481h245.76v-40.96h-245.76v40.96z" />
<glyph unicode="&#xe920;" d="M573.44 306.401h245.76v-40.96h-245.76v40.96z" />
<glyph unicode="&#xe921;" d="M573.44 388.321h245.76v-40.96h-245.76v40.96z" />
<glyph unicode="&#xe922;" d="M733.716 561.336c-0.152 50.365-33.203 92.97-78.784 107.464l-0.801 0.22 4.096 5.652v37.765h-453.427v-37.765l188.908-264.479v-226.673h75.571v226.673l60.129 84.173c20.792-28.27 53.928-46.411 91.3-46.411 62.413 0 113.009 50.596 113.009 113.009 0 0.117 0 0.233-0.001 0.349v-0.018zM553.124 527.585l77.332 108.257c37.175-5.034 65.528-36.567 65.528-74.721 0-41.624-33.743-75.366-75.366-75.366-29.404 0-54.875 16.839-67.296 41.4l-0.198 0.431z" />
<glyph unicode="&#xe923;" glyph-name="finger" horiz-adv-x="725" d="M575.97 874.895c-3.209 0.027-6.245 0.738-8.978 1.995l0.136-0.056c-57.631 25.717-124.887 40.694-195.64 40.694-3.111 0-6.215-0.029-9.312-0.087l0.465 0.007c-2.791 0.058-6.082 0.090-9.38 0.090-70.545 0-137.586-15-198.109-41.984l3.095 1.233c-3.003-1.715-6.599-2.726-10.432-2.726-11.777 0-21.323 9.547-21.323 21.323 0 9.105 5.706 16.876 13.737 19.934l0.146 0.049c62.693 28.254 135.91 44.714 212.971 44.714 3.268 0 6.529-0.030 9.783-0.089l-0.489 0.007c2.553 0.044 5.564 0.069 8.581 0.069 77.283 0 150.727-16.437 217.027-46.005l-3.39 1.351c7.459-3.43 12.544-10.837 12.544-19.432 0-11.777-9.547-21.323-21.323-21.323-0.022 0-0.044 0-0.066 0h0.003zM64.018 704.024c-11.758 0.059-21.267 9.604-21.267 21.371 0 5.84 2.343 11.133 6.14 14.991l-0.003-0.003c79.138 82.847 190.478 134.352 313.848 134.352s234.71-51.505 313.69-134.186l0.157-0.166c3.379-3.764 5.445-8.766 5.445-14.251 0-11.803-9.568-21.371-21.371-21.371-5.614 0-10.723 2.165-14.536 5.705l0.013-0.012c-71.401 74.989-171.989 121.626-283.47 121.626s-212.068-46.637-283.318-121.465l-0.152-0.161c-3.868-3.913-9.235-6.336-15.168-6.336-0.003 0-0.007 0-0.010 0h0.001zM703.911 405.353c-11.777 0-21.323 9.547-21.323 21.323v0c-0.299 176.79-143.683 319.99-320.514 319.99-27.982 0-55.126-3.586-80.998-10.323l2.229 0.493c-1.832-0.569-3.938-0.897-6.121-0.897-11.777 0-21.323 9.547-21.323 21.323 0 10.193 7.152 18.716 16.712 20.824l0.141 0.026c26.906 7.144 57.796 11.247 89.644 11.247 200.343 0 362.766-162.355 362.877-362.672v-0.011c0-11.777-9.547-21.323-21.323-21.323v0zM21.323 405.353h-0.331c-11.635 0.185-20.995 9.66-20.995 21.321 0 0.117 0.001 0.234 0.003 0.351v-0.018c0.817 99.367 40.887 189.22 105.442 254.944l-0.054-0.055c21.874 22.194 46.523 41.561 73.408 57.563l1.673 0.922c2.941 1.623 6.446 2.577 10.175 2.577 11.803 0 21.371-9.568 21.371-21.371 0-7.581-3.947-14.24-9.899-18.034l-0.086-0.051c-25.172-14.955-46.901-32.050-66.154-51.591l-0.039-0.039c-57.069-58.109-92.532-137.605-93.283-225.382l-0.001-0.145c-0.186-11.633-9.661-20.993-21.321-20.993-0.001 0-0.002 0-0.003 0v0zM52.008 213.347c-11.774 0.004-21.317 9.549-21.317 21.323 0 3.839 1.015 7.442 2.791 10.554l-0.055-0.105 11.962 21.323c23.302 44.724 37.762 97.385 39.698 153.229l0.017 0.621c-0.012 0.982-0.019 2.142-0.019 3.304 0 77.213 30.9 147.21 81.008 198.298l-0.044-0.045c49.801 50.732 119.101 82.175 195.745 82.175 0.281 0 0.562 0 0.843-0.001h-0.043c83.273-0.044 157.954-36.793 208.748-94.944l0.279-0.326c3.263-3.727 5.254-8.64 5.254-14.019 0-11.78-9.549-21.329-21.329-21.329-6.402 0-12.145 2.82-16.054 7.286l-0.021 0.025c-43.224 49.472-106.414 80.564-176.867 80.613h-0.009c-0.234 0.001-0.511 0.001-0.787 0.001-64.767 0-123.327-26.577-165.368-69.42l-0.035-0.036c-42.346-43.289-68.475-102.593-68.475-167.999 0-0.86 0.005-1.719 0.014-2.577l-0.001 0.131c-1.693-64.153-18.039-124.117-45.791-177.171l1.064 2.233-12.624-22.458c-3.715-6.537-10.631-10.875-18.56-10.875-0.007 0-0.015 0-0.022 0h0.001zM659.089 153.206c0 0 0 0 0 0-9.559 0-17.651 6.275-20.383 14.931l-0.041 0.151-24.397 80.377c-10.679 49.837-16.807 107.101-16.832 165.793v0.019l-0.236 11.631c0.001 0.198 0.001 0.431 0.001 0.665 0 27.946-4.903 54.748-13.896 79.59l0.515-1.628c-0.943 2.321-1.491 5.013-1.491 7.833 0 11.777 9.547 21.323 21.323 21.323 9.509 0 17.564-6.224 20.314-14.821l0.042-0.151c10.035-27.425 15.839-59.089 15.839-92.109 0-0.081 0-0.162 0-0.243v0.013l0.236-11.347c0.001-55.214 5.613-109.118 16.296-161.172l-0.882 5.146 24.018-78.769c0.588-1.861 0.927-4.001 0.927-6.22 0-9.56-6.292-17.651-14.96-20.358l-0.151-0.041c-1.869-0.57-4.016-0.898-6.241-0.898 0 0 0 0 0 0v0zM596.916 54.532c-9.528 0.015-17.593 6.263-20.336 14.884l-0.042 0.151-19.716 63.309c-26.758 87.371-43.040 187.992-44.902 292.133l-0.014 1.006c0.003 0.345 0.005 0.753 0.005 1.162 0 82.463-66.849 149.312-149.312 149.312s-149.312-66.849-149.312-149.312c0-1.256 0.016-2.509 0.046-3.758l-0.004 0.185c-3.961-111.571-41.538-213.645-102.84-297.233l1.045 1.494c-3.876-5.774-10.381-9.524-17.761-9.524-11.777 0-21.323 9.547-21.323 21.323 0 4.697 1.519 9.039 4.092 12.563l-0.042-0.060c55.093 75.316 89.725 168.701 94.1 269.931l0.036 1.033c-0.030 1.26-0.047 2.744-0.047 4.232 0 106.042 85.964 192.006 192.006 192.006s192.006-85.964 192.006-192.006c0-0.175 0-0.349-0.001-0.524v0.027c2.084-100.87 17.625-197.292 44.895-288.656l-1.965 7.668 19.763-63.45c0.613-1.895 0.966-4.075 0.966-6.338 0-9.566-6.313-17.657-14.999-20.335l-0.151-0.040c-1.842-0.63-3.965-0.994-6.172-0.994-0.057 0-0.115 0-0.172 0.001h0.009zM277.631-64c-11.767 0.012-21.302 9.554-21.302 21.323 0 4.916 1.664 9.444 4.459 13.051l-0.036-0.049c99.382 124.241 161.098 282.423 165.79 454.839l0.022 1.039c0 0.070 0 0.153 0 0.236 0 35.356-28.662 64.018-64.018 64.018-35.273 0-63.883-28.527-64.018-63.769v-0.013c-4.32-143.957-56.135-275.030-140.219-378.912l0.931 1.188c-3.937-5.099-10.052-8.351-16.926-8.351-11.78 0-21.329 9.55-21.329 21.329 0 4.906 1.656 9.424 4.44 13.028l-0.037-0.049c77.65 95.265 126.174 216.984 130.517 349.877l0.024 0.944c0 0.119-0.001 0.261-0.001 0.402 0 58.91 47.756 106.665 106.665 106.665 58.768 0 106.436-47.527 106.665-106.242v-0.022c-4.818-183.443-69.951-350.793-176.191-483.886l1.254 1.626c-3.879-5.133-9.972-8.416-16.832-8.416-0.033 0-0.066 0-0.1 0h0.005zM355.596 320.106c-1.212 0.011-2.392 0.097-3.55 0.252l0.146-0.016c-10.239 1.708-17.947 10.501-17.947 21.095 0 1.182 0.096 2.342 0.281 3.473l-0.017-0.123c4.307 23.521 6.769 50.589 6.769 78.232 0 0.954-0.003 1.907-0.009 2.859l0.001-0.147c-0.013 0.274-0.020 0.595-0.020 0.918 0 11.451 9.026 20.794 20.352 21.302l0.046 0.002c0.181 0.005 0.394 0.009 0.607 0.009 11.497 0 20.901-8.959 21.611-20.277l0.003-0.062c0.028-1.926 0.044-4.201 0.044-6.479 0-29.371-2.63-58.127-7.669-86.046l0.438 2.929c-1.738-10.214-10.512-17.897-21.085-17.919h-0.002zM200.327-23.433c-0.015 0-0.032 0-0.049 0-11.777 0-21.323 9.547-21.323 21.323 0 5.064 1.765 9.716 4.715 13.374l-0.032-0.041c57.466 70.818 102.575 154.338 130.449 245.388l1.369 5.198c2.816 8.795 10.92 15.051 20.485 15.051 2.153 0 4.231-0.317 6.192-0.906l-0.152 0.039c8.803-2.739 15.084-10.814 15.084-20.355 0-2.183-0.329-4.29-0.94-6.273l0.040 0.151c-30.97-101.693-78.66-189.933-140.519-266.217l1.136 1.447c-3.941-4.889-9.929-7.99-16.641-7.99-0.001 0-0.001 0-0.002 0v0zM378.575-64c-0.006 0-0.013 0-0.020 0-11.777 0-21.323 9.547-21.323 21.323 0 4.246 1.241 8.203 3.381 11.526l-0.051-0.084c34.433 55.426 68.71 120.628 98.461 188.27l4.043 10.308c2.998 7.693 10.348 13.044 18.948 13.044 0.67 0 1.333-0.032 1.986-0.096l-0.083 0.007c9.124-0.551 16.663-6.748 19.204-15.12l0.039-0.151s9.456-32.529 19.858-63.119l25.673-81.748c0.62-1.908 0.977-4.104 0.977-6.383 0-11.781-9.55-21.332-21.332-21.332-9.502 0-17.553 6.213-20.312 14.798l-0.042 0.151-25.721 81.37c-1.135 3.357-2.222 6.808-3.404 10.213-28.203-60.726-55.65-110.928-85.863-159.222l3.547 6.081c-3.839-5.951-10.435-9.834-17.938-9.834-0.010 0-0.020 0-0.030 0h0.002z" />
<glyph unicode="&#xe924;" glyph-name="folder" d="M928 832h-416l-128 128h-288c-53.019 0-96-42.981-96-96v0-640c0-53.019 42.981-96 96-96v0h352v-128h-256v-64h640v64h-256v128h352c53.019 0 96 42.981 96 96v0 512c0 53.019-42.981 96-96 96v0zM960 224c0-17.673-14.327-32-32-32v0h-832c-17.673 0-32 14.327-32 32v0 640c0 17.673 14.327 32 32 32v0h261.504l128-128h442.496c17.673 0 32-14.327 32-32v0zM896 0h128v-64h-128v64zM0 0h128v-64h-128v64z" />
<glyph unicode="&#xe925;" glyph-name="group" horiz-adv-x="1902" d="M1267.858 235.154c-68.535 34.304-191.342 63.781-191.342 127.561s127.561 106.277 127.561 382.61c0 127.488-127.561 191.269-255.049 191.269s-255.122-63.781-255.122-191.342c0-276.334 127.561-318.83 127.561-382.61s-122.734-93.184-191.269-127.488c-127.561-63.781-161.573-81.189-191.342-127.561v-191.342h1020.343v191.342c-29.769 46.446-63.781 63.781-191.342 127.561zM1395.419-19.895h-892.782v106.715c44.605 37.118 96.206 67.912 152.207 89.962l3.807 1.321c14.629 7.314 32.695 14.629 52.151 22.528 77.678 31.525 174.226 70.363 174.226 162.011-3.214 39.415-19.307 74.559-44.011 101.736l0.126-0.14c-52.816 68.369-84.657 155.286-84.657 249.641 0 11.042 0.436 21.982 1.292 32.804l-0.091-1.43c0 100.937 125.147 127.561 191.342 127.561s191.269-26.624 191.269-127.561c0.746-9.281 1.172-20.092 1.172-31.002 0-94.504-31.914-181.555-85.553-250.962l0.706 0.95c-24.597-27.026-40.695-62.176-43.846-100.987l-0.040-0.609c0-91.282 96.768-130.56 174.446-162.085 19.456-7.826 37.815-15.287 52.151-22.528 59.808-23.37 111.409-54.164 156.927-92.021l-0.913 0.738zM1751.259 159.451c-48.055 24.064-134.071 44.69-134.071 89.307s89.381 74.606 89.381 268.215c0 89.381-89.381 134.071-178.761 134.071s-178.761-44.69-178.761-134.071c0-193.609 89.381-223.451 89.381-268.142s-86.016-65.317-134.071-89.381c-89.381-44.69-113.225-56.978-134.071-89.381v-134.071h715.045v134.071c-20.919 32.402-44.69 44.69-134.071 89.381zM1840.64-19.31h-625.664v74.825c31.364 26.027 67.656 47.6 107.040 63.006l2.674 0.921c10.021 5.047 22.894 10.313 36.571 15.799 54.418 21.943 122.222 49.591 122.222 113.591-2.229 27.599-13.469 52.217-30.737 71.269l0.090-0.101c-37.031 47.919-59.356 108.843-59.356 174.981 0 7.74 0.306 15.409 0.906 22.995l-0.064-1.002c0 70.729 87.771 89.381 134.071 89.381s133.486-18.651 133.486-89.381c0.531-6.557 0.834-14.195 0.834-21.904 0-66.166-22.322-127.119-59.845-175.739l0.496 0.669c-17.259-18.947-28.555-43.596-30.765-70.814l-0.028-0.427c0-64 67.803-91.502 122.222-113.591 13.605-5.486 26.478-10.752 36.571-15.799 42.058-16.327 78.35-37.899 110.365-64.451l-0.65 0.524zM580.974 159.451c-48.055 24.064-134.071 44.69-134.071 89.307s89.381 74.606 89.381 268.215c0 89.381-89.381 134.071-178.761 134.071s-178.761-44.69-178.761-134.071c0-193.609 89.381-223.451 89.381-268.142s-86.016-65.317-134.071-89.381c-89.381-44.69-113.225-56.978-134.071-89.381v-134.071h715.045v134.071c-20.919 32.402-44.69 44.69-134.071 89.381zM670.354-19.31h-625.664v74.825c31.364 26.027 67.656 47.6 107.040 63.006l2.674 0.921c10.021 5.047 22.894 10.313 36.571 15.799 54.418 21.943 122.222 49.591 122.222 113.591-2.229 27.599-13.469 52.217-30.737 71.269l0.090-0.101c-37.031 47.919-59.356 108.843-59.356 174.981 0 7.74 0.306 15.409 0.906 22.995l-0.064-1.002c0 70.729 87.771 89.381 134.071 89.381s133.486-18.651 133.486-89.381c0.531-6.557 0.834-14.195 0.834-21.904 0-66.166-22.322-127.119-59.845-175.739l0.496 0.669c-17.259-18.947-28.555-43.596-30.765-70.814l-0.028-0.427c0-64 67.803-91.502 122.222-113.591 13.605-5.486 26.478-10.752 36.571-15.799 42.058-16.327 78.35-37.899 110.365-64.451l-0.65 0.524z" />
<glyph unicode="&#xe926;" glyph-name="info" d="M534.131 642.783c35.77 0.189 64.694 29.23 64.694 65.027 0 35.914-29.114 65.027-65.027 65.027-35.796 0-64.837-28.924-65.027-64.676v-0.018c-0.001-0.099-0.001-0.216-0.001-0.334 0-35.914 29.114-65.027 65.027-65.027 0.117 0 0.235 0 0.352 0.001h-0.018zM635.033 275.581h-50.451v305.037c0 8.719-1.531 11.049-11.049 11.049h-140.238c-9.518 0-11.049-2.33-11.049-11.049v-51.25c0-8.719 1.531-11.115 11.049-11.115h51.183v-242.672h-50.451c-9.451 0-11.049-2.33-11.049-11.049v-51.25c0-8.653 1.597-11.049 11.049-11.049h201.006c9.518 0 11.049 2.396 11.049 11.049v51.25c0 8.719-1.531 11.049-11.049 11.049zM512.033 960c-282.788 0-512.033-229.245-512.033-512.033s229.245-512.033 512.033-512.033c282.788 0 512.033 229.245 512.033 512.033 0 0.023 0 0.047 0 0.070v-0.003c-0.038 282.759-229.268 511.967-512.033 511.967v0zM512.033 10.878c-241.434 0-437.155 195.721-437.155 437.155s195.721 437.155 437.155 437.155c241.434 0 437.155-195.721 437.155-437.155 0-0.047 0-0.093 0-0.14v0.007c-0.341-241.27-195.875-436.757-437.13-437.022h-0.025z" />
<glyph unicode="&#xe927;" glyph-name="ldap" horiz-adv-x="1018" d="M709.549 95.897l-120.018 119.954-79.885-79.948 199.903-199.903 308.090 308.027-79.948 79.948zM508.82 451.943c0-50.373 41.024-87.644 111.432-127.968h138.272c-87.708 42.55-186.101 91.015-186.101 127.968 0 59.468 127.205 60.041 127.205 317.249 0 118.873-135.346 190.807-254.41 190.807s-254.41-71.68-254.41-190.807c0-257.208 127.205-257.781 127.205-317.249 0-63.602-290.218-160.787-318.012-204.1v-178.278h445.217v63.602h-381.615v84.719c21.879 12.72 60.74 31.801 91.142 46.493 140.689 68.309 226.87 113.912 226.87 187.564-2.445 38.971-21.721 72.996-50.575 95.177l-0.307 0.227c-31.801 31.674-76.323 74.924-76.323 221.845 0 75.115 100.556 127.205 190.807 127.205s190.807-52.154 190.807-127.205c0-146.922-44.522-190.171-76.323-221.845-29.161-22.408-48.437-56.433-50.863-95.029l-0.019-0.374z" />
<glyph unicode="&#xe929;" glyph-name="user" d="M832 256c-68.8 34.432-192 64-192 128s128 106.688 128 384c0 128-128 192-256 192s-256-64-256-192c0-277.312 128-320 128-384s-123.2-93.568-192-128c-128-64-162.112-81.408-192-128v-192h1024v192c-29.888 46.592-64 64-192 128zM960 0h-896v107.136c44.779 37.127 96.579 67.92 152.78 89.943l3.828 1.321c14.4 7.232 32.832 14.72 52.352 22.592 77.952 32 175.040 71.36 175.040 163.008-3.188 39.538-19.292 74.805-44.033 102.097l0.129-0.145c-53.196 68.685-85.273 156.062-85.273 250.931 0 10.951 0.427 21.802 1.267 32.538l-0.089-1.421c0 101.248 125.568 128 192 128s192-26.752 192-128c0.746-9.297 1.171-20.127 1.171-31.056 0-94.878-32.049-182.272-85.911-251.944l0.708 0.952c-24.656-27.129-40.786-62.402-43.929-101.344l-0.039-0.608c0-91.648 97.088-131.008 175.040-162.688 19.52-7.872 37.952-15.36 52.352-22.592 60.036-23.442 111.834-54.339 157.527-92.326l-0.919 0.742z" />
</font>
</defs>
</svg>
