<?xml version="1.0" standalone="no"?>
<!DOCTYPE svg PUBLIC "-//W3C//DTD SVG 1.1//EN" "http://www.w3.org/Graphics/SVG/1.1/DTD/svg11.dtd" >
<svg xmlns="http://www.w3.org/2000/svg">
<metadata>Generated by IcoMoon</metadata>
<defs>
<font id="icomoon" horiz-adv-x="1024">
<font-face units-per-em="1024" ascent="960" descent="-64" />
<missing-glyph horiz-adv-x="1024" />
<glyph unicode="&#x20;" horiz-adv-x="512" d="" />
<glyph unicode="&#xe900;" glyph-name="empty-section" horiz-adv-x="728" d="M364.089 515.129c120.604 0 217.316 97.849 217.316 217.316 0 120.604-97.849 218.453-217.316 218.453-120.604 0-217.316-97.849-217.316-217.316-1.138-120.604 96.711-218.453 217.316-218.453zM364.089 509.44c-60.302 0-116.053 23.893-159.289 65.991-42.098 42.098-64.853 98.987-63.716 158.151 0 122.88 100.124 223.004 223.004 223.004s223.004-100.124 223.004-224.142c0-122.88-100.124-223.004-223.004-223.004zM364.089 945.209c-117.191 0-211.627-94.436-211.627-211.627 0-56.889 21.618-110.364 61.44-150.187 39.822-40.96 93.298-62.578 150.187-62.578 117.191 0 211.627 94.436 211.627 211.627s-94.436 212.764-211.627 212.764zM394.809 736.996v-89.884c0-17.067-13.653-30.72-30.72-30.72s-30.72 13.653-30.72 30.72v89.884c0 17.067 13.653 30.72 30.72 30.72s30.72-13.653 30.72-30.72zM364.089 610.702c-20.48 0-36.409 15.929-36.409 36.409v89.884c0 20.48 15.929 36.409 36.409 36.409s36.409-15.929 36.409-36.409v-89.884c0-20.48-15.929-36.409-36.409-36.409zM364.089 762.027c-13.653 0-25.031-11.378-25.031-25.031v-89.884c0-13.653 11.378-25.031 25.031-25.031s25.031 11.378 25.031 25.031v89.884c0 13.653-11.378 25.031-25.031 25.031zM395.947 823.467c0-17.595-14.263-31.858-31.858-31.858s-31.858 14.263-31.858 31.858c0 17.595 14.263 31.858 31.858 31.858s31.858-14.263 31.858-31.858zM364.089 785.92c-20.48 0-37.547 17.067-37.547 37.547s17.067 37.547 37.547 37.547 37.547-17.067 37.547-37.547c0-20.48-17.067-37.547-37.547-37.547zM364.089 849.636c-14.791 0-26.169-11.378-26.169-26.169s11.378-26.169 26.169-26.169c14.791 0 26.169 11.378 26.169 26.169s-11.378 26.169-26.169 26.169zM722.489 268.231c0-17.067-13.653-30.72-30.72-30.72h-654.222c-17.067 0-30.72 13.653-30.72 30.72s13.653 30.72 30.72 30.72h653.084c17.067 0 31.858-13.653 31.858-30.72zM691.769 231.822h-654.222c-20.48 0-36.409 15.929-36.409 36.409s15.929 36.409 36.409 36.409h653.084c20.48 0 37.547-15.929 37.547-36.409s-15.929-36.409-36.409-36.409zM37.547 293.262c-13.653 0-25.031-11.378-25.031-25.031s11.378-25.031 25.031-25.031h654.222c13.653 0 25.031 11.378 25.031 25.031s-12.516 25.031-26.169 25.031h-653.084zM722.489 122.596c0-17.067-13.653-30.72-30.72-30.72h-654.222c-17.067 0-30.72 13.653-30.72 30.72s13.653 30.72 30.72 30.72h653.084c17.067 0 31.858-13.653 31.858-30.72zM691.769 86.187h-654.222c-20.48 0-36.409 15.929-36.409 36.409s15.929 36.409 36.409 36.409h653.084c20.48 0 37.547-15.929 37.547-36.409s-15.929-36.409-36.409-36.409zM37.547 147.627c-13.653 0-25.031-11.378-25.031-25.031s11.378-25.031 25.031-25.031h654.222c13.653 0 25.031 11.378 25.031 25.031s-12.516 25.031-26.169 25.031h-653.084zM722.489-24.178c0-17.067-13.653-30.72-30.72-30.72h-654.222c-17.067 0-30.72 13.653-30.72 30.72s13.653 30.72 30.72 30.72h653.084c17.067 1.138 31.858-13.653 31.858-30.72zM691.769-60.587h-654.222c-20.48 0-36.409 15.929-36.409 36.409s15.929 36.409 36.409 36.409h653.084c9.102 1.138 18.204-2.276 26.169-9.102s11.378-17.067 11.378-27.307c0-20.48-15.929-36.409-36.409-36.409zM692.907 0.853c0 0-1.138 0-1.138 0h-653.084c-13.653 0-25.031-11.378-25.031-25.031s11.378-25.031 25.031-25.031h654.222c13.653 0 25.031 11.378 25.031 25.031 0 6.827-3.413 13.653-7.964 18.204-5.689 4.551-11.378 6.827-17.067 6.827z" />
<glyph unicode="&#xe901;" glyph-name="additional-fields" d="M512 934.4c-268.8 0-486.4-217.6-486.4-486.4s217.6-486.4 486.4-486.4c268.8 0 486.4 217.6 486.4 486.4s-217.6 486.4-486.4 486.4zM819.2 358.4h-217.6v-217.6h-179.2v217.6h-217.6v179.2h217.6v217.6h172.8v-217.6h217.6v-179.2z" />
<glyph unicode="&#xe902;" glyph-name="alarm" d="M984.474 149.811c0 17.203-16.384 43.827-41.984 85.197-182.886 308.634-54.067 393.421-173.056 532.070-20.48 23.552-51.814 61.645-115.712 89.907-3.277 40.55-49.766 93.389-140.083 93.389-88.269 0-139.469-51.61-142.541-92.16-57.958-21.504-92.365-61.85-114.483-91.341-104.653-138.65 8.602-238.797-173.67-533.299-23.347-38.707-39.936-66.97-39.936-83.968 0-90.726 180.838-140.288 340.378-154.624 26.419-24.576 70.861-48.333 130.253-48.333s101.376 23.552 130.048 48.947c158.106 15.565 340.787 65.331 340.787 154.214zM677.888 96.563c0.614 21.504 4.506 46.49-2.867 73.933-5.734 21.914-76.39 40.55-161.178 40.55-77.21 0-156.467-15.565-160.768-40.55-4.71-28.467-4.71-52.429-2.867-74.547-107.725 13.517-190.669 42.394-190.669 84.787 0 61.85 136.806 118.579 354.099 118.579 217.702 0 352.87-54.272 352.87-118.579 0.205-43.008-83.558-70.861-188.621-84.173z" />
<glyph unicode="&#xe903;" glyph-name="alert" d="M746.107 901.571c-71.946 38.093-152.064 58.122-233.452 58.348-277.053 0.061-501.719-224.522-501.76-501.535-0.041-130.806 50.995-256.451 142.275-350.126l-20.951-149.074c-1.843-10.752 5.427-20.972 16.179-22.815 4.956-0.84 10.056 0.246 14.254 3.052l113.91 75.53c244.859-129.679 548.434-36.291 678.093 208.548 129.679 244.818 36.311 548.413-208.548 678.072v0zM841.482 133.591c-86.815-88.023-205.21-137.605-328.847-137.646-79.544-0.102-157.839 20.316-227.205 59.31-6.103 3.523-13.66 3.523-19.763 0l-89.17-57.938 17.183 114.893c0.881 6.205-1.27 12.411-5.693 16.794-181.719 179.2-183.808 471.777-4.547 653.496 179.18 181.719 471.777 183.788 653.455 4.547 181.699-179.159 183.808-471.736 4.588-653.455v0zM625.93 280.678h-16.404v292.27c0 10.936-8.868 19.784-19.804 19.784h-170.619c-10.916 0-19.763-8.847-19.763-19.784v-71.188c0-10.916 8.847-19.784 19.763-19.784h16.609v-201.298h-16.609c-10.916 0-19.763-8.827-19.763-19.763v-71.188c0-10.916 8.847-19.784 19.763-19.784h206.828c10.916 0 19.784 8.868 19.784 19.784v71.188c0 10.936-8.847 19.763-19.784 19.763v0zM424.55 197.96v53.391h16.63c10.916 0 19.804 8.888 19.804 19.804v222.065c0 10.916-8.888 19.784-19.804 19.784h-17.060v49.336l159.232-0.102v-291.574c0-10.916 8.847-19.804 19.784-19.804h16.404l0.225-53.391-195.215 0.492zM512.635 785.9c-45.752 0-82.862-37.089-82.862-82.842s37.11-82.842 82.862-82.842 82.883 37.089 82.883 82.842-37.11 82.842-82.883 82.842v0zM512.635 659.558c-23.9 0-43.295 19.374-43.295 43.295-0.123 23.921 19.21 43.418 43.11 43.5 0.041 0 0.143 0 0.184 0v-0.184c23.941 0 43.315-19.395 43.315-43.315s-19.374-43.295-43.315-43.295v0z" />
<glyph unicode="&#xe904;" glyph-name="approval-aproved" d="M512.614 887.91c-242.688 0-439.501-196.608-439.501-439.501s196.608-439.501 439.501-439.501 439.706 196.608 439.706 439.501c0 242.688-197.018 439.501-439.706 439.501zM471.654 275.558l-29.082-31.539-28.058 32.563-158.515 184.32 51.61 55.91 128.614-94.822 280.781 230.81 52.429-55.501-297.779-321.741z" />
<glyph unicode="&#xe905;" glyph-name="approval-circle" d="M442.47 426.291l-122.368 90.112-49.254-53.094 177.664-206.592 311.296 336.384-49.818 52.89zM512 857.6c-226.202 0-409.6-183.398-409.6-409.6 0-226.253 183.398-409.6 409.6-409.6s409.6 183.347 409.6 409.6c0 226.202-183.398 409.6-409.6 409.6zM512 89.6c-197.581 0-358.4 160.717-358.4 358.4 0 197.581 160.819 358.4 358.4 358.4s358.4-160.819 358.4-358.4c0-197.683-160.819-358.4-358.4-358.4z" />
<glyph unicode="&#xe906;" glyph-name="approvals" d="M982.63 936.038c-36.045 24.576-86.835 16.998-113.254-16.589l-74.138-94.413h-782.95v-878.182h878.182v744.243l109.978 139.878c26.419 33.382 18.432 80.486-17.818 105.062zM827.802 9.523h-752.845v752.845h670.72l-286.515-364.544-136.397 160.358c-27.853 32.563-78.848 38.093-113.869 12.288-35.226-25.805-41.165-73.114-13.312-105.677l268.902-315.802 363.315 462.234v-601.702z" />
<glyph unicode="&#xe907;" glyph-name="arrow" horiz-adv-x="1498" d="M175.578 66.827l-86.444 86.444 654.749 654.626 654.382-654.626-86.444-86.444-567.938 568.182z" />
<glyph unicode="&#xe908;" glyph-name="arrow-bottom" horiz-adv-x="1498" d="M743.638 25.256l-654.382 654.504 86.566 86.566 567.816-568.060 568.305 568.060 86.566-86.566z" />
<glyph unicode="&#xe909;" glyph-name="avatar" d="M818.79 228.495l-162.652 81.326c-15.36 7.721-24.945 23.163-24.945 40.284v57.631c3.891 4.69 7.987 10.199 12.247 16.159 21.115 29.757 38.052 62.956 50.299 98.796 24.044 10.957 39.649 34.714 39.649 61.522v68.116c0 16.445-6.124 32.317-17.019 44.769v90.522c0.983 9.4 4.69 65.126-35.656 111.165-34.959 39.875-91.73 60.109-168.714 60.109s-133.755-20.234-168.694-60.129c-40.366-45.957-36.639-101.765-35.656-111.165v-90.522c-10.895-12.431-17.019-28.324-17.019-44.769v-68.116c0-20.726 9.4-40.079 25.457-52.92 15.606-61.768 48.23-108.319 59.679-123.208v-56.443c0-16.486-8.97-31.56-23.429-39.444l-151.921-82.842c-49.418-26.952-80.097-78.684-80.097-134.922v-55.153c0-80.794 256.246-102.195 391.68-102.195s391.68 21.402 391.68 102.195v51.794c0 58.573-32.563 111.247-84.89 137.441v0zM869.622 39.301c0-23.163-126.218-68.116-357.622-68.116s-357.622 44.954-357.622 68.116v55.153c0 43.725 23.859 84.009 62.362 104.919l151.839 82.842c25.457 13.926 41.247 40.55 41.247 69.448v68.485l-3.973 4.71c-0.369 0.512-42.148 50.995-58.020 120.361l-1.597 6.717-5.755 3.727c-9.933 6.41-15.79 17.039-15.79 28.57v68.116c0 9.605 4.076 18.432 11.448 25.088l5.571 5.079v106.066l-0.184 2.232c0 0.43-5.837 47.718 27.32 85.484 28.303 32.195 76.452 48.517 143.155 48.517 66.519 0 114.606-16.241 142.807-48.169 33.178-37.478 27.689-85.402 27.689-85.832l-0.184-108.319 5.571-5.079c7.352-6.636 11.448-15.483 11.448-25.088v-68.116c0-14.848-9.769-27.832-24.207-32.358l-8.52-2.56-2.662-8.438c-11.448-35.471-27.689-68.198-48.251-97.28-5.14-7.209-10.015-13.476-14.275-18.35l-4.26-4.874v-70.246c0-30.085 16.773-57.242 43.745-70.717l162.652-81.326c40.714-20.398 66.089-61.358 66.089-106.967v-51.794z" />
<glyph unicode="&#xe90a;" glyph-name="block_computer" d="M49.93 132.055h442.941v-143.606h-191.898c-10.424 0-19.026-8.54-19.026-19.026 0-10.424 8.602-19.026 19.026-19.026h421.601c10.486 0 19.026 8.602 19.026 19.026 0 10.486-8.54 19.026-19.026 19.026h-191.857v143.606h442.9c27.566 0 49.93 22.385 49.93 49.93v594.514c0 27.566-22.385 49.93-49.93 49.93h-210.678c-10.486 0-19.026-8.602-19.026-19.026 0-10.486 8.54-19.026 19.026-19.026h210.473c6.656 0 12.104-5.448 12.104-12.165v-594.432c0-6.656-5.448-12.104-12.104-12.104h-923.484c-6.656 0-12.104 5.448-12.104 12.104v594.719c0 6.656 5.448 12.104 12.104 12.104h211.128c10.486 0 19.026 8.602 19.026 19.026 0 10.465-8.54 19.026-19.026 19.026h-211.128c-27.546-0.020-49.93-22.385-49.93-49.951v-594.452c-0.205-27.812 22.385-50.196 49.93-50.196v0zM354.714 415.068h313.917c27.156 0 49.336 22.18 49.336 49.336v206.746c0 27.156-22.18 49.336-49.336 49.336h-5.837v75.039c0 83.374-67.727 151.101-151.101 151.101-83.415 0-151.163-67.727-151.163-151.101v-75.284h-5.816c-27.156 0-49.336-22.139-49.336-49.295v-206.746c0.184-27.156 22.18-49.132 49.336-49.132v0zM398.377 795.525c0 62.484 50.77 113.254 113.316 113.254 62.505 0 113.275-50.77 113.275-113.254v-75.284h-226.591v75.284zM343.409 670.945c0 6.267 5.038 11.264 11.325 11.264h313.917c6.287 0 11.305-4.997 11.305-11.264v-206.746c0-6.267-5.018-11.305-11.305-11.305h-313.938c-6.287 0-11.325 5.038-11.325 11.305v206.746zM495.165 564.736c2.13-1.679 2.724-3.113 2.724-5.632v-35.963c0-9.83 10.465-17.347 20.89-12.104 4.403 2.253 6.922 7.107 6.717 12.104v35.963c0 2.724 0.594 4.403 2.929 5.878 7.496 5.386 11.264 13.148 11.264 22.323-0.205 13.578-9.585 24.453-22.958 27.177-12.104 2.519-25.108-4.403-30.29-16.118-5.693-11.899-2.171-25.477 8.724-33.628v0z" />
<glyph unicode="&#xe90b;" glyph-name="board-specialist" d="M512 908.8c-254.515 0-460.8-206.295-460.8-460.8 0-117.975 44.698-225.239 117.668-306.872 84.347-94.29 206.674-153.928 343.132-153.928 138.168 0 261.816 61.123 346.276 157.42 71.107 81.172 114.524 187.116 114.524 303.38 0 254.505-206.316 460.8-460.8 460.8zM833.966 206.367c-29.747 24.474-88.146 42.721-146.483 67.031-69.509 28.887-85.914 39.066-85.914 39.066l-0.645 66.642c0 0 25.938 20.029 34.089 82.79 16.241-4.823 33.321 24.228 34.294 39.465 0.86 14.756-2.243 55.685-22.088 51.558 4.014 30.761 6.912 58.409 5.509 73.011-5.12 53.668-57.846 110.049-139.028 110.049-80.957 0-133.816-56.381-139.018-110.049-1.321-14.602 1.475-42.25 5.55-73.011-19.917 4.116-23.020-36.803-22.047-51.558 0.87-15.227 17.971-44.278 34.294-39.465 7.997-62.761 34.099-82.79 34.099-82.79l-0.696-66.642c0 0-16.425-10.179-85.832-39.066-59.802-24.945-119.757-43.407-148.808-68.659-51.497 67.656-82.452 151.839-82.452 243.261 0 222.362 180.89 403.251 403.21 403.251 222.29 0 403.18-180.89 403.18-403.251 0-90.644-30.454-174.131-81.213-241.633z" />
<glyph unicode="&#xe90c;" glyph-name="board-state" d="M365.599 628.337l-67.369-72.704 243.231-282.89 38.083 41.062 388.137 419.492-68.209 72.458-366.203-300.79zM827.525 132.557h-251.177l-6.103-7.793-9.585 7.793h-364.165v630.866h377.825l112.937 140.257h-630.938v-911.36h911.36v560.855l-140.155-173.957z" />
<glyph unicode="&#xe90d;" glyph-name="calendar" d="M360.363 569.429h121.344v-121.515h-121.344v121.515zM542.293 569.429h121.344v-121.515h-121.344v121.515zM724.309 569.429h121.344v-121.515h-121.344v121.515zM178.347 387.243h121.344v-121.344h-121.344v121.344zM360.363 387.243h121.344v-121.344h-121.344v121.344zM542.293 387.243h121.344v-121.344h-121.344v121.344zM724.309 387.243h121.344v-121.344h-121.344v121.344zM178.347 205.227h121.344v-121.344h-121.344v121.344zM360.363 205.227h121.344v-121.344h-121.344v121.344zM542.293 205.227h121.344v-121.344h-121.344v121.344zM845.653 812.117v90.965c0 16.64-13.483 30.293-30.293 30.293h-121.344c-16.64 0-30.293-13.653-30.293-30.293v-90.965h-303.36v90.965c0 16.64-13.483 30.293-30.293 30.293h-121.429c-16.64 0-30.293-13.653-30.293-30.293v-90.965h-121.344v-849.493h909.995v849.493h-121.344zM724.309 872.789h60.672v-121.344h-60.672v121.344zM239.019 872.789h60.672v-121.344h-60.672v121.344zM906.325 23.211h-788.651v606.891h788.651v-606.891z" />
<glyph unicode="&#xe90e;" glyph-name="cancel" d="M513.843 870.707c-242.688 0-439.501-197.018-439.501-439.706s196.608-439.501 439.501-439.501 439.706 196.608 439.706 439.501-197.018 439.706-439.706 439.706zM703.898 324.915l-83.763-83.763-106.291 106.086-106.086-106.086-83.763 83.763 106.086 106.086-106.086 106.291 83.763 83.558 106.086-106.086 106.291 106.086 83.763-83.558-106.291-106.291 106.291-106.086z" />
<glyph unicode="&#xe90f;" glyph-name="case" d="M614.4 840.533c-11.378 51.2-56.889 85.333-102.4 85.333-51.2 0-91.022-34.133-102.4-85.333h-221.867v-870.4h648.533v870.4h-221.867zM512 868.978c28.444 0 51.2-22.756 51.2-56.889 0-28.444-22.756-56.889-51.2-56.889s-51.2 22.756-51.2 56.889c0 28.444 22.756 56.889 51.2 56.889zM705.422 135.111h-386.844v56.889h386.844v-56.889zM705.422 254.578h-386.844v56.889h386.844v-56.889zM705.422 368.356h-386.844v56.889h386.844v-56.889zM705.422 493.511h-386.844v56.889h386.844v-56.889zM244.622 664.178v119.467h164.978c11.378-51.2 51.2-85.333 102.4-85.333s91.022 34.133 102.4 85.333h164.978v-119.467h-534.756z" />
<glyph unicode="&#xe910;" glyph-name="case-approved" d="M512.614 887.91c-242.688 0-439.501-196.608-439.501-439.501s196.608-439.501 439.501-439.501 439.706 196.608 439.706 439.501c0 242.688-197.018 439.501-439.706 439.501zM471.654 275.558l-29.082-31.539-28.058 32.563-158.515 184.32 51.61 55.91 128.614-94.822 280.781 230.81 52.429-55.501-297.779-321.741z" />
<glyph unicode="&#xe912;" glyph-name="category" d="M833.536 261.632v212.992h-321.536v159.744h159.744v215.040h-374.784v-215.040h159.744v-159.744h-266.24v-215.040h-106.496v-215.040h215.040v217.088h-53.248v159.744h215.040v-159.744h-53.248v-215.040h215.040v215.040h-110.592v159.744h268.288v-159.744h-53.248v-215.040h215.040v215.040h-108.544zM352.256 689.664v106.496h268.288v-106.496h-268.288zM243.712 99.84h-106.496v106.496h106.496v-106.496zM565.248 206.336v-106.496h-106.496v106.496h106.496zM886.784 99.84h-106.496v106.496h106.496v-106.496z" />
<glyph unicode="&#xe913;" glyph-name="change" d="M828.416 825.242h-62.669v-125.542h62.669c34.611 0 62.669-28.262 62.669-62.669v-376.218c0-34.406-28.058-62.669-62.669-62.669h-250.88v125.338l-250.88-188.211 250.88-188.211v125.338h250.88c103.834 0 188.211 84.582 188.211 188.211v376.422c0 103.629-84.378 188.211-188.211 188.211zM138.65 260.608v376.422c0 34.406 28.262 62.669 62.669 62.669h250.88v-125.542l250.88 188.211-250.88 188.211v-125.542h-250.88c-103.834 0-188.211-84.378-188.211-188.211v-376.218c0-103.834 84.378-188.211 188.211-188.211h62.669v125.338h-62.669c-34.406 0.205-62.669 28.467-62.669 62.874z" />
<glyph unicode="&#xe914;" glyph-name="chat" d="M943.514 907.981h-860.16c-33.792 0-61.44-27.648-61.44-61.44v-614.4c0-33.792 27.648-61.44 61.44-61.44h184.32v-184.32l253.338 184.32h422.502c33.792 0 61.44 27.648 61.44 61.44v614.4c0 33.792-27.648 61.44-61.44 61.44zM882.074 293.581h-737.28v491.52h737.28v-491.52zM308.634 600.781c33.997 0 61.44-27.443 61.44-61.44s-27.443-61.44-61.44-61.44-61.44 27.443-61.44 61.44 27.443 61.44 61.44 61.44zM523.674 600.781c33.997 0 61.44-27.443 61.44-61.44s-27.443-61.44-61.44-61.44-61.44 27.443-61.44 61.44 27.443 61.44 61.44 61.44zM738.714 600.781c33.997 0 61.44-27.443 61.44-61.44s-27.443-61.44-61.44-61.44c-33.997 0-61.44 27.443-61.44 61.44s27.443 61.44 61.44 61.44z" />
<glyph unicode="&#xe915;" glyph-name="chip" d="M870.38 863.007v96.993h-34.14v-86.671c-5.673 0.881-11.387 1.311-17.080 1.352h-34.14v85.32h-34.14v-85.32h-51.22v85.32h-34.14v-85.32h-51.2v85.32h-34.14v-85.32h-51.2v85.32h-34.14v-85.32h-51.22v85.32h-34.14v-85.32h-51.2v85.32h-34.14v-85.32h-51.2v85.32h-34.14v-85.32h-34.14c-5.693-0.041-11.387-0.471-17.060-1.352v86.671h-34.14v-96.993c-24.76-11.837-44.728-31.826-56.586-56.586h-97.034v-34.14h86.692c-0.84-5.673-1.29-11.387-1.352-17.039v-34.161h-85.32v-34.161h85.32v-51.2h-85.32v-34.12h85.32v-51.2h-85.32v-34.12h85.32v-51.2h-85.32v-34.14h85.32v-51.2h-85.32v-34.14h85.32v-51.18h-85.32v-34.12h85.32v-51.241h-85.32v-34.12h85.32v-34.14c0.061-5.673 0.512-11.387 1.372-17.060h-86.692v-34.14h97.014c11.837-24.76 31.826-44.749 56.586-56.586v-97.014h34.14v86.692c5.652-0.881 11.366-1.311 17.060-1.352h34.14v-85.34h34.181v85.34h51.2v-85.34h34.14v85.34h51.2v-85.34h34.14v85.34h51.22v-85.34h34.14v85.34h51.2v-85.34h34.14v85.34h51.2v-85.34h34.14v85.34h51.22v-85.34h34.14v85.34h34.14c5.693 0.041 11.407 0.471 17.080 1.352v-86.692h34.14v97.014c24.76 11.837 44.728 31.826 56.566 56.586h97.014v34.14h-86.712c0.86 5.673 1.311 11.387 1.372 17.060v34.14h85.34v34.12h-85.34v51.241h85.34v34.12h-85.34v51.18h85.34v34.14h-85.34v51.2h85.34v34.14h-85.34v51.2h85.34v34.12h-85.34v51.2h85.34v34.12h-85.34v51.2h85.34v34.161h-85.34v34.161c-0.061 5.652-0.492 11.366-1.372 17.039h86.712v34.14h-97.055c-11.837 24.76-31.805 44.749-56.566 56.586v0zM904.52 140.8c-0.061-47.104-38.236-85.279-85.34-85.32h-614.523c-47.084 0.041-85.279 38.216-85.32 85.32v614.441c0.041 47.084 38.236 85.258 85.34 85.299h614.502c47.104-0.041 85.279-38.216 85.34-85.299v-614.441zM802.12 789.361h-580.383c-28.283 0-51.2-22.917-51.2-51.2v-580.301c0-28.283 22.938-51.2 51.2-51.2h580.383c28.262 0 51.2 22.917 51.2 51.2v580.301c-0.020 28.283-22.958 51.2-51.2 51.2v0zM819.18 157.86c0-9.4-7.639-17.060-17.060-17.060h-580.383c-9.421 0-17.060 7.66-17.060 17.060v580.301c0 9.421 7.639 17.080 17.060 17.080h580.383c9.421 0 17.060-7.66 17.060-17.080v-580.301zM750.879 721.080h34.14v-34.161h-34.14v34.161zM238.797 209.060h34.181v-34.12h-34.181v34.12zM238.797 686.92v-51.2h34.181v51.2h51.2v34.161h-51.2c-18.903 0-34.181-15.278-34.181-34.161v0zM750.879 209.060h-51.22v-34.12h85.361v85.361h-34.14v-51.241z" />
<glyph unicode="&#xe916;" glyph-name="ci" d="M891.699 867.84c-73.728 48.333-215.45 80.896-378.47 80.896-162.611 0.205-304.538-32.563-378.061-80.896-34.406-22.323-54.272-48.128-54.272-75.776v-689.971c0-27.648 19.661-53.248 54.067-75.776 73.728-48.128 215.45-80.896 378.266-80.896 163.021 0 304.742 32.768 378.47 80.896 34.406 22.528 54.067 48.333 54.067 75.776v689.971c0.205 27.648-19.661 53.453-54.067 75.776zM513.434 886.067c229.581 0 357.171-64.102 377.037-94.003-19.661-29.901-147.251-94.003-377.037-94.003-229.581-0.205-357.171 64.102-376.832 94.003 19.661 29.901 147.251 94.003 376.832 94.003zM513.434 635.392c163.021 0 304.742 32.768 378.47 81.101v-143.77h-1.434c-19.661-29.901-147.251-94.208-377.037-94.208-229.581 0-357.171 64.307-376.832 94.208h-1.434v143.565c73.523-48.128 215.245-80.896 378.266-80.896zM891.699 102.298h-1.434c-19.661-29.901-147.251-94.003-377.037-94.003-229.581 0-357.171 64.307-376.832 94.003h-1.229v175.104c73.728-48.333 215.45-80.896 378.266-80.896 163.021 0 304.742 32.768 378.47 80.896v-175.104zM891.699 353.178h-1.434c-19.661-29.901-147.251-94.003-377.037-94.003-229.581 0-357.171 64.307-376.832 94.003h-1.229v143.565c73.728-48.128 215.45-81.101 378.266-81.101 163.021 0 304.742 32.768 378.47 81.101v-143.565z" />
<glyph unicode="&#xe917;" glyph-name="client" horiz-adv-x="999" d="M979.115 179.2c-30.037 46.763-130.645 75.861-230.485 117.333-99.584 41.557-123.136 55.979-123.136 55.979l-0.939 95.573c0 0 37.376 28.757 48.896 118.784 23.381-6.827 47.787 34.731 49.152 56.747 1.28 21.077-3.157 79.531-31.659 73.728 5.717 44.117 9.984 83.797 8.021 104.789-7.509 76.885-83.115 157.867-199.424 157.867s-192-80.981-199.424-157.867c-1.963-20.992 2.304-60.672 8.107-104.789-28.587 5.803-33.109-52.651-31.744-73.728 1.365-22.016 25.771-63.659 49.152-56.747 11.605-90.027 48.981-118.784 48.981-118.784l-1.024-95.573c0 0-23.552-14.421-123.392-55.979-99.584-41.557-200.277-70.656-230.315-117.333-26.795-42.069-18.773-243.2-18.773-243.2h996.864c0 0 8.107 201.131-18.859 243.2z" />
<glyph unicode="&#xe918;" glyph-name="clip" d="M225.28-13.824c-38.502 0-76.39 17.818-112.23 53.453l-5.12 5.325c-36.454 36.25-188.826 162.611 0.41 338.125 78.029 71.885 173.875 176.333 280.371 281.805 57.344 56.525 117.146 115.507 176.333 174.899 107.315 107.11 185.549 82.534 306.995-33.178 143.36-136.602 169.574-270.95 107.52-342.63-82.534-95.232-394.035-407.142-407.347-420.454-17.408-17.408-45.67-17.408-63.283 0-17.408 17.408-17.408 45.67 0 63.283 3.072 3.072 322.56 322.765 402.842 415.539 18.637 21.299 21.299 102.195-101.581 219.341-70.861 67.379-91.955 124.723-182.067 34.611-59.597-59.597-119.194-118.579-176.742-175.309-106.086-104.858-204.39-205.824-278.528-279.757-117.35-117.35-40.96-174.899-2.458-212.992l5.734-5.53c32.768-32.768 59.597-41.574 107.52 6.349 13.312 13.517 41.37 40.346 76.186 74.342 96.87 94.003 276.685 268.902 313.139 314.573 11.674 14.336 28.262 49.357 12.288 63.488-22.118 19.456-62.874-19.866-74.752-32.358-125.747-132.301-290.816-291.021-292.454-292.659-17.613-16.998-46.080-16.794-63.078 1.229-17.203 17.818-16.589 45.875 1.229 63.078 1.638 1.638 165.069 158.925 289.792 289.997 81.101 84.992 155.648 75.366 198.246 37.888 52.224-45.466 40.141-135.168-1.434-186.573-36.659-46.080-178.381-184.73-320.512-322.56-34.611-33.792-62.054-60.416-75.366-73.523-39.526-39.936-81.101-59.802-121.651-59.802z" />
<glyph unicode="&#xe919;" glyph-name="close" d="M1015.603 866.816l-83.558 83.763-418.202-418.202-417.997 418.406-83.763-83.763 418.202-418.202-418.202-417.997 83.763-83.558 417.997 417.997 418.202-417.997 83.558 83.558-418.202 417.997z" />
<glyph unicode="&#xe91a;" glyph-name="code" d="M951.439 887.46h-878.879c-40.325 0-73.236-32.788-73.236-73.257v-732.406c0-40.53 32.911-73.257 73.236-73.257h878.879c40.325 0 73.236 32.748 73.236 73.257v732.406c0 40.468-32.911 73.257-73.236 73.257v0zM237.363 854.61c20.234 0 36.68-16.241 36.68-36.495s-16.445-36.557-36.68-36.557c-20.275 0-36.68 16.302-36.68 36.557s16.404 36.495 36.68 36.495v0zM127.447 854.61c20.234 0 36.68-16.241 36.68-36.495s-16.445-36.577-36.68-36.577-36.721 16.302-36.721 36.557c0.164 20.275 16.466 36.516 36.721 36.516v0zM965.12 66.499h-907.51l0.635 688.21h907.53l-0.655-688.21zM334.275 598.61l-235.069 107.704v-51.855l181.719-77.763v-1.106l-181.719-77.496v-51.958l235.090 107.5v44.974zM445.071 600.945h128.123v-49.541h-128.123v49.541z" />
<glyph unicode="&#xe91b;" glyph-name="company" d="M921.805 15.053v247.398l-126.157 61.85v-309.248h-63.078v742.195h-126.157v123.699h-63.078v61.645h-63.078v-61.85h-63.078v-123.494h-126.157v-741.99h-63.078v309.248l-126.157-61.85v-247.398h-62.669v-61.85h945.971v61.85h-63.283zM480.461 76.902h-63.078v61.85h63.078v-61.85zM480.461 200.602h-63.078v61.85h63.078v-61.85zM480.461 324.301h-63.078v61.85h63.078v-61.85zM480.461 448h-63.078v61.85h63.078v-61.85zM480.461 571.699h-63.078v61.85h63.078v-61.85zM606.618 76.902h-63.078v61.85h63.078v-61.85zM606.618 200.602h-63.078v61.85h63.078v-61.85zM606.618 324.301h-63.078v61.85h63.078v-61.85zM606.618 448h-63.078v61.85h63.078v-61.85zM606.618 571.699h-63.078v61.85h63.078v-61.85z" />
<glyph unicode="&#xe91c;" glyph-name="computer" d="M968.704 871.936v0l-913.408 2.048v-2.048c-30.72-2.048-51.2-24.576-55.296-53.248v-600.064c0-12.288 2.048-20.48 8.192-30.72 12.288-20.48 28.672-30.72 51.2-30.72h903.168c22.528 0 40.96 10.24 51.2 30.72 6.144 8.192 8.192 18.432 8.192 30.72v600.064c-2.048 28.672-24.576 51.2-53.248 53.248v0zM968.704 812.544v-593.92c0-4.096-2.048-4.096-4.096-4.096h-905.216c-4.096 0-4.096 2.048-4.096 4.096v600.064h913.408c0 0 0-6.144 0-6.144zM389.12 140.8v-63.488h-61.44c-16.384 0-26.624-12.288-26.624-26.624 0-16.384 12.288-26.624 26.624-26.624h368.64c16.384 0 28.672 12.288 28.672 26.624 0 16.384-12.288 26.624-28.672 26.624h-63.488v63.488h-243.712zM940.032 241.152h-856.064v552.96h858.112v-552.96zM104.448 261.632h817.152v512h-817.152v-512z" />
<glyph unicode="&#xe91d;" glyph-name="computer_configuration" d="M811.008 26.112h-98.304l-20.48 59.392h-362.496l-20.48-59.392h-98.304c-16.384 0-30.72-14.336-30.72-30.72s14.336-30.72 30.72-30.72h600.064c16.384 0 30.72 14.336 30.72 30.72s-12.288 30.72-30.72 30.72v0zM1044.48 306.688h-1064.96v532.48c0 61.44 49.152 110.592 110.592 110.592h841.728c61.44 0 112.64-51.2 112.64-110.592v-532.48zM20.48 347.648h983.040v491.52c0 38.912-32.768 69.632-71.68 69.632h-841.728c-38.912 0-69.632-30.72-69.632-69.632v-491.52zM421.888 357.888c0-10.24 2.048-20.48 6.144-30.72h167.936c4.096 10.24 6.144 20.48 6.144 30.72 0 49.152-40.96 90.112-90.112 90.112s-90.112-40.96-90.112-90.112v0zM309.248 411.136c-4.096-14.336-14.336-22.528-28.672-22.528h-38.912v-59.392h124.928c-2.048 10.24-4.096 20.48-4.096 30.72 0 83.968 67.584 151.552 149.504 151.552s149.504-67.584 149.504-151.552c0-10.24-2.048-20.48-4.096-30.72h124.928v59.392h-38.912c-14.336 0-26.624 10.24-28.672 22.528-4.096 18.432-12.288 36.864-22.528 53.248-6.144 12.288-4.096 26.624 4.096 36.864l26.624 26.624-40.96 43.008-26.624-26.624c-10.24-10.24-24.576-12.288-36.864-4.096-16.384 10.24-34.816 18.432-53.248 22.528-12.288 4.096-22.528 16.384-22.528 28.672v38.912h-59.392v-38.912c0-14.336-10.24-26.624-22.528-28.672-18.432-4.096-36.864-12.288-53.248-22.528-12.288-6.144-26.624-6.144-36.864 4.096l-28.672 26.624-43.008-43.008 26.624-26.624c10.24-10.24 12.288-24.576 4.096-36.864-8.192-16.384-16.384-34.816-20.48-53.248v0zM0 237.056c0-49.152 40.96-90.112 90.112-90.112h841.728c49.152 0 92.16 40.96 92.16 90.112v30.72h-1024v-30.72z" />
<glyph unicode="&#xe91e;" glyph-name="config_all" d="M512 713.482c-146.371 0-265.462-119.112-265.462-265.482s119.091-265.482 265.462-265.482c146.371 0 265.482 119.112 265.482 265.482s-119.112 265.482-265.482 265.482v0zM512 220.447c-125.44 0-227.574 102.113-227.574 227.553s102.134 227.553 227.574 227.553c125.42 0 227.512-102.113 227.512-227.553s-102.093-227.553-227.512-227.553v0zM971.264 561.787h-38.257c-9.728 36.27-24.084 70.922-42.865 103.506l27.075 27.054c9.871 9.871 15.421 23.224 15.421 37.253 0 14.090-5.55 27.361-15.421 37.315l-86.426 86.323c-19.845 19.845-54.62 19.948-74.547 0l-26.972-27.054c-32.604 18.76-67.236 33.096-103.506 42.844v38.236c0.020 29.123-23.613 52.736-52.756 52.736h-122.081c-29.102 0-52.716-23.613-52.716-52.736v-38.236c-36.27-9.748-70.922-24.084-103.526-42.844l-27.075 27.054c-19.825 19.948-54.6 19.845-74.527 0l-86.344-86.426c-9.933-9.851-15.401-23.224-15.401-37.212 0-14.152 5.468-27.361 15.421-37.356l27.054-26.952c-18.78-32.584-33.096-67.256-42.844-103.506h-38.216c-29.143 0-52.756-23.634-52.756-52.736v-122.102c0-29.123 23.613-52.736 52.756-52.736h38.216c9.748-36.25 24.084-70.922 42.844-103.506l-27.054-27.054c-9.871-9.871-15.421-23.204-15.421-37.253 0-14.111 5.55-27.341 15.421-37.315l86.426-86.323c19.845-19.948 54.62-19.948 74.547 0l26.952 27.054c32.604-18.76 67.236-33.075 103.526-42.844v-38.236c0-29.123 23.716-52.736 52.716-52.736h122.081c29.143 0 52.756 23.613 52.756 52.736v38.236c36.27 9.769 70.902 24.105 103.506 42.844l27.054-27.054c19.988-19.948 54.62-19.845 74.547 0l86.344 86.323c9.974 9.974 15.421 23.204 15.421 37.315 0 14.029-5.448 27.279-15.421 37.253l-27.075 27.054c18.78 32.584 33.137 67.256 42.865 103.506h38.257c29.164 0 52.736 23.613 52.736 52.736v122.102c0 29.102-23.572 52.736-52.736 52.736v0zM986.051 386.949c0-8.192-6.595-14.787-14.807-14.787h-68.035l-3.482-14.623c-9.851-42.476-26.542-82.78-49.582-119.685l-7.905-12.861 48.108-48.087c5.857-5.816 5.857-15.217 0-20.931l-86.303-86.323c-5.755-5.837-15.135-5.837-20.972 0l-48.108 48.108-12.841-7.905c-36.925-23.020-77.189-39.69-119.665-49.582l-14.664-3.461v-68.055c0-8.192-6.595-14.807-14.807-14.807h-122.081c-8.192 0-14.787 6.615-14.787 14.807v68.055l-14.643 3.461c-42.455 9.871-82.76 26.563-119.665 49.582l-12.861 7.905-48.108-48.108c-5.837-5.837-15.217-5.837-20.931 0l-86.282 86.303c-5.837 5.816-5.837 15.217 0 20.931l48.108 48.087-7.905 12.861c-23.020 36.905-39.69 77.21-49.603 119.685l-3.461 14.623h-68.014c-8.172 0-14.828 6.595-14.828 14.787v122.102c0 8.172 6.636 14.787 14.828 14.787h68.014l3.461 14.623c9.912 42.476 26.583 82.78 49.603 119.685l7.905 12.841-48.108 48.108c-5.837 5.816-5.837 15.217 0 20.931l86.303 86.323c5.714 5.816 15.114 5.816 20.931 0l48.108-48.108 12.861 7.905c36.905 23.020 77.21 39.69 119.665 49.582l14.643 3.482v68.076c0 8.172 6.595 14.807 14.787 14.807h122.081c8.192 0 14.807-6.615 14.807-14.807v-68.035l14.664-3.482c42.476-9.892 82.739-26.563 119.665-49.582l12.841-7.905 48.108 48.108c5.837 5.816 15.217 5.816 20.972 0l86.303-86.323c5.857-5.837 5.857-15.217 0-20.931l-48.108-48.108 7.905-12.841c23.040-36.905 39.711-77.23 49.582-119.685l3.482-14.623h68.035c8.192 0 14.807-6.615 14.807-14.787v-122.122zM512 637.645c-104.591 0-189.645-85.033-189.645-189.645 0-104.591 85.033-189.645 189.645-189.645s189.645 85.053 189.645 189.645c0 104.591-85.053 189.645-189.645 189.645v0zM512 296.305c-83.681 0-151.716 68.055-151.716 151.695 0 83.661 68.035 151.695 151.716 151.695 83.661 0 151.675-68.035 151.675-151.695 0-83.64-68.014-151.695-151.675-151.695v0z" />
<glyph unicode="&#xe91f;" glyph-name="configuration" d="M67.604 112.21h33.915v33.915h-33.915c-18.719 0-33.915 15.196-33.915 33.915v678.42c0 18.739 15.196 33.915 33.915 33.915h746.271c18.739 0 33.915-15.196 33.915-33.915v-33.915h33.915v33.915c0 37.478-30.372 67.85-67.85 67.85h-746.25c-37.458 0-67.85-30.372-67.85-67.85v-678.42c0-37.478 30.392-67.83 67.85-67.83v0zM67.604 858.46h33.915v-33.915h-33.915v33.915zM135.455 858.46h33.915v-33.915h-33.915v33.915zM203.817 858.46h34.181v-34.161h-34.181v34.161zM135.455 38.052c0-37.765 30.597-68.362 68.362-68.362h752.046c37.765 0 68.383 30.597 68.383 68.362v683.684c0 37.745-30.618 68.342-68.383 68.342h-752.046c-37.765 0-68.362-30.618-68.362-68.342v-683.684zM169.636 721.736c0 18.883 15.299 34.161 34.181 34.161h752.046c18.883 0 34.181-15.299 34.181-34.161v-683.684c0-18.883-15.299-34.202-34.181-34.202h-752.046c-18.883 0-34.181 15.319-34.181 34.202v683.684zM203.305 722.78h33.915v-33.935h-33.915v33.935zM271.135 722.78h33.915v-33.935h-33.915v33.935zM338.985 722.78h33.915v-33.935h-33.915v33.935zM203.305 654.93h746.25v-33.915h-746.25v33.915zM203.305 570.122h135.68v-33.935h-135.68v33.935zM576.43 434.442c-65.577 0-118.723-53.146-118.723-118.702s53.146-118.723 118.723-118.723 118.743 53.166 118.743 118.723c-0.102 65.516-53.207 118.62-118.743 118.702v0zM576.43 230.912c-46.838 0-84.808 37.97-84.808 84.808s37.97 84.808 84.808 84.808 84.828-37.97 84.828-84.808c-0.102-46.797-38.011-84.726-84.828-84.808v0zM847.79 366.612c0 9.38-7.598 16.978-16.957 16.978h-44.831c-3.584 11.1-8.069 21.955-13.394 32.379l31.683 31.683c6.615 6.636 6.615 17.367 0 23.982l-71.967 71.967c-6.615 6.636-17.367 6.636-23.982 0l-31.683-31.683c-10.424 5.325-21.258 9.81-32.379 13.394v44.81c0 9.38-7.598 16.978-16.978 16.978h-101.765c-9.38 0-16.957-7.598-16.957-16.978v-44.81c-11.141-3.584-21.955-8.069-32.379-13.394l-31.683 31.683c-6.636 6.636-17.367 6.636-24.003 0l-71.967-71.967c-6.615-6.615-6.615-17.347 0-23.982l31.683-31.683c-1.413-2.765-2.785-5.55-4.076-8.376-3.584-7.803-6.676-15.831-9.318-23.982h-44.831c-9.359 0-16.937-7.598-16.937-16.978v-101.765c0-9.38 7.578-16.957 16.937-16.957h44.831c3.584-11.141 8.090-22.016 13.414-32.399l-31.703-31.683c-6.615-6.636-6.615-17.367 0-24.003l71.967-71.946c6.636-6.636 17.367-6.636 24.003 0l31.683 31.683c10.424-5.345 21.238-9.81 32.379-13.414v-44.81c0-9.38 7.578-16.978 16.957-16.978h101.765c9.38 0 16.978 7.598 16.978 16.978v44.81c11.121 3.584 21.955 8.069 32.379 13.414l31.683-31.683c6.615-6.636 17.367-6.636 23.982 0l71.967 71.946c6.615 6.636 6.615 17.367 0 24.003l-31.683 31.683c5.345 10.383 9.81 21.258 13.394 32.399h44.831c9.359 0 16.957 7.578 16.957 16.957v101.745zM813.875 281.805h-40.612c-7.721 0-14.479-5.243-16.404-12.718-4.342-16.835-11.018-32.993-19.866-47.964-3.912-6.636-2.847-15.114 2.621-20.582l28.672-28.692-47.985-48.005-28.672 28.692c-5.489 5.489-13.967 6.574-20.623 2.621-14.971-8.827-31.13-15.503-47.944-19.825-7.496-1.946-12.739-8.704-12.739-16.425v-40.612h-67.85v40.591c0 7.721-5.222 14.479-12.718 16.425-16.814 4.321-32.973 10.998-47.964 19.825-6.656 3.932-15.135 2.867-20.603-2.621l-28.692-28.692-47.964 48.005 28.672 28.692c5.448 5.468 6.533 13.947 2.601 20.582-8.847 14.971-15.524 31.15-19.845 47.964-1.946 7.475-8.684 12.718-16.425 12.718h-40.591v67.85h40.591c7.741 0 14.479 5.243 16.425 12.718 2.744 10.67 6.431 21.074 11.039 31.068 2.642 5.816 5.571 11.489 8.806 16.978 3.912 6.656 2.847 15.114-2.601 20.582l-28.672 28.692 47.964 47.964 28.692-28.692c5.468-5.468 13.947-6.533 20.603-2.601 14.971 8.827 31.15 15.524 47.964 19.845 7.496 1.925 12.718 8.704 12.718 16.404v40.53h67.85v-40.612c0-7.721 5.243-14.479 12.739-16.425 16.814-4.321 32.952-10.998 47.944-19.825 6.656-3.932 15.135-2.867 20.623 2.601l28.672 28.713 47.985-48.005-28.672-28.692c-5.468-5.468-6.533-13.947-2.621-20.603 8.847-14.95 15.524-31.109 19.866-47.944 1.925-7.475 8.684-12.718 16.404-12.718h40.612v-67.809zM847.79 78.275h101.765v-33.915h-101.765v33.915z" />
<glyph unicode="&#xe920;" glyph-name="contacts" d="M938.967 185.344l-163.041 81.51c-15.38 7.721-24.986 23.204-24.986 40.325v57.795c3.891 4.71 8.008 10.199 12.268 16.159 21.156 29.88 38.134 63.119 50.401 99.041 24.084 10.998 39.752 34.796 39.752 61.686v68.28c0 16.445-6.164 32.358-17.080 44.81v90.767c0.963 9.4 4.71 65.249-35.738 111.391-35.021 39.956-91.914 60.232-169.083 60.232-77.148 0-134.042-20.275-169.062-60.232-24.535-27.955-32.809-59.392-35.287-82.002-29.266 15.114-63.734 22.753-102.851 22.753-177.316 0-187.638-151.122-187.72-153.6v-78.152c-11.018-12.042-17.080-25.928-17.080-39.793v-58.921c0-18.391 8.274-35.553 22.405-47.206 14.070-53.084 48.722-93.164 62.136-107.192v-46.838c0-13.435-7.27-25.805-19.927-32.727l-113.603-71.209c-43.459-23.716-70.472-69.243-70.472-118.764v-64.799h1024v68.997c0 58.634-32.604 111.452-85.033 137.687v0zM238.94 51.016v-38.236h-204.8v30.679c0 37.089 20.173 71.127 53.596 89.313l113.5 71.209c22.753 12.472 36.905 36.209 36.905 62.157v61.317l-5.427 5.079c-0.451 0.369-45.773 43.192-59.208 101.601l-1.516 6.758-5.857 3.727c-7.823 5.079-12.534 13.599-12.534 22.753v58.921c0 6.246 4.178 13.517 11.469 20.070l5.591 5.079v91.832c0.287 4.874 9.155 120.443 153.6 120.443 40.796 0 75.203-9.441 102.4-28.078v-80.712c-10.916-12.431-17.060-28.344-17.060-44.79v-68.28c0-5.161 0.614-10.322 1.679-15.196 0.532-2.048 1.434-3.809 2.068-5.755 0.983-2.847 1.679-5.796 3.011-8.561 0 0 0 0 0-0.082 4.444-8.97 10.752-17.080 18.76-23.47 0.082-0.369 0.266-0.594 0.266-0.881 1.065-3.912 2.13-7.803 3.277-11.633l1.413-4.444c0.184-0.758 0.532-1.556 0.799-2.437 0.532-1.761 1.167-3.604 1.782-5.407 0.983-2.99 2.068-6.124 3.297-9.4 0.512-1.434 1.167-2.683 1.679-4.076 1.413-3.564 2.765-7.045 4.28-10.404 0.348-0.799 0.614-1.72 0.963-2.601l0.983-2.13c0.451-1.004 0.901-1.884 1.331-2.847 1.679-3.645 3.379-7.209 5.059-10.609 0.287-0.512 0.532-1.167 0.799-1.679 1.085-2.13 2.13-4.157 3.195-6.205 1.884-3.482 3.666-6.758 5.53-10.076 0.881-1.475 1.679-3.072 2.58-4.526 2.478-4.157 4.792-8.090 7.107-11.633 0.451-0.799 0.983-1.597 1.413-2.314 4.096-6.41 7.741-11.551 10.67-15.647 0.799-1.085 1.495-1.966 2.13-2.929 0.369-0.43 0.901-1.167 1.27-1.597v-56.566c0-16.445-9.073-31.642-23.552-39.526l-45.158-24.637-7.823 0.717-3.195-6.758-96.010-52.367c-49.521-27.013-80.261-78.807-80.261-135.168v0zM989.88 12.78h-716.82v38.236c0 43.848 23.921 84.152 62.505 105.165l152.187 83.005c25.498 14.008 41.329 40.632 41.329 69.591v68.649l-3.277 3.912-0.717 0.799c0 0.082-1.065 1.311-2.744 3.564-0.102 0.164-0.287 0.246-0.369 0.43-0.901 1.167-1.966 2.56-3.195 4.239 0 0.123 0 0.123 0 0.123-2.58 3.564-5.775 8.151-9.339 13.681-0.082 0.082-0.082 0.287-0.184 0.369-1.679 2.56-3.461 5.407-5.243 8.438-0.184 0.287-0.369 0.43-0.43 0.717-3.83 6.472-8.008 13.763-12.001 21.832l-0.102 0.123c-2.13 4.321-4.26 8.888-6.41 13.681-0.266 0.594-0.614 1.311-0.881 1.966-0.983 2.13-1.864 4.362-2.847 6.636-0.369 0.922-0.717 1.72-1.085 2.601-0.881 2.191-1.782 4.444-2.662 7.004-1.782 4.71-3.379 9.523-4.977 14.52l-0.983 3.072c-0.082 0.328-0.184 0.635-0.266 1.004-1.597 5.407-3.195 10.916-4.444 16.609l-1.597 6.758-5.775 3.768c-9.953 6.369-15.811 17.039-15.811 28.59v68.28c0 9.605 4.076 18.514 11.469 25.129l5.591 5.079v112.394l-0.43 0.328c-0.614 12.37 0.184 50.115 27.648 81.49 28.365 32.317 76.616 48.64 143.462 48.64 66.683 0 114.852-16.241 143.114-48.23 33.26-37.601 27.73-85.606 27.73-86.036l-0.184-108.564 5.612-5.079c7.373-6.636 11.448-15.544 11.448-25.149v-68.28c0-14.93-9.769-27.914-24.269-32.44l-8.54-2.56-2.662-8.479c-11.489-35.553-27.73-68.321-48.353-97.485-5.161-7.209-10.035-13.517-14.316-18.391l-4.26-4.915v-70.41c0-30.126 16.794-57.324 43.827-70.84l163.021-81.49c40.796-20.48 66.232-61.522 66.232-107.192v-34.877z" />
<glyph unicode="&#xe921;" glyph-name="convert-to" d="M210.33 326.144l181.658 242.074h-86.835c41.779 72.090 118.784 121.037 207.872 121.037 61.030 0 115.917-23.347 158.72-60.621h155.648c-62.874 108.544-179.814 181.658-314.368 181.658-158.106 0-292.045-101.171-342.016-242.074h-142.336l181.658-242.074zM815.718 568.218l-181.658-242.074h87.45c-41.984-72.090-119.194-121.037-208.486-121.037-60.826 0-115.712 23.142-158.106 60.621h-155.238c62.874-108.339 179.2-181.658 313.344-181.658 158.106 0 292.25 101.171 342.221 242.074h142.131l-181.658 242.074z" />
<glyph unicode="&#xe922;" glyph-name="cost" d="M520 146.624h24c21.504 0.64 24 14.016 24 24v64c0 10.048-2.496 23.488-24.256 24h-23.744v-112zM392 426.624v-64c0-9.984 2.496-23.36 24.128-24h23.872v112h-23.872c-21.632-0.576-24.128-13.952-24.128-24zM640 714.624c-64 64 128 128 128 192s-128 64-256 0c-128 64-256 64-256 0s192-128 128-192-320-192-320-512 55.36-256 448-256c375.36 0 448-55.296 448 256 0 320-256 448-320 512zM544 338.624c41.728 0 104-27.648 104-104v-64c0-76.224-62.272-104-104-104h-24v-24c0-22.080-17.984-40-40-40-22.144 0-40 17.92-40 40v24h-88c-22.144 0-40 17.984-40 40 0 22.144 17.856 40 40 40h88v112h-24c-41.856 0-104 27.776-104 104v64c0 76.288 62.144 104 104 104h24v24c0 22.080 17.856 40 40 40 22.016 0 40-17.92 40-40v-24h88c22.016 0 40-17.92 40-40s-17.984-40-40-40h-88v-112h24z" />
<glyph unicode="&#xe923;" glyph-name="csv" d="M714.138 897.331h-591.258v-883.507h772.915v701.645l-181.658 181.862zM730.112 802.918l71.475-71.475h-71.475v71.475zM840.704 69.12h-662.528v772.915h496.845v-165.683h165.683v-607.232zM399.974 508.006c0 25.19 8.397 45.056 24.986 60.006 16.589 14.746 37.274 22.118 61.645 22.118 31.13 0 55.501-10.445 73.318-31.13s26.624-48.128 26.624-82.125c0-33.382-5.12-62.054-15.565-86.016s-23.142-44.032-38.298-60.006c-15.155-15.974-31.539-28.467-48.947-37.683s-33.178-16.179-47.104-20.48l-42.189 60.006c20.070 8.192 37.274 21.504 52.224 39.936 14.746 18.432 22.938 38.093 24.371 58.778-16.998-2.253-33.178 3.072-48.333 15.565s-22.733 32.973-22.733 61.030z" />
<glyph unicode="&#xe924;" glyph-name="dashboard" d="M8.806 70.554h1006.387v-62.874h-1006.387v62.874zM8.806 699.699h251.699v-566.067h-251.699v566.067zM386.253 448h251.494v-314.573h-251.494v314.573zM763.494 888.32h251.699v-754.893h-251.699v754.893z" />
<glyph unicode="&#xe925;" glyph-name="database" d="M1014.968 357.478l0.328 0.164-183.91 411.197c-17.121 38.318-55.357 63.119-97.362 63.119h-444.047c-42.004 0-80.159-24.801-97.362-63.119l-183.89-411.197 0.328-0.164c-5.612-11.366-9.052-23.962-9.052-37.437v-170.68c0-47.043 38.277-85.32 85.32-85.32h853.361c47.043 0 85.32 38.277 85.32 85.32v170.68c0 13.476-3.441 26.071-9.032 37.437v0zM231.588 751.391c10.281 23.040 33.198 37.888 58.409 37.888h444.047c25.19 0 48.128-14.848 58.409-37.888l155.177-346.952c-2.99 0.328-5.878 0.881-8.929 0.881h-853.381c-3.031 0-5.919-0.553-8.888-0.881l155.156 346.952zM981.32 149.361c0-23.511-19.128-42.639-42.639-42.639h-853.361c-23.511 0-42.639 19.128-42.639 42.639v170.68c0 23.47 19.128 42.598 42.639 42.598h853.361c23.511 0 42.639-19.128 42.639-42.598v-170.68zM896 234.68c0-23.552-19.108-42.68-42.66-42.68s-42.68 19.128-42.68 42.68 19.128 42.68 42.68 42.68 42.66-19.128 42.66-42.68v0z" />
<glyph unicode="&#xe926;" glyph-name="dataserver" d="M179.2 857.17c-42.271 0-76.8-34.611-76.8-77.128 0-42.476 34.529-77.107 76.8-77.107 42.291 0 76.8 34.611 76.8 77.107 0 42.516-34.509 77.128-76.8 77.128v0zM179.2 737.219c-23.532 0-42.66 19.19-42.66 42.824s19.128 42.844 42.66 42.844c23.552 0 42.66-19.21 42.66-42.844s-19.108-42.824-42.66-42.824v0zM870.38 805.765c0-9.462-7.598-17.142-17.019-17.142-9.462 0-17.060 7.68-17.060 17.142 0 9.441 7.598 17.121 17.060 17.121 9.421 0 17.019-7.68 17.019-17.121v0zM802.14 805.765c0-9.462-7.639-17.142-17.060-17.142s-17.060 7.68-17.060 17.142c0 9.441 7.639 17.121 17.060 17.121s17.060-7.68 17.060-17.121v0zM904.52 754.34c0-9.462-7.66-17.142-17.060-17.142-9.421 0-17.080 7.68-17.080 17.142 0 9.441 7.66 17.121 17.080 17.121 9.4 0.020 17.060-7.68 17.060-17.121v0zM836.301 754.34c0-9.462-7.66-17.142-17.080-17.142s-17.080 7.68-17.080 17.142c0 9.441 7.66 17.121 17.080 17.121s17.080-7.68 17.080-17.121v0zM733.86 805.765c0-9.462-7.639-17.142-17.060-17.142s-17.060 7.68-17.060 17.142c0 9.441 7.639 17.121 17.060 17.121s17.060-7.68 17.060-17.121v0zM768.020 754.34c0-9.462-7.66-17.142-17.080-17.142s-17.080 7.68-17.080 17.142c0 9.441 7.66 17.121 17.080 17.121s17.080-7.68 17.080-17.121v0zM665.58 805.765c0-9.462-7.66-17.142-17.060-17.142-9.441 0-17.080 7.68-17.080 17.142 0 9.441 7.639 17.121 17.080 17.121 9.4 0 17.060-7.68 17.060-17.121v0zM699.74 754.34c0-9.462-7.66-17.142-17.080-17.142s-17.080 7.68-17.080 17.142c0 9.441 7.66 17.121 17.080 17.121s17.080-7.68 17.080-17.121v0zM597.361 805.765c0-9.462-7.66-17.142-17.080-17.142s-17.080 7.66-17.080 17.142c0 9.441 7.66 17.121 17.080 17.121s17.080-7.68 17.080-17.121v0zM631.439 754.34c0-9.462-7.598-17.142-17.019-17.142-9.462 0-17.060 7.68-17.060 17.142 0 9.441 7.598 17.121 17.060 17.121 9.421 0.020 17.019-7.68 17.019-17.121v0zM179.2 531.558c-42.271 0-76.8-34.611-76.8-77.128 0-42.476 34.529-77.128 76.8-77.128 42.291 0 76.8 34.652 76.8 77.128 0 42.496-34.509 77.128-76.8 77.128v0zM179.2 411.587c-23.532 0-42.66 19.19-42.66 42.844 0 23.634 19.128 42.844 42.66 42.844 23.552 0 42.66-19.21 42.66-42.844 0-23.654-19.108-42.844-42.66-42.844v0zM179.2 205.926c-42.271 0-76.8-34.632-76.8-77.107 0-42.496 34.529-77.128 76.8-77.128 42.291 0 76.8 34.632 76.8 77.128 0 42.476-34.509 77.107-76.8 77.107v0zM179.2 85.955c-23.532 0-42.66 19.21-42.66 42.865 0 23.634 19.128 42.844 42.66 42.844 23.552 0 42.66-19.21 42.66-42.844 0-23.654-19.108-42.865-42.66-42.865v0zM1024 679.076v201.933c0 43.54-35.308 78.991-78.664 78.991h-866.652c-43.377 0-78.684-35.451-78.684-78.991v-201.912c0-25.149 12.001-47.391 30.31-61.85-18.309-14.479-30.31-36.7-30.31-61.87v-201.912c0-25.17 12.001-47.391 30.31-61.85-18.309-14.479-30.31-36.68-30.31-61.85v-201.892c0-43.581 35.308-79.012 78.684-79.012h475.709c45.814-8.499 95.928-12.861 145.347-12.861 147.988 0 304.067 38.543 322.499 112.271 1.126 2.335 1.761 4.936 1.761 7.68v475.607c0 2.601-0.635 4.895-1.597 7.148-5.939 25.068-28.16 46.244-60.785 63.099 35.512 7.557 62.382 39.26 62.382 77.271v0zM34.14 353.464v201.912c0 24.617 20.009 44.728 44.544 44.728h356.004c-30.863-16.589-51.835-37.13-57.61-61.42-0.983-2.232-1.597-4.526-1.597-7.148v-222.802h-296.796c-24.535 0-44.544 20.111-44.544 44.728v0zM420.27 458.629c0.799-0.553 1.597-0.983 2.396-1.536 3.011-1.864 6.144-3.748 9.318-5.53 0.983-0.532 1.864-1.065 2.847-1.516 4.014-2.13 8.11-4.28 12.37-6.246 0.758-0.348 1.434-0.614 2.15-0.963 3.727-1.7 7.639-3.4 11.612-4.997 1.188-0.451 2.294-0.983 3.482-1.434 4.69-1.884 9.523-3.666 14.5-5.345 0.287-0.102 0.492-0.205 0.881-0.287 4.71-1.597 9.605-3.215 14.602-4.71 1.29-0.369 2.642-0.799 3.932-1.167 4.915-1.434 9.892-2.847 15.032-4.198 0.369-0.082 0.819-0.266 1.188-0.348 5.509-1.434 11.121-2.683 16.794-4.014 1.495-0.266 2.929-0.635 4.342-0.901 4.915-1.065 9.789-2.15 14.828-3.031 1.004-0.184 1.987-0.43 2.949-0.635 5.898-1.065 11.735-2.13 17.818-3.011 1.413-0.287 2.847-0.451 4.26-0.717 4.956-0.717 9.953-1.413 15.012-2.13 1.413-0.184 2.744-0.348 4.178-0.532 6.021-0.799 12.145-1.516 18.371-2.13 1.29-0.164 2.499-0.266 3.727-0.369 5.263-0.532 10.506-0.983 15.749-1.434 1.638-0.082 3.113-0.246 4.71-0.348 6.349-0.451 12.595-0.901 18.862-1.249 0.881 0 1.843 0 2.744-0.082 5.55-0.266 11.121-0.451 16.63-0.635 1.72-0.082 3.4-0.082 5.1-0.184 6.39-0.082 12.698-0.164 19.108-0.164 6.328 0 12.698 0.082 19.026 0.164 1.659 0.102 3.4 0.102 5.038 0.184 5.612 0.164 11.162 0.369 16.65 0.635 0.983 0.082 1.884 0.082 2.765 0.082 6.308 0.348 12.636 0.799 18.821 1.249 1.618 0.102 3.236 0.266 4.751 0.348 5.304 0.451 10.445 0.901 15.708 1.434 1.29 0.102 2.499 0.266 3.727 0.369 6.246 0.635 12.37 1.331 18.493 2.13 1.331 0.184 2.744 0.369 4.116 0.532 5.059 0.737 10.015 1.434 15.012 2.13 1.393 0.266 2.847 0.43 4.239 0.717 6.062 0.881 11.94 1.966 17.756 3.011 1.106 0.205 2.089 0.451 3.052 0.635 4.956 0.881 9.83 1.966 14.766 3.031 1.413 0.266 2.97 0.635 4.362 0.901 5.632 1.311 11.305 2.58 16.773 4.014 0.348 0.082 0.778 0.266 1.188 0.348 5.14 1.352 10.097 2.662 14.991 4.198 1.331 0.369 2.765 0.799 4.076 1.167 4.915 1.495 9.789 3.113 14.561 4.71 0.328 0.082 0.553 0.184 0.84 0.287 4.956 1.679 9.789 3.461 14.459 5.345 1.208 0.451 2.314 0.963 3.502 1.434 3.953 1.597 7.905 3.297 11.612 4.997 0.737 0.348 1.413 0.614 2.15 0.963 4.26 1.966 8.438 4.116 12.308 6.246 0.983 0.532 1.925 0.983 2.867 1.516 3.215 1.782 6.328 3.666 9.359 5.53 0.778 0.553 1.577 0.963 2.417 1.536 3.523 2.294 6.82 4.628 9.994 7.107 0.205 0.102 0.43 0.287 0.635 0.471v-85.504c-0.348-1.966-0.635-4.035-0.348-6.062 0.246-1.27 0.43-2.499 0.43-3.768 0-1.864-0.512-3.83-0.963-5.714-0.348-1.434-0.799-2.949-1.434-4.465-0.532-1.249-1.229-2.58-2.068-3.85-0.676-1.249-1.495-2.58-2.396-3.83-1.311-1.782-2.847-3.543-4.506-5.366-0.655-0.717-1.249-1.413-1.966-2.048-36.106-35.164-142.643-66.867-276.808-66.867-133.98 0-240.538 31.683-276.726 66.765-0.799 0.717-1.434 1.516-2.13 2.212-1.597 1.72-3.011 3.502-4.342 5.181-0.983 1.331-1.782 2.683-2.601 4.014-0.696 1.249-1.311 2.499-1.864 3.748-0.614 1.516-1.167 3.031-1.495 4.649-0.451 1.823-0.963 3.707-0.963 5.571 0 1.27 0.184 2.417 0.369 3.666 0.348 2.232 0.164 4.465-0.369 6.615v85.053c0.184-0.184 0.451-0.369 0.614-0.471 3.195-2.478 6.492-4.813 10.056-7.107v0zM987.464 206.459c-0.614-1.249-1.229-2.601-2.068-3.85-0.676-1.249-1.495-2.58-2.396-3.85-1.311-1.782-2.847-3.543-4.506-5.366-0.655-0.717-1.249-1.434-1.966-2.048-36.106-35.164-142.746-66.847-276.808-66.847-133.98 0-240.538 31.683-276.726 66.765-0.799 0.717-1.516 1.536-2.13 2.232-1.597 1.7-3.113 3.461-4.342 5.161-0.983 1.352-1.782 2.683-2.601 4.014-0.696 1.249-1.311 2.499-1.864 3.748-0.696 1.516-1.167 3.031-1.495 4.649-0.369 1.618-0.799 3.215-0.901 4.813v2.048c0.102 0.799 0.102 1.516 0.287 2.314 0.266 1.434-0.082 2.949-0.287 4.362l-0.061 84.132v3.215c0.696-0.532 1.495-1.065 2.212-1.597 2.13-1.618 4.362-3.113 6.676-4.731 1.864-1.27 3.809-2.499 5.837-3.666 3.011-1.966 6.062-3.748 9.359-5.612 0.061 0 0.061 0 0.061 0 35.656-19.558 84.541-33.587 138.67-42.127 0.43 0 0.819-0.102 1.27-0.184 17.428-2.683 35.369-4.813 53.555-6.349 3.932-0.348 7.762-0.717 11.674-0.963 3.83-0.287 7.66-0.553 11.428-0.717 5.243-0.266 10.383-0.532 15.544-0.799 2.949-0.082 5.919-0.184 8.97-0.266 8.335-0.287 16.65-0.451 24.883-0.451 8.274 0 16.527 0.164 24.924 0.369 2.99 0.082 6.021 0.266 8.991 0.348 5.12 0.266 10.26 0.451 15.319 0.799 3.912 0.164 7.741 0.43 11.571 0.717 3.83 0.266 7.639 0.512 11.428 0.881 18.452 1.618 36.454 3.748 54.17 6.513 0.205 0 0.532 0 0.676 0.102 59.208 9.277 112.148 25.252 148.173 47.575 1.966 1.249 3.932 2.499 5.775 3.748 2.314 1.516 4.526 3.113 6.676 4.731 0.778 0.532 1.679 1.085 2.396 1.7v-85.524c-0.348-1.946-0.614-3.994-0.348-6.062 0.164-1.249 0.348-2.499 0.348-3.748 0-1.884-0.512-3.85-0.963-5.714-0.307-1.434-0.778-2.949-1.413-4.465v0zM78.684-16.876c-24.535 0-44.544 20.070-44.544 44.728v201.892c0 24.637 20.009 44.708 44.544 44.708h296.776v-235.643h5.079c0.246-0.635 0.594-1.249 0.983-1.884 0.512-1.331 1.229-2.58 1.966-3.85 1.311-2.499 2.908-4.997 4.71-7.496 1.761-2.499 3.707-4.895 5.734-7.229 1.065-1.249 2.13-2.396 3.297-3.564 6.472-6.779 14.397-13.107 23.47-19.005 0.287-0.266 0.635-0.451 0.881-0.614 6.574-4.28 13.722-8.294 21.361-12.042h-364.257zM989.86 60.334c-0.184-0.532-0.287-1.085-0.348-1.597-6.963-42.762-125.051-88.474-289.772-88.474-52.552 0-100.291 4.649-141.23 12.411v0.164c-84.91 16.077-131.85 43.295-144.998 66.335-0.594 1.065-1.065 2.15-1.516 3.133-0.881 2.15-1.679 4.28-2.028 6.431l-0.184 98.816c0.614-0.451 1.311-0.901 2.048-1.434 2.13-1.618 4.362-3.133 6.676-4.731 1.864-1.249 3.809-2.499 5.775-3.748 3.072-1.884 6.124-3.748 9.421-5.53h0.061c35.656-19.558 84.541-33.567 138.67-42.148 0.43-0.082 0.819-0.082 1.27-0.164 17.428-2.683 35.369-4.833 53.555-6.431 3.932-0.266 7.762-0.614 11.674-0.901 3.83-0.246 7.66-0.512 11.428-0.717 5.243-0.348 10.383-0.512 15.442-0.799 3.031-0.082 6.021-0.266 9.052-0.369 8.335-0.164 16.65-0.348 24.883-0.348 8.274 0 16.527 0.184 24.822 0.348 3.072 0.082 6.124 0.266 9.093 0.369 5.12 0.184 10.26 0.451 15.319 0.717 3.912 0.287 7.741 0.553 11.571 0.799 3.83 0.287 7.639 0.553 11.428 0.901 18.452 1.516 36.454 3.748 54.067 6.431 0.307 0.082 0.532 0.082 0.778 0.164 59.167 9.298 112.046 25.17 148.173 47.596 1.966 1.249 3.932 2.499 5.775 3.748 2.314 1.516 4.526 3.052 6.676 4.731 0.778 0.532 1.679 1.065 2.396 1.618v-97.321zM989.86 525.128c0-43.459-124.109-92.14-290.12-92.14-166.052 0.020-290.14 48.681-290.14 92.14 0 2.232 0.512 4.444 1.147 6.595 0.717 2.232 1.618 4.547 2.97 6.861 0.082 0.082 0.184 0.184 0.184 0.287 5.673 9.544 17.121 19.804 34.734 29.696 0.799 0.389 1.475 0.799 2.294 1.167 3.011 1.7 6.246 3.318 9.585 4.895 3.932 1.884 7.946 3.686 12.186 5.468 0.901 0.348 1.741 0.696 2.621 1.065 19.804 7.946 43.725 14.889 70.636 20.685 8.397 1.782 16.978 3.502 25.825 4.915 2.273 0.451 4.588 0.799 7.004 1.249 76.37 11.796 165.499 11.796 241.93 0 2.396-0.451 4.751-0.881 7.066-1.249 8.806-1.413 17.326-3.133 25.661-4.915 83.149-17.715 136.417-48.251 136.417-76.718v0zM989.86 679.076c0-24.617-20.009-44.708-44.524-44.708h-79.032c-0.983 0.164-2.048 0.369-3.031 0.635-11.182 2.396-22.692 4.547-34.468 6.41-1.147 0.184-2.314 0.348-3.461 0.532-40.264 6.349-83.251 9.544-125.604 9.544-42.291 0-85.279-3.195-125.604-9.544-1.188-0.184-2.294-0.348-3.482-0.532-11.776-1.884-23.306-4.014-34.406-6.41-0.983-0.266-2.13-0.369-3.113-0.635h-454.451c-24.535 0-44.544 20.070-44.544 44.708v201.933c0 24.637 20.009 44.728 44.544 44.728h866.652c24.515 0 44.524-20.091 44.524-44.728v-201.933z" />
<glyph unicode="&#xe927;" glyph-name="device" d="M971.1 456.561h-117.78v307.507c-0.061 47.124-38.216 85.361-85.32 85.402h-512.020c-47.104-0.041-85.258-38.257-85.34-85.402v-102.523h-93.594c-42.537-0.041-77.025-34.529-77.046-77.107v-460.78c0.020-42.578 34.509-77.087 77.046-77.128h272.589c32.481 0.102 61.399 20.603 72.233 51.261h294.932c9.421 0 17.060 7.619 17.060 17.080v34.161c0 28.324-22.917 51.241-51.22 51.241h-51.18v68.342h136.54v-169.124c0-29.266 23.675-52.961 52.9-52.961h150.2c29.225 0 52.9 23.695 52.9 52.961v304.087c0 29.245-23.675 52.982-52.9 52.982v0zM392.52 123.658c-0.020-23.716-19.21-42.967-42.906-42.967h-272.568c-23.695 0-42.885 19.231-42.926 42.967v8.294h358.4v-8.294zM392.52 166.093h-358.4v375.869h358.4v-375.869zM392.52 576.123h-358.4v8.315c0.041 23.695 19.21 42.926 42.926 42.947h272.589c23.695-0.020 42.885-19.231 42.906-42.947v-8.315zM682.639 166.093c9.441 0 17.101-7.619 17.101-17.060v-17.080h-273.080v34.14h255.98zM426.66 200.274v68.342h170.66v-68.342h-170.66zM768 302.776h-341.34v51.261h341.34v-51.261zM768 403.579v-15.36h-341.34v196.219c-0.082 42.578-34.509 77.066-77.046 77.107h-144.835v102.523c0 28.303 22.917 51.241 51.2 51.241h512.020c28.283 0 51.18-22.938 51.18-51.241v-307.671c-28.488-0.942-51.139-24.269-51.18-52.818v0zM989.86 99.492c0-10.383-8.397-18.801-18.76-18.801h-150.2c-10.363 0-18.76 8.417-18.76 18.801v15.38h187.72v-15.38zM989.86 149.033h-187.72v205.005h187.72v-205.005zM989.86 388.219h-187.72v15.36c0 10.383 8.397 18.801 18.76 18.801h150.2c10.363 0 18.76-8.417 18.76-18.801v-15.36z" />
<glyph unicode="&#xe928;" glyph-name="double-arrow-down" d="M509.542 342.323l-466.125 437.043 82.944 88.474 383.181-359.219 383.181 359.219 82.944-88.474zM509.542-21.606l-466.125 437.043 82.944 88.474 383.181-359.219 383.181 359.219 82.944-88.474z" />
<glyph unicode="&#xe929;" glyph-name="double-arrow-up" d="M885.146-16.486l-376.832 353.28-377.037-353.28-81.51 87.040 458.547 429.875 458.342-429.875zM885.146 367.309l-376.832 353.28-377.037-353.28-81.51 87.040 458.547 429.875 458.342-429.875z" />
<glyph unicode="&#xe92a;" glyph-name="edit" d="M606.822 907.366c27.034 25.805 62.054 41.574 101.786 41.574 38.093 0 78.438-15.77 105.267-41.574l159.334-159.539c25.6-27.034 41.37-66.765 41.37-105.062s-15.565-74.752-41.37-101.786l-111.616-111.821-366.797 366.592 112.026 111.616zM501.555 82.432c14.131 3.482 23.552 11.469 31.949 19.251l275.456 275.046-203.776 208.486-331.366-333.824 148.070-149.914-202.547-54.272-105.062 105.267 55.296 200.499 44.851-44.237 331.776 333.824-102.195 100.352c-35.226-35.021-35.226-35.021-275.866-276.685-7.987-7.987-16.179-18.842-19.046-31.744l-136.806-489.062 489.267 137.011z" />
<glyph unicode="&#xe92b;" glyph-name="edit_all" d="M1022.669 448.512c0 281.231-229.356 510.013-511.283 510.013-11.469 0-20.623-9.155-20.623-20.603v-188.641h-9.585c-95.703 0-173.67-77.578-173.67-173.302v-255.201c0-95.478 77.742-173.261 173.67-173.261h60.252c95.703 0 173.67 77.578 173.67 173.261v255.447c0 95.498-77.783 173.281-173.67 173.281h-9.585v167.629c249.774-10.793 449.536-216.945 449.536-468.623 0-165.601-84.869-315.556-226.857-401.469-146.801-88.617-325.919-90.051-491.254-3.932-67.973 35.553-122.819 90.255-158.495 158.29-111.124 212.787-74.424 447.222 93.635 596.767 8.561 7.496 9.175 20.582 1.679 29.143-7.516 8.54-20.644 9.155-29.184 1.638-83.62-74.445-141.169-175.534-162.017-284.733-22.528-118.764-2.089-243.978 59.228-361.513 39.363-75.694 100.27-136.438 175.964-175.759 87.572-45.752 178.913-68.444 268.165-68.444 92.365 0 182.661 24.535 263.741 73.646 154.542 93.164 246.682 256.451 246.682 436.367v0zM541.635 708.321c72.991 0 132.424-59.31 132.424-132.096v-255.222c0-72.827-59.433-132.076-132.424-132.076h-60.252c-72.97 0-132.403 59.269-132.403 132.076v255.222c0 72.806 59.433 132.096 132.403 132.096h60.252zM511.386 500.511c11.489 0 20.644 9.114 20.644 20.603v101.929c0 11.428-9.155 20.562-20.644 20.562-11.469 0-20.623-9.134-20.623-20.562v-101.929c0-11.244 9.155-20.603 20.623-20.603v0z" />
<glyph unicode="&#xe92c;" glyph-name="edit_file" d="M1015.542 269.046c8.581 6.431 10.977 18.248 5.571 27.566l-45.67 76.882c-6.779 11.284-18.452 12.513-26.706 7.885l-46.080-21.238c-9.81 7.004-20.214 13.005-31.13 18.043l-4.71 51.999-0.266 1.004c-2.007 9.523-10.322 16.445-20.070 16.712h-29.88v142.152c-0.061 56.914-46.182 103.076-103.096 103.076h-4.628v2.642c-0.041 56.914-46.141 102.994-103.076 103.076h-164.803c-1.884 0-3.707 0.799-4.915 2.15l-59.843 65.434c-19.558 21.361-47.165 33.567-76.083 33.567h-197.1c-56.893-0.041-103.014-46.203-103.055-103.035v-575.57c0.041-56.914 46.162-103.035 103.055-103.117h494.141l28.877-49.807 0.143-0.205c2.499-4.321 6.451-7.598 11.182-9.359 5.181-1.761 10.793-1.249 15.524 1.556l46.121 21.197c9.769-6.922 20.173-13.005 31.068-18.043l4.731-51.917 0.246-1.004c2.007-9.605 10.322-16.527 20.070-16.671h89.211c10.568-0.205 19.436 7.885 20.419 18.33l4.69 51.282c10.957 4.915 21.484 10.875 31.273 17.961l47.124-21.688c9.441-3.768 20.234-0.205 25.559 8.52l44.605 76.841c5.448 9.236 2.99 21.115-5.632 27.607l-38.912 29.635c0.881 6.083 1.29 12.247 1.352 18.391-0.061 6.083-0.471 12.165-1.352 18.166l41.759 29.676 0.287 0.307zM713.503 662.61c40.018-0.082 72.499-32.522 72.561-72.561v-142.152h-28.795c-10.588 0.082-19.415-7.885-20.439-18.432l-4.669-51.302c-10.957-4.874-21.484-10.875-31.252-17.92l-47.043 21.606c-9.482 3.871-20.378 0.328-25.661-8.438l-44.564-76.718c-5.53-9.318-3.031-21.361 5.673-27.791l41.964-29.798c-1.761-12.001-1.761-24.207-0.041-36.209l-44.196-30.147c-7.311-5.55-10.22-15.155-7.209-23.839h-394.281c19.19 19.272 29.942 45.363 29.901 72.52v368.64c0.061 40.038 32.522 72.479 72.561 72.561h425.492zM103.055 148.89c-39.997 0.082-72.458 32.481-72.499 72.52v575.549c0.041 39.956 32.502 72.479 72.499 72.479h197.1c20.357 0 39.752-8.602 53.555-23.593l59.74-65.393c7.066-7.721 17.060-12.124 27.546-12.124h164.803c40.038-0.041 72.52-32.522 72.561-72.561v-2.642h-390.349c-56.914 0-103.055-46.162-103.117-103.076v-368.64c-0.041-40.038-32.502-72.52-72.561-72.52h-9.277zM940.646 253.235l1.72-12.39c2.519-13.169 2.519-26.604 0-39.834l-1.72-11.878 46.797-35.676-35.779-61.604-55.316 25.477-9.933-8.11c-10.527-8.192-22.159-14.93-34.529-19.845l-11.264-4.833-5.427-59.965h-70.82l-5.468 59.965-11.244 4.71c-12.513 5.448-24.351 12.329-35.246 20.439l-9.769 7.393-54.764-25.231-35.533 61.194 41.267 28.078 10.506 7.639-1.761 12.329c-2.519 13.21-2.519 26.685 0.041 39.752l1.72 12.39-49.807 35.43 35.676 61.276 55.276-25.354 9.912 8.090c10.568 8.151 22.159 14.848 34.57 19.886l11.264 4.792 5.427 59.924h70.82l5.468-59.924 11.264-4.792c12.493-5.366 24.33-12.206 35.185-20.439l9.769-7.311 54.927 25.231 36.495-61.481-49.725-35.328zM801.321 345.518c-69.857 0-124.6-54.723-124.6-124.6s54.743-124.6 124.6-124.6c69.878 0 124.621 54.723 124.621 124.6s-54.743 124.6-124.621 124.6v0zM801.321 126.915c-51.917 0-94.003 42.086-94.003 94.003 0 51.999 42.086 94.044 94.044 94.044 51.917 0 94.003-42.045 94.003-94.044 0.287-25.047-9.564-49.070-27.238-66.806-17.695-17.674-41.759-27.505-66.806-27.197v0zM801.321 285.43c-35.594 0-64.492-28.877-64.492-64.512 0-35.676 28.897-64.512 64.492-64.512 35.635 0 64.512 28.836 64.512 64.512 0.184 17.162-6.513 33.69-18.678 45.834-12.124 12.165-28.631 18.883-45.834 18.678v0zM801.321 186.962c-18.719 0-33.915 15.196-33.915 33.956 0 18.719 15.196 33.915 33.915 33.915 18.76 0 33.956-15.196 33.956-33.915 0.123-8.991-3.441-17.715-9.81-24.125-6.431-6.39-15.073-9.912-24.146-9.83v0z" />
<glyph unicode="&#xe92d;" glyph-name="effort" d="M822.272 620.646l11.264 7.987 44.237 44.237c24.371 24.371 27.238 61.235 6.554 82.125-20.89 20.89-57.754 17.818-82.125-6.554l-44.237-44.442-11.059-15.36c-41.165 28.467-87.859 49.562-138.445 61.44v74.138h31.539c17.203 0 31.334 14.131 31.334 31.539v62.464c0 17.408-14.131 31.539-31.334 31.539h-250.88c-17.203 0-31.334-14.131-31.334-31.539v-62.669c0-17.408 14.131-31.539 31.334-31.539h31.539v-73.933c-47.309-11.059-91.75-30.31-131.072-56.525l-7.373 10.445-44.237 44.442c-24.371 24.166-61.44 27.238-82.125 6.349s-17.818-57.754 6.554-82.125l44.442-44.237 4.506-3.277c-64.922-72.090-104.653-166.912-104.653-271.36 0-225.075 182.682-407.757 407.757-407.757s407.757 182.682 407.757 407.757c-0.205 102.195-37.888 195.174-99.942 266.854zM514.458 8.909c-190.054 0-344.883 154.829-344.883 344.883s154.829 344.883 344.883 344.883c190.259 0 344.883-154.829 344.883-344.883s-154.624-344.883-344.883-344.883zM514.458 573.338c-121.242 0-219.546-98.304-219.546-219.546s98.304-219.546 219.546-219.546c121.242 0 219.546 98.304 219.546 219.546s-98.304 219.546-219.546 219.546zM545.792 322.458h-62.669v188.211h62.669v-188.211z" />
<glyph unicode="&#xe92e;" glyph-name="evaluate" d="M832.922 87.962h-648.602c-19.866 0-38.707 9.83-49.971 26.010-53.658 77.005-82.125 167.322-82.125 260.915 0 251.699 204.8 456.499 456.294 456.499 121.651 0 236.339-47.514 322.56-133.734s133.734-200.909 133.734-322.56c0-93.594-28.467-183.91-82.125-260.915-11.264-16.384-29.901-26.214-49.766-26.214zM508.518 786.739c-227.123 0-411.853-184.73-411.853-411.853 0-84.378 25.6-165.888 74.138-235.315 3.072-4.301 8.192-6.963 13.517-6.963h648.602c5.325 0 10.445 2.662 13.312 6.963 48.538 69.632 74.138 150.938 74.138 235.315 0 109.773-42.803 213.197-120.832 291.226-77.824 77.824-181.043 120.627-291.021 120.627zM502.374 677.581c24.576 0 44.646-19.866 44.646-44.032 0.41-11.264-4.096-22.733-12.493-31.539-8.397-8.602-19.866-13.517-31.744-13.517h-0.41c-24.166 0-43.622 19.046-44.646 43.213 0.205 25.6 20.070 45.875 44.646 45.875zM239.616 351.949h-2.662c-14.131 1.434-24.781 7.168-32.154 16.589-7.373 9.216-10.854 20.89-9.626 32.768 2.458 22.528 21.299 39.526 44.237 39.526l4.915-0.205c11.878-1.229 22.528-7.168 29.901-16.384 7.578-9.216 10.854-20.89 9.421-32.768-2.662-23.142-21.094-39.526-44.032-39.526zM321.126 491.213c-9.216-12.698-22.733-19.866-36.864-19.866-9.216 0-18.432 3.072-25.805 8.397-8.806 5.734-15.565 15.77-18.022 27.648-2.253 11.674 0 23.757 6.554 33.382 13.722 19.661 42.189 25.19 61.85 12.288 20.48-14.746 25.395-41.779 12.288-61.85zM399.974 562.074c-5.939-3.482-13.312-5.325-20.89-5.325-16.179 0-31.539 9.011-39.526 22.938-11.674 22.528-3.686 48.947 18.022 60.826 21.504 11.674 49.766 2.662 60.416-18.432 11.469-21.709 3.482-48.128-18.022-60.006zM505.037 254.259c-36.864 0-66.765 29.901-66.765 66.765s29.901 66.765 66.765 66.765 66.765-30.106 66.765-66.765c0.205-36.864-29.901-66.765-66.765-66.765zM640.614 588.698l-68.608-209.306c-16.384 18.842-40.141 30.925-66.97 30.925-4.096 0-7.987-0.614-11.878-1.229l105.267 197.427c11.469 21.709 28.877 36.045 38.502 31.949s11.264-26.624 3.686-49.766zM687.104 494.49c-6.963 9.421-9.626 21.094-7.782 32.973 2.048 11.878 8.602 22.118 18.432 28.877 19.661 13.926 48.538 8.602 62.259-10.854 6.554-9.011 9.216-20.48 7.373-32.154s-8.397-22.528-18.022-29.286c-8.397-5.53-16.998-8.397-26.010-8.397-14.541 0-27.853 6.963-36.25 18.842zM794.010 350.31c-8.397-5.53-16.998-8.397-26.010-8.397-14.541 0-27.853 6.963-36.454 18.842-6.963 9.421-9.626 21.094-7.782 32.973 2.048 11.878 8.602 22.118 18.432 28.877 19.661 13.926 48.538 8.602 62.259-10.854 6.554-9.011 9.216-20.48 7.373-32.154-1.638-11.674-8.397-22.323-17.818-29.286z" />
<glyph unicode="&#xe92f;" glyph-name="events" d="M514.867 950.579c-276.89 0-501.76-224.666-501.76-501.76s224.87-501.76 501.76-501.76c277.094 0 501.76 224.666 501.76 501.76s-224.666 501.76-501.76 501.76zM514.867 93.082c-196.198 0-355.738 159.744-355.738 355.942s159.744 355.738 355.738 355.738c196.198 0 355.738-159.539 355.738-355.738 0-196.403-159.539-355.942-355.738-355.942zM558.694 512.102v128.41c0 20.070-16.384 36.454-36.454 36.454-20.275 0-36.454-16.384-36.454-36.454v-146.022l1.843-9.216 2.048-6.554 3.686-5.325 4.915-5.939 1.229-1.434 182.477-146.022c6.554-5.325 14.746-7.987 22.733-7.987 10.65 0 21.299 4.71 28.467 13.926 12.698 15.77 10.035 38.707-5.734 51.2l-168.755 134.963z" />
<glyph unicode="&#xe930;" glyph-name="excel" d="M228.352 163.123h565.862v395.878h-565.862v-395.878zM284.877 219.648v113.254h113.050v-113.254h-113.050zM454.656 219.648v113.254h113.254v-113.254h-113.254zM624.435 219.648v113.254h113.254v-113.254h-113.254zM737.485 502.477v-113.254h-113.254v113.254h113.254zM567.706 502.477v-113.254h-113.050v113.254h113.050zM398.131 502.477v-113.254h-113.050v113.254h113.050zM720.896 898.56h-605.798v-905.216h792.166v718.848l-186.368 186.368zM737.485 801.894l73.114-73.114h-73.114v73.114zM850.739 49.869h-678.912v792.166h509.133v-169.779h169.779v-622.387z" />
<glyph unicode="&#xe931;" glyph-name="extend" d="M1002.086 448c0-270.746-219.546-490.086-490.291-490.086-270.541 0-489.882 219.341-489.882 490.086s219.341 490.086 490.086 490.086 490.086-219.341 490.086-490.086zM466.125 439.398l-109.363-109.158-62.464 62.669v-178.381h178.176l-62.669 62.669 109.158 109.363zM565.658 664.269l62.669-62.669-109.363-109.158 53.043-53.043 109.363 109.158 62.669-62.464v178.176z" />
<glyph unicode="&#xe934;" glyph-name="file_documents" d="M980.029 499.057h-59.433v106.701c0 25.682-20.849 46.51-46.551 46.51h-21.545v306.483h-681.001v-34.058h-51.098v-34.038h-51.057v-119.194h-21.545c-25.723 0-46.551-20.828-46.551-46.531v-743.69h0.082c-0.082-9.687 2.929-18.985 8.888-26.89 8.335-10.916 20.992-17.121 34.673-17.121h762.040c19.661 0 37.069 13.292 41.677 30.863l174.141 477.327v3.011c0 29.348-18.002 50.627-42.721 50.627v0zM874.045 618.23c6.922 0 12.513-5.571 12.513-12.472v-106.701h-34.058v119.173h21.545zM818.442 924.692v-425.636h-600.494c-3.891 0-7.68-0.594-11.428-1.7-0.348-0.082-0.696 0-0.963-0.082v427.418h612.884zM171.5 890.655v-435.589l-1.085-3.011-15.954-43.704v482.304h17.039zM103.404 856.596h17.019v-541.614l-17.019-46.612v588.227zM35.287 724.91c0 6.902 5.591 12.513 12.513 12.513h21.545v-560.865l-34.058-92.836v641.188zM816.21-21.606c-1.147-4.178-4.936-7.107-9.298-7.107h-762.040c-4.096 0-6.451 2.376-7.639 3.809-1.044 1.331-2.662 4.342-2.048 6.922l34.14 93.655 138.957 380.805 0.43 1.434c1.085 4.137 4.936 7.086 9.216 7.086h762.081c6.451 0 8.151-9.298 8.499-13.926l-172.298-472.678zM307.712 669.327h408.617c9.38 0 17.019 7.639 17.019 17.019 0 9.421-7.639 17.039-17.019 17.039h-408.617c-9.4 0-17.039-7.619-17.039-17.039 0-9.38 7.619-17.019 17.039-17.019v0zM307.712 788.5h170.25c9.4 0 17.039 7.619 17.039 16.998 0 9.421-7.639 17.039-17.039 17.039h-170.25c-9.4 0-17.039-7.619-17.039-17.039 0-9.38 7.619-16.998 17.039-16.998v0zM307.712 550.113h408.617c9.38 0 17.019 7.639 17.019 17.039 0 9.421-7.639 17.019-17.019 17.019h-408.617c-9.4 0-17.039-7.598-17.039-17.019 0-9.4 7.619-17.039 17.039-17.039v0z" />
<glyph unicode="&#xe935;" glyph-name="filter" d="M639.59 70.758h377.446v-62.874h-377.446v62.874zM639.59 196.506h377.446v-62.874h-377.446v62.874zM639.59 322.253h377.446v-62.874h-377.446v62.874zM891.29 636.826c0 84.378-56.115 155.238-132.506 179.2l6.758 9.421v62.874h-754.893v-62.874l314.573-440.32v-377.446h125.747v377.446l100.147 140.083c34.406-46.694 89.293-77.21 151.552-77.21 103.834 0 188.621 84.787 188.621 188.826zM590.643 580.71l128.819 180.224c61.44-8.192 108.954-60.416 108.954-124.109 0-69.427-56.32-125.747-125.747-125.747-49.152 0-91.341 28.467-112.026 69.632z" />
<glyph unicode="&#xe936;" glyph-name="filter_active" d="M971.11 638.157c0 87.347-57.958 160.563-137.165 185.498l7.014 9.779v65.126h-781.21v-65.075l325.478-455.68v-390.605h130.202v390.605l103.629 145.050c35.584-48.23 92.314-79.974 156.774-79.974 107.674 0 195.277 87.603 195.277 195.277zM659.968 580.045l133.222 186.522c63.59-8.499 112.845-62.566 112.845-128.41 0-71.834-58.368-130.202-130.202-130.202-50.842 0-94.464 29.542-115.866 72.090z" />
<glyph unicode="&#xe937;" glyph-name="go" d="M512 912.564c-256.555 0-464.564-208.009-464.564-464.564 0-256.549 208.009-464.564 464.564-464.564s464.564 208.015 464.564 464.564c0 256.555-208.009 464.564-464.564 464.564zM453.929 99.576v290.353h-290.353l580.706 290.353-290.353-580.706z" />
<glyph unicode="&#xe938;" glyph-name="hide-information" d="M1017 469.6c-62.2 81.4-136.8 152.6-221.2 210.6l144.4 144.4c14.6 14 15 37.2 0.8 51.8s-37.2 15-51.8 1c-0.4-0.2-0.6-0.6-0.8-1l-157.6-157.6c-67.2 37-142.2 57-218.8 58.6-278-0.2-495.8-295.4-505-307.8-9.4-12.8-9.4-30.2 0-43 62.2-81.4 136.8-152.6 221.2-210.6l-144.4-144.4c-14.6-14-15-37.2-1-51.8s37.2-15 51.8-0.8c0.4 0.2 0.6 0.6 1 0.8l157.6 157.6c67.2-37 142.2-57 218.8-58.6 278 0 495.8 295 505 307.6 9.4 13 9.4 30.2 0 43.2zM281.4 269c-74.6 49.6-141.2 110-198.2 179 53.8 65.2 228.4 256 428.8 256 57-1.2 113-14.8 164.2-40.2l-63.4-63.4c-84 55.8-197.4 32.8-253-51.2-40.6-61.2-40.6-140.8 0-202l-78.4-78.2zM610.8 495c7.2-14.6 11-30.8 11-47 0-60.6-49.2-109.8-109.8-109.8-16.2 0-32.4 3.8-47 11l145.8 145.8zM413.2 401c-7.2 14.6-11 30.8-11 47 0 60.6 49.2 109.8 109.8 109.8 16.2 0 32.4-3.8 47-11l-145.8-145.8zM512 192c-57 1.2-113 14.8-164.2 40.2l63.4 63.4c84-55.8 197.4-32.8 253 51.2 40.6 61.2 40.6 140.8 0 202l78.2 78.2c74.6-49.6 141.2-110 198.2-179-53.6-65.2-228.2-256-428.6-256z" />
<glyph unicode="&#xe939;" glyph-name="history" d="M823.706 851.251h52.429v99.123h-724.787v-99.123h62.669c7.987-189.235 77.005-313.139 197.632-353.075v-105.267c-119.194-39.731-188.006-161.178-197.018-346.931h-63.283v-99.123h724.787v99.123h-52.838c-9.216 185.754-78.234 307.405-197.018 346.931v105.267c120.422 39.936 189.44 163.84 197.427 353.075zM595.354 350.31c133.12-33.382 171.827-175.718 178.381-304.333h-49.766l-88.474 103.834-112.435 131.686-112.435-131.686-88.678-103.629h-57.754c6.349 128.614 45.056 270.95 178.176 304.333l18.637 4.506v181.043l-18.637 4.71c-135.168 33.997-173.056 180.224-178.586 310.477h510.362c-5.734-130.253-43.213-276.48-178.586-310.477l-18.842-4.71v-181.248l18.637-4.506zM630.17 646.861h-206.234l51.405-60.416 51.61-60.211 51.61 60.211z" />
<glyph unicode="&#xe93a;" glyph-name="home" d="M137.175 15.053c0 0-0.799-23.040 21.627-23.040 27.976 0 259.543 0.205 259.543 0.205l0.389 212.726c0 0-3.768 35.123 30.372 35.123h107.54c40.284 0 37.908-35.123 37.908-35.123l-0.594-211.927c0 0 219.648 0 253.993 0 28.57 0 27.361 28.57 27.361 28.57v392.11l-357.949 318.198-380.191-318.198v-398.643zM-2.724 443.187c0 0 32.358-59.474 102.584 0l420.659 355.799 394.26-353.608c81.347-58.675 111.923 0 111.923 0l-506.163 458.609-523.264-460.8zM905.093 799.744h-101.417l0.41-123.003 101.007-85.484v208.486z" />
<glyph unicode="&#xe93b;" glyph-name="incident" d="M420.864 598.733c48.538 37.274 108.749 78.643 114.688 172.442 39.322-57.754 65.126-116.326 78.234-170.394 73.114 79.053 4.71 239.002-161.587 349.798 58.573-175.514-154.624-241.869-31.334-351.846zM734.413 511.693h-439.091c-17.203 0-31.334-14.131-31.334-31.334v-501.76c0-17.203 14.131-31.334 31.334-31.334h439.091c17.203 0 31.334 14.131 31.334 31.334v501.76c0 17.203-14.131 31.334-31.334 31.334zM389.53 9.728h-62.669v439.091h62.669v-439.091z" />
<glyph unicode="&#xe93c;" glyph-name="kb" d="M249.856 950.579c-17.408 0-41.37-10.035-53.658-22.118l-99.123-99.533c-12.288-12.288-22.118-36.454-22.118-53.658v-796.877c0-17.408 14.131-31.334 31.334-31.334h721.101v878.182h-188.211v-439.091l-125.338 125.542-125.338-125.542v439.091h-206.643l62.669 62.669h645.53v-815.309h62.669v877.978h-702.874z" />
<glyph unicode="&#xe93d;" glyph-name="laptop" d="M1021.952 212.48c0 2.048-2.048 2.048-4.096 2.048h-1011.712c-2.048 0-2.048 0-4.096-2.048s-2.048-2.048-2.048-4.096c0 0 16.384-96.256 133.12-96.256h755.712c118.784 0 133.12 96.256 133.12 96.256 2.048 2.048 2.048 2.048 0 4.096v0zM587.776 144.896h-151.552v36.864h151.552v-36.864zM110.592 249.344h802.816c12.288 0 20.48 10.24 20.48 20.48v493.568c0 12.288-10.24 20.48-20.48 20.48h-802.816c-12.288 0-20.48-10.24-20.48-20.48v-493.568c0-12.288 8.192-20.48 20.48-20.48v0zM118.784 759.296h788.48v-479.232h-788.48v479.232zM882.688 308.736h-743.424v423.936h745.472v-423.936zM159.744 329.216h704.512v382.976h-704.512v-382.976z" />
<glyph unicode="&#xe93e;" glyph-name="laptop_updated" d="M419.676 187.351h-240.374c-11.53 0-20.705-9.155-20.705-20.685 0-11.489 9.175-20.644 20.705-20.644h222.618c6.492-18.002 23.818-30.72 43.868-30.72h132.014c20.050 0 37.376 12.718 43.827 30.72h222.863c11.489 0 20.664 9.155 20.664 20.644 0 11.53-9.175 20.685-20.664 20.685h-240.394c-11.469 0-20.644-9.155-20.644-20.685v-4.608c0-2.929-2.54-5.448-5.448-5.448h-131.994c-2.908 0-5.448 2.519-5.448 5.448v4.608c-0.225 11.53-9.4 20.685-20.89 20.685v0zM1003.213 187.351h-54.292v476.365c0 11.53-9.175 20.726-20.664 20.726s-20.685-9.196-20.685-20.726v-497.050c0-11.489 9.38-20.644 20.89-20.644h54.088v-28.447c0-29.245-23.818-53.043-53.043-53.043h-834.99c-29.225 0-53.043 23.798-53.043 53.043v28.447h54.088c11.51 0 20.685 9.155 20.685 20.644v497.050c0 11.53-9.196 20.726-20.685 20.726s-20.664-9.196-20.664-20.726v-476.365h-54.108c-11.489 0-20.664-9.155-20.664-20.685v-49.070c0-51.999 42.394-94.392 94.392-94.392h834.99c52.019 0 94.392 42.394 94.392 94.392v49.070c0 11.53-9.196 20.685-20.685 20.685v0zM592.404 727.45l-119.255-118.6-41.554 41.759c-8.151 8.11-21.094 8.11-29.245 0-8.11-8.11-8.11-21.115 0-29.245l55.992-56.402c3.953-3.953 9.4-6.042 14.623-6.042s10.445 2.089 14.602 6.042l134.083 133.243c8.131 8.11 8.131 21.074 0 29.245-7.946 7.946-21.094 8.151-29.245 0v0zM767.222 872.796h-510.444c-41.759 0-75.796-34.038-75.796-75.796v-301.568c0-41.8 34.038-75.837 75.796-75.837h21.504v-90.849c0-16.916 13.783-30.515 30.7-30.515 8.786 0 17.142 3.768 22.979 10.67l95.662 110.674h339.599c41.759 0 75.796 34.038 75.796 75.837v301.588c0 41.759-34.038 75.796-75.796 75.796v0zM801.669 495.432c0-19.046-15.421-34.488-34.447-34.488h-349.204c-6.042 0-11.694-2.519-15.667-7.127l-82.903-95.846v82.289c0 11.489-9.196 20.685-20.685 20.685h-42.189c-19.026 0-34.488 15.442-34.488 34.488v301.568c0 19.005 15.462 34.488 34.488 34.488h510.444c18.985 0 34.447-15.483 34.447-34.488v-301.568h0.205z" />
<glyph unicode="&#xe93f;" glyph-name="list-board" d="M981.47 712.055v176.060c0 16.111-13.21 29.355-29.389 29.355h-175.991c-16.213 0-29.321-13.244-29.321-29.355v-176.026c0-16.179 13.141-29.355 29.321-29.355h175.991c16.179-0.034 29.389 13.175 29.389 29.321zM629.35 712.055v176.060c0 16.111-13.141 29.355-29.321 29.355h-176.026c-16.179 0-29.355-13.244-29.355-29.355v-176.026c0-16.179 13.175-29.355 29.355-29.355h176.026c16.179-0.034 29.321 13.175 29.321 29.321zM277.265 712.055v176.060c0 16.111-13.175 29.355-29.355 29.355h-176.060c-16.179 0-29.321-13.244-29.321-29.355v-176.026c0-16.179 13.141-29.355 29.321-29.355h176.060c16.179-0.034 29.355 13.175 29.355 29.321zM981.47 7.851v528.179c0 16.111-13.21 29.321-29.389 29.321h-175.991c-16.213 0-29.321-13.21-29.321-29.321v-528.145c0-16.145 13.141-29.321 29.321-29.321h175.991c16.179-0.034 29.389 13.175 29.389 29.286zM629.35 7.851v528.179c0 16.111-13.141 29.321-29.321 29.321h-176.026c-16.179 0-29.355-13.21-29.355-29.321v-528.145c0-16.145 13.175-29.321 29.355-29.321h176.026c16.179-0.034 29.321 13.175 29.321 29.286zM277.265 7.851v528.179c0 16.111-13.175 29.321-29.355 29.321h-176.060c-16.179 0-29.321-13.21-29.321-29.321v-528.145c0-16.145 13.141-29.321 29.321-29.321h176.060c16.179-0.034 29.355 13.175 29.355 29.286z" />
<glyph unicode="&#xe940;" glyph-name="list-cards" d="M240.026 929.28h-179.405c-16.384 0-29.901-13.517-29.901-29.901v-179.405c0-16.384 13.517-29.901 29.901-29.901h179.405c16.589 0 29.901 13.517 29.901 29.901v179.405c0 16.384-13.517 29.901-29.901 29.901zM240.026 570.675h-179.405c-16.384 0-29.901-13.517-29.901-29.901v-179.405c0-16.384 13.517-29.901 29.901-29.901h179.405c16.589 0 29.901 13.517 29.901 29.901v179.405c0 16.384-13.517 29.901-29.901 29.901zM240.026 212.070h-179.405c-16.384 0-29.901-13.517-29.901-29.901v-179.405c0-16.384 13.517-29.901 29.901-29.901h179.405c16.589 0 29.901 13.517 29.901 29.901v179.405c0 16.384-13.517 29.901-29.901 29.901zM598.63 929.28h-179.405c-16.384 0-29.901-13.517-29.901-29.901v-179.405c0-16.384 13.517-29.901 29.901-29.901h179.405c16.589 0 29.901 13.517 29.901 29.901v179.405c0 16.384-13.517 29.901-29.901 29.901zM598.63 570.675h-179.405c-16.384 0-29.901-13.517-29.901-29.901v-179.405c0-16.384 13.517-29.901 29.901-29.901h179.405c16.589 0 29.901 13.517 29.901 29.901v179.405c0 16.384-13.517 29.901-29.901 29.901zM598.63 212.070h-179.405c-16.384 0-29.901-13.517-29.901-29.901v-179.405c0-16.384 13.517-29.901 29.901-29.901h179.405c16.589 0 29.901 13.517 29.901 29.901v179.405c0 16.384-13.517 29.901-29.901 29.901zM957.235 929.28h-179.405c-16.384 0-29.901-13.517-29.901-29.901v-179.405c0-16.384 13.517-29.901 29.901-29.901h179.405c16.589 0 29.901 13.517 29.901 29.901v179.405c0 16.384-13.312 29.901-29.901 29.901zM957.235 570.675h-179.405c-16.384 0-29.901-13.517-29.901-29.901v-179.405c0-16.384 13.517-29.901 29.901-29.901h179.405c16.589 0 29.901 13.517 29.901 29.901v179.405c0 16.384-13.312 29.901-29.901 29.901zM957.235 212.070h-179.405c-16.384 0-29.901-13.517-29.901-29.901v-179.405c0-16.384 13.517-29.901 29.901-29.901h179.405c16.589 0 29.901 13.517 29.901 29.901v179.405c0 16.384-13.312 29.901-29.901 29.901z" />
<glyph unicode="&#xe941;" glyph-name="list-grid" d="M953.549 927.232h-892.723c-16.384 0-29.696-13.312-29.696-29.696v-178.586c0-16.384 13.517-29.696 29.696-29.696h892.723c16.384 0 29.696 13.312 29.696 29.696v178.586c0 16.384-13.312 29.696-29.696 29.696zM953.549 570.061h-892.723c-16.384 0-29.696-13.312-29.696-29.696v-178.586c0-16.384 13.517-29.696 29.696-29.696h892.723c16.384 0 29.696 13.312 29.696 29.696v178.586c0 16.384-13.312 29.696-29.696 29.696zM953.549 212.89h-892.723c-16.384 0-29.696-13.312-29.696-29.696v-178.586c0-16.384 13.517-29.696 29.696-29.696h892.723c16.384 0 29.696 13.312 29.696 29.696v178.586c0 16.384-13.312 29.696-29.696 29.696z" />
<glyph unicode="&#xe942;" glyph-name="mail" d="M934 838h-844c-49.564 0-90-40.392-90-90v-600c0-49.44 40.256-90 90-90h844c49.44 0 90 40.256 90 90v600c0 49.44-40.256 90-90 90zM921.572 778l-407.664-407.666-411.19 407.666h818.854zM60 160.424v575.438l288.958-286.48-288.958-288.958zM102.426 118l289.14 289.14 101.314-100.444c11.728-11.628 30.654-11.59 42.334 0.092l98.786 98.786 287.574-287.574h-819.148zM964 160.426l-287.574 287.574 287.574 287.576v-575.15z" />
<glyph unicode="&#xe943;" glyph-name="maintenance" d="M201.114 573.542c16.794 0 32.768 2.867 48.128 6.963l91.136-91.136 132.915 132.915-91.136 91.341c4.096 15.36 6.963 31.334 6.963 48.128 0 103.834-84.378 188.211-188.211 188.211-3.482 0-6.758-2.458-7.578-6.144-1.024-3.277 0.819-7.168 3.891-8.806 39.526-20.89 66.355-62.464 66.355-110.387 0-69.427-56.115-125.542-125.542-125.542-47.923 0-89.498 27.034-110.387 66.355-1.638 3.277-5.325 4.915-8.806 4.096-3.482-1.024-5.939-4.301-5.939-7.578 0.205-104.243 84.378-188.416 188.211-188.416zM828.416 322.662c-16.794 0-32.563-3.072-48.128-6.963l-84.787 84.992-132.915-133.12 84.787-84.992c-4.096-15.36-6.963-31.334-6.963-47.923 0-103.834 84.173-188.211 188.211-188.211 3.482 0 6.758 2.458 7.782 6.144 0.819 3.482-0.819 7.168-4.096 9.011-39.526 21.094-66.355 62.464-66.355 110.387 0 69.222 56.32 125.542 125.542 125.542 47.923 0 89.498-27.034 110.387-66.56 1.843-3.277 5.325-4.915 9.011-4.096 3.482 1.024 6.144 4.096 6.144 7.782-0.41 103.834-84.787 188.006-188.621 188.006zM785.203 579.072c13.926-3.277 28.262-5.53 43.213-5.53 16.179 0 31.539 2.662 46.285 6.349 81.306 20.685 141.722 93.798 141.722 181.862 0 3.482-2.458 6.758-5.939 7.578-3.686 0.819-7.168-0.819-9.011-4.096-21.094-39.322-62.669-66.355-110.387-66.355-31.13 0-59.392 11.878-81.306 30.515l-13.722 13.517c-18.842 21.914-30.515 50.176-30.515 81.306 0 47.923 26.829 89.498 66.355 110.387 3.277 1.638 4.915 5.325 4.096 9.011-1.024 3.686-4.096 6.144-7.782 6.144-93.594 0-170.394-68.403-185.139-157.901-1.638-10.035-3.072-20.070-3.072-30.31 0-18.637 3.277-36.045 8.602-53.043l-394.445-394.445c-16.998 4.915-34.406 8.602-53.043 8.602-10.445 0-20.275-1.434-30.31-3.072-89.293-14.746-157.696-91.546-157.696-185.139 0-3.686 2.458-6.963 5.939-7.782 3.482-1.024 7.168 0.819 9.011 4.096 21.094 39.526 62.464 66.56 110.387 66.56 31.334 0 59.597-11.878 81.715-31.13l12.902-12.902c19.046-22.118 30.925-50.381 30.925-81.715 0-47.923-27.034-89.293-66.355-110.387-3.277-1.843-4.915-5.325-3.891-9.011 0.819-3.686 4.096-6.144 7.782-6.144 87.859 0 160.973 60.416 181.658 141.722 3.686 14.95 6.349 30.31 6.349 46.285 0 14.95-2.048 29.286-5.53 43.213l401.203 401.818z" />
<glyph unicode="&#xe944;" glyph-name="menu" d="M916.366 55.467c11.378 0 17.067 5.689 28.444 11.378 5.689 11.378 11.378 22.756 11.378 34.133s-5.689 22.756-11.378 34.133c-5.689 11.378-17.067 11.378-28.444 11.378-153.6 0-654.222 0-807.822 0-11.378 0-17.067-5.689-28.444-11.378-5.689-11.378-11.378-22.756-11.378-34.133s5.689-22.756 11.378-34.133c5.689-11.378 17.067-11.378 28.444-11.378 153.6 0 654.222 0 807.822 0zM916.366 402.489c11.378 0 17.067 5.689 28.444 11.378 5.689 11.378 11.378 22.756 11.378 34.133s-5.689 22.756-11.378 34.133c-5.689 11.378-17.067 11.378-28.444 11.378-153.6 0-654.222 0-807.822 0-11.378 0-17.067-5.689-28.444-11.378-5.689-11.378-11.378-22.756-11.378-34.133s5.689-22.756 11.378-34.133c5.689-11.378 17.067-11.378 28.444-11.378 153.6 0 654.222 0 807.822 0zM916.366 743.822c11.378 0 17.067 5.689 28.444 11.378 5.689 11.378 11.378 22.756 11.378 34.133s-5.689 22.756-11.378 34.133c-5.689 11.378-17.067 11.378-28.444 11.378-153.6 0-654.222 0-807.822 0-11.378 0-17.067-5.689-28.444-11.378-5.689-11.378-11.378-22.756-11.378-34.133s5.689-22.756 11.378-34.133c5.689-11.378 17.067-11.378 28.444-11.378 153.6 0 654.222 0 807.822 0z" />
<glyph unicode="&#xe945;" glyph-name="message" d="M941.179 84.234h-858.358c-45.548 0-82.493 37.13-82.493 82.473v562.565c0 45.568 36.966 82.473 82.493 82.473h858.358c45.548 0 82.493-36.925 82.493-82.473v-562.565c0-45.343-36.946-82.473-82.493-82.473v0zM82.821 778.752c-27.32 0-49.5-22.159-49.5-49.48v-562.565c0-27.156 22.18-49.48 49.5-49.48h858.358c27.32 0 49.5 22.323 49.5 49.48v562.565c0 27.32-22.18 49.48-49.5 49.48h-858.358zM512 365.199c-21.996 0-43.848 7.25-60.498 21.873l-421.765 367.493c-6.922 6.042-7.598 16.323-1.577 23.204 6.021 7.004 16.364 7.557 23.224 1.679l421.765-367.596c21.176-18.391 56.75-18.248 77.885 0l421.437 367.596c6.881 6.042 17.347 5.325 23.368-1.679 6.042-6.881 5.325-17.162-1.536-23.204l-421.642-367.493c-16.65-14.623-38.666-21.873-60.662-21.873v0z" />
<glyph unicode="&#xe946;" glyph-name="message_alerts" d="M759.808 862.044c-138.875 0.041-253.706-108.237-261.755-246.927h-399.073c-48.763-0.041-89.928-36.27-96.236-84.644-0.778-2.191-0.983-4.608-0.655-6.84-0.102-1.884-0.164-3.727-0.164-5.591v-386.99c-0.020-22.63 7.905-44.564 22.405-61.952 1.126-2.15 2.785-3.994 4.792-5.325 18.268-19.046 43.5-29.798 69.857-29.798h578.212c26.317 0 51.548 10.711 69.775 29.676 2.048 1.352 3.707 3.236 4.833 5.366 14.5 17.449 22.467 39.404 22.446 62.034v206.868c137.892 7.516 247.808 122.163 247.808 261.878-0.143 144.753-117.514 262.042-262.246 262.246v0zM98.98 586.199h398.909c3.113-62.239 28.406-121.283 71.25-166.523 6.41-6.758 13.169-13.21 20.234-19.272l-162.447-137.769c-22.303-19.005-55.132-19.087-77.435-0.082l-317.338 268.718c6.349 31.887 34.324 54.886 66.826 54.927v0zM98.98 62.874c-14.746 0-29.102 4.792-40.899 13.681l174.408 178.319c3.666 3.727 5.079 9.114 3.686 14.090-1.372 4.997-5.345 8.929-10.383 10.158-5.038 1.29-10.363-0.246-13.967-3.953l-172.708-176.64c-5.448 9.912-8.274 21.115-8.274 32.522v363.52l299.971-253.993c33.075-28.16 81.715-28.16 114.79 0l167.26 141.844c39.219-26.685 85.033-42.086 132.465-44.483v-206.889c0-11.448-2.847-22.63-8.335-32.645l-173.732 176.763c-5.612 5.591-14.684 5.632-20.316 0.041-5.632-5.53-5.755-14.643-0.307-20.316l175.35-178.36c-11.735-8.929-26.030-13.64-40.776-13.64h-578.232zM759.808 366.449c-49.684-0.205-98.12 15.647-138.097 45.117-0.594 0.553-1.249 1.004-1.905 1.434-10.609 8.008-20.521 16.876-29.635 26.563-76.022 80.445-85.033 203.244-21.565 293.99 63.447 90.685 181.883 124.314 283.566 80.568 101.642-43.848 158.536-153.047 136.151-261.489-22.385-108.401-117.821-186.184-228.516-186.184v0zM759.808 563.712c8.008 0 14.459 6.472 14.459 14.479v134.636c0 8.008-6.451 14.479-14.459 14.479-7.987 0-14.459-6.472-14.459-14.479v-134.636c0-7.987 6.472-14.479 14.459-14.479v0zM759.808 542.433c-19.374 0-35.123-15.729-35.123-35.082s15.749-35.082 35.123-35.082 35.103 15.729 35.103 35.082c-0.041 19.374-15.729 35.082-35.103 35.082v0zM759.808 501.207c-3.441 0-6.205 2.765-6.205 6.164s2.765 6.205 6.205 6.205c3.42 0 6.185-2.806 6.185-6.205s-2.765-6.164-6.185-6.164v0z" />
<glyph unicode="&#xe947;" glyph-name="mobile" d="M726.938 960h-429.855c-41.452 0-75.203-33.751-75.203-75.223v-873.574c0-41.411 33.751-75.203 75.203-75.203h429.855c41.411 0 75.203 33.772 75.203 75.203v873.574c0 41.472-33.772 75.223-75.203 75.223v0zM256 823.46h512v-648.52h-512v648.52zM297.083 925.86h429.855c22.651 0 41.062-18.412 41.062-41.083v-27.177h-512v27.177c0 22.671 18.412 41.083 41.083 41.083v0zM726.938-29.86h-429.855c-22.671 0-41.083 18.391-41.083 41.062v129.597h512v-129.597c0-22.671-18.391-41.062-41.062-41.062v0zM512 123.74c-37.683 0-68.26-30.577-68.26-68.28 0-37.683 30.577-68.26 68.26-68.26s68.26 30.577 68.26 68.26c0 37.704-30.577 68.28-68.26 68.28v0zM512 21.34c-18.842 0-34.14 15.278-34.14 34.12 0 18.862 15.299 34.14 34.14 34.14s34.14-15.278 34.14-34.14c0-18.842-15.299-34.12-34.14-34.12v0zM443.74 874.66h68.26c9.421 0 17.060 7.66 17.060 17.080s-7.639 17.060-17.060 17.060h-68.26c-9.421 0-17.060-7.639-17.060-17.060s7.639-17.080 17.060-17.080v0zM563.2 874.66h17.060c9.421 0 17.080 7.66 17.080 17.080s-7.66 17.060-17.080 17.060h-17.060c-9.421 0-17.060-7.639-17.060-17.060s7.639-17.080 17.060-17.080v0zM966.226 882.033c-6.758 6.676-17.49 6.676-24.187 0-6.656-6.656-6.656-17.49 0-24.166 63.734-63.734 63.734-167.506 0-231.281-6.656-6.656-6.656-17.449 0-24.125 3.297-3.338 7.741-4.997 12.104-4.997 4.342 0 8.704 1.659 12.083 4.997 77.046 77.107 77.046 202.547 0 279.572v0zM894.321 843.203c-6.676 6.656-17.449 6.656-24.105 0-6.758-6.656-6.758-17.49 0-24.166 21.053-21.074 32.727-49.234 32.727-79.114 0-29.942-11.653-58.081-32.727-79.176-6.758-6.676-6.758-17.469 0-24.125 3.297-3.359 7.639-5.079 12.001-5.079s8.806 1.72 12.104 5.079c27.546 27.464 42.742 64.164 42.742 103.301 0 39.014-15.196 75.715-42.742 103.281v0zM81.961 857.887c6.656 6.676 6.656 17.49 0 24.166-6.676 6.676-17.449 6.676-24.187 0-77.087-77.046-77.087-202.486 0-279.552 3.4-3.338 7.721-4.997 12.083-4.997s8.806 1.659 12.104 4.997c6.656 6.676 6.656 17.469 0 24.125-63.836 63.754-63.836 167.506 0 231.26v0zM153.784 847.913c-6.676 6.656-17.428 6.656-24.084 0-27.566-27.566-42.762-64.287-42.762-103.301 0-39.137 15.196-75.735 42.762-103.281 3.297-3.359 7.721-5.1 12.083-5.1s8.724 1.741 12.001 5.1c6.758 6.656 6.758 17.449 0 24.105-21.074 21.115-32.727 49.213-32.727 79.176 0 29.983 11.653 58.040 32.727 79.135 6.656 6.676 6.656 17.49 0 24.166v0z" />
<glyph unicode="&#xe948;" glyph-name="modify" d="M74.547 196.301l313.549 313.549 188.211-188.211-313.754-313.549zM11.674-54.579h188.211l-188.211 188.211zM701.645 948.941h-564.429v-441.754h62.669v378.88h439.091v-313.754h313.549v-564.429h-501.76v-62.669h564.429v690.176l-313.549 313.549zM701.645 635.392v225.075l225.075-225.075h-225.075z" />
<glyph unicode="&#xe949;" glyph-name="more-information" d="M514.253 949.965c277.094 0 501.76-224.666 501.76-501.76s-224.666-501.76-501.76-501.76-501.76 224.666-501.76 501.76c0 277.094 224.666 501.76 501.76 501.76zM514.253 647.066c45.261 0 82.534 37.274 82.534 83.558 0 46.49-37.274 82.739-82.534 82.739-46.49 0-83.763-36.25-83.763-82.739s37.478-83.558 83.763-83.558zM643.482 176.845h-64.717v390.349c0 11.264-2.048 14.336-14.336 14.336h-179.405c-11.878 0-14.131-3.072-14.131-14.336v-65.536c0-11.059 2.048-14.131 14.131-14.131h65.536v-310.682h-64.512c-12.288 0-14.336-2.867-14.336-14.131v-65.536c0-11.264 2.048-14.131 14.336-14.131h257.229c12.083 0 14.131 2.867 14.131 14.131v65.536c0.205 11.264-1.843 14.131-13.926 14.131z" />
<glyph unicode="&#xe94c;" glyph-name="mouse" d="M557.056-55.808h-71.68c-79.872 0-143.36 65.536-143.36 143.36v239.616c0 79.872 65.536 143.36 143.36 143.36h71.68c79.872 0 143.36-65.536 143.36-143.36v-237.568c2.048-79.872-63.488-145.408-143.36-145.408zM487.424 452.096c-67.584 0-122.88-55.296-122.88-122.88v-237.568c0-67.584 55.296-122.88 122.88-122.88h71.68c67.584 0 122.88 55.296 122.88 122.88v235.52c0 67.584-55.296 122.88-122.88 122.88h-71.68zM479.232 480.768c-79.872 0-145.408-65.536-145.408-145.408v-251.904c0-79.872 65.536-145.408 145.408-145.408h86.016c79.872 0 145.408 65.536 145.408 145.408v251.904c0 79.872-65.536 145.408-145.408 145.408h-20.48v92.16c0 34.816-28.672 61.44-61.44 61.44h-135.168c-18.432 0-32.768 14.336-32.768 32.768s14.336 32.768 32.768 32.768h350.208c36.864 0 67.584 30.72 67.584 67.584 2.048 38.912-28.672 69.632-67.584 69.632h-129.024c-14.336 0-26.624 12.288-26.624 26.624v77.824c0 10.24-8.192 18.432-18.432 18.432s-18.432-8.192-18.432-18.432v-77.824c0-34.816 28.672-63.488 63.488-63.488h129.024c16.384 0 30.72-14.336 30.72-30.72s-14.336-30.72-30.72-30.72h-350.208c-38.912 0-69.632-32.768-69.632-69.632 0-38.912 30.72-69.632 69.632-69.632h133.12c14.336 0 24.576-10.24 24.576-24.576v-92.16h-26.624zM673.792 335.36v-251.904c0-59.392-49.152-108.544-108.544-108.544h-86.016c-59.392 0-108.544 49.152-108.544 108.544v251.904c0 59.392 49.152 108.544 108.544 108.544h86.016c59.392-2.048 108.544-49.152 108.544-108.544v0zM503.808 349.696v-69.632c0-10.24 8.192-18.432 18.432-18.432s18.432 8.192 18.432 18.432v69.632c0 10.24-8.192 18.432-18.432 18.432s-18.432-8.192-18.432-18.432v0z" />
<glyph unicode="&#xe94d;" glyph-name="new" d="M559.923 493.875v456.090h-91.341v-456.090h-456.090v-91.136h456.090v-456.294h91.341v456.294h456.090v91.136z" />
<glyph unicode="&#xe94e;" glyph-name="note" d="M12.698 949.555v-1003.52c0 0 564.429 0 689.766 0l313.754 313.344c0 125.542 0 690.176 0 690.176h-1003.52zM953.344 285.389l-26.010-26.010h-224.87v-224.666l-25.805-26.214h-601.088v878.387h878.182l-0.41-601.498z" />
<glyph unicode="&#xe94f;" glyph-name="number" horiz-adv-x="918" d="M706.56 578.219l-69.461-260.352h195.328v-91.136h-221.355l-77.653-290.731h-95.403l76.203 290.645h-229.291l-76.971-290.645h-95.573l77.056 290.645h-189.44v91.221h213.845l71.083 260.352h-198.315v92.331h222.549l77.739 289.451h95.488l-77.568-289.451h228.352l79.445 289.451h95.403l-77.056-289.451h187.136v-92.416h-211.541zM380.416 578.219l-71.253-260.352h230.229l71.68 260.352h-230.656z" />
<glyph unicode="&#xe950;" glyph-name="options" d="M608.87 949.965h-188.006c-17.408 0-31.334-14.131-31.334-31.334v-188.211c0-17.203 14.131-31.334 31.334-31.334h188.211c17.408 0 31.334 14.131 31.334 31.334v188.211c-0.205 17.203-14.131 31.334-31.539 31.334zM608.87 573.747h-188.006c-17.408 0-31.334-14.131-31.334-31.334v-188.211c0-17.408 14.131-31.334 31.334-31.334h188.211c17.408 0 31.334 14.131 31.334 31.334v188.211c-0.205 17.203-14.131 31.334-31.539 31.334zM608.87 197.325h-188.006c-17.408 0-31.334-14.131-31.334-31.334v-188.211c0-17.408 14.131-31.334 31.334-31.334h188.211c17.408 0 31.334 14.131 31.334 31.334v188.211c-0.205 17.203-14.131 31.334-31.539 31.334z" />
<glyph unicode="&#xe951;" glyph-name="options-item" d="M262.4 896h-166.4c-19.2 0-32-12.8-32-32v-166.4c0-12.8 12.8-25.6 25.6-25.6h166.4c12.8 0 25.6 12.8 25.6 25.6v166.4c6.4 19.2-6.4 32-19.2 32zM262.4 556.8h-166.4c-19.2 0-32-12.8-32-25.6v-166.4c0-12.8 12.8-25.6 25.6-25.6h166.4c12.8 0 25.6 12.8 25.6 25.6v166.4c6.4 12.8-6.4 25.6-19.2 25.6zM262.4 224h-166.4c-12.8 0-25.6-12.8-25.6-25.6v-166.4c-6.4-19.2 6.4-32 25.6-32h166.4c12.8 0 25.6 12.8 25.6 25.6v166.4c0 19.2-12.8 32-25.6 32zM928 896h-499.2c-12.8 0-25.6-12.8-25.6-32v-166.4c0-12.8 12.8-25.6 25.6-25.6h499.2c12.8 0 25.6 12.8 25.6 25.6v166.4c6.4 19.2-6.4 32-25.6 32zM928 556.8h-499.2c-12.8 0-25.6-12.8-25.6-25.6v-166.4c0-12.8 12.8-25.6 25.6-25.6h499.2c12.8 0 25.6 12.8 25.6 25.6v166.4c6.4 12.8-6.4 25.6-25.6 25.6zM928 224h-499.2c-12.8 0-25.6-12.8-25.6-25.6v-166.4c0-12.8 12.8-25.6 25.6-25.6h499.2c12.8 0 25.6 12.8 25.6 25.6v166.4c6.4 12.8-6.4 25.6-25.6 25.6z" />
<glyph unicode="&#xe952;" glyph-name="paper" horiz-adv-x="832" d="M538.539 960h-538.539v-1024h832v730.539l-293.461 293.461zM704 64h-576v768h357.461l26.539-26.453v-165.547h165.461l26.539-26.539v-549.461z" />
<glyph unicode="&#xe953;" glyph-name="pdf" d="M723.354 909.619h-621.363v-928.563h812.442v737.28l-191.078 191.283zM740.352 810.496l74.957-74.957h-74.957v74.957zM856.474 39.014h-696.32v812.442h522.24v-174.080h174.080v-638.362zM784.384 292.147c-19.251 35.021-103.219 57.139-177.357 61.44-6.758 7.168-13.517 14.95-20.48 22.938-63.693 73.523-89.498 180.429-99.123 236.954-1.229 12.083-2.458 21.914-3.482 29.491-0.819 5.939-2.662 18.227-15.36 18.227-4.096 0-7.987-1.843-10.854-4.915-4.506-5.12-3.891-10.854-3.072-17.408 0.819-7.373 2.253-17.408 4.096-28.672 5.325-57.549 7.987-166.912-35.84-253.952-4.506-9.011-9.216-17.818-13.722-26.010-82.125-24.166-148.275-66.97-157.901-102.605-3.482-12.902-0.41-25.19 8.602-34.816 10.65-11.059 22.938-16.794 37.069-16.794 38.912 0 83.149 43.622 131.482 129.638 21.504 5.734 43.008 9.626 63.693 11.878 7.987 0.819 21.094 2.458 29.082 3.686 22.118 3.482 47.104 4.915 72.909 3.891 59.392-62.464 108.134-94.003 144.589-94.003 19.661 0 35.84 9.626 45.67 27.034 5.939 11.059 6.144 22.938 0 33.997zM297.165 204.902c-6.144 0-11.264 2.458-16.384 7.782-2.048 2.253-2.458 4.096-1.638 7.168 4.915 18.432 47.104 49.766 108.339 72.499-34.611-55.091-67.789-87.45-90.317-87.45zM517.12 349.901c-7.578-1.229-20.070-2.867-27.648-3.686-13.926-1.434-28.262-3.686-42.598-6.554 0.614 1.229 1.229 2.458 1.843 3.686 21.504 42.598 34.816 93.798 39.731 152.371 19.661-55.706 45.466-101.99 76.8-138.035 0.819-1.024 1.843-2.253 2.867-3.277-18.227-0.614-35.43-2.253-50.995-4.506zM759.398 272.486c-4.71-8.397-11.469-12.493-21.299-12.493v0c-22.733 0-57.754 21.709-99.738 61.645 64.922-8.192 112.435-28.058 120.832-43.622 1.434-2.048 1.434-3.277 0.205-5.53z" />
<glyph unicode="&#xe954;" glyph-name="pin" d="M973.619 581.734c24.576 8.192 43.213 28.467 49.152 53.658s-1.434 51.61-19.866 69.837l-232.448 231.629c-18.227 18.227-44.851 25.805-70.042 19.866s-45.466-24.371-53.658-48.947l-29.082-86.63-201.523-201.114-34.611 34.406c-20.070 20.070-49.562 26.829-76.39 18.022l-100.352-33.382c-12.288-4.096-21.504-14.131-24.576-26.829-3.072-12.493 0.819-25.805 9.83-35.021l158.925-158.31-67.379-66.97-278.938-415.13 413.286 280.986 67.174 66.97 158.925-158.31c9.216-9.216 22.323-12.902 35.021-10.035 12.493 3.072 22.733 12.288 26.829 24.576l33.382 100.147c9.011 26.829 2.048 56.32-18.022 76.186l-34.611 34.406 201.523 201.114 87.45 28.877z" />
<glyph unicode="&#xe955;" glyph-name="pinned" d="M698.778 865.587c9.421 18.637 8.397 40.96-2.458 58.573s-30.31 28.467-51.2 28.467l-264.806-0.41c-20.89 0-40.346-10.854-51.2-28.672-11.059-17.818-12.083-39.936-2.662-58.573l32.973-65.946-0.41-229.786h-39.322c-22.733 0-43.622-12.902-53.862-33.382l-38.502-76.595c-4.71-9.421-4.301-20.48 1.229-29.286s15.155-14.336 25.6-14.336l181.043 0.205-0.205-76.595 77.824-396.083 75.571 396.288 0.205 76.595 181.043 0.41c10.445 0 20.070 5.325 25.6 14.336 5.53 8.806 5.939 20.070 1.229 29.286l-38.093 76.186c-10.24 20.48-30.925 33.382-53.862 33.178h-39.322l0.41 229.786 33.178 66.355z" />
<glyph unicode="&#xe956;" glyph-name="presentation" d="M305.91 456.54c60.928 0 110.305 49.418 110.305 110.346 0 60.948-49.377 110.346-110.305 110.346-60.908 0-110.285-49.398-110.285-110.346 0.082-60.928 49.418-110.264 110.285-110.346v0zM305.91 634.327c37.356 0 67.625-30.29 67.625-67.645s-30.269-67.666-67.625-67.666c-37.356 0-67.604 30.29-67.604 67.666s30.249 67.645 67.604 67.645v0zM305.91 415.785c-45.117 0.328-88.433-17.777-119.89-50.176-32.010-32.645-49.48-77.025-49.48-125.276 0.020-11.776 9.544-21.299 21.32-21.32h296.1c11.776 0.020 21.299 9.544 21.32 21.32 0 48.251-17.49 92.631-49.5 125.276-31.437 32.399-74.732 50.483-119.869 50.176v0zM180.695 261.673c3.645 27.894 16.22 53.883 35.84 74.056 23.613 23.88 55.808 37.335 89.375 37.335 33.587 0 65.802-13.455 89.395-37.335 19.579-20.193 32.154-46.182 35.84-74.056h-250.45zM917.34 825.774h-810.68c-58.9-0.020-106.639-47.78-106.66-106.721v-542.126c0.020-58.921 47.759-106.701 106.66-106.721h810.68c58.9 0.020 106.639 47.8 106.66 106.721v542.126c-0.020 58.941-47.759 106.701-106.66 106.721v0zM981.34 176.947c-0.102-35.328-28.713-63.939-64-64.041h-810.68c-35.287 0.102-63.898 28.713-64 64.041v542.106c0.102 35.328 28.713 63.939 64 64.041h810.68c35.287-0.102 63.898-28.713 64-64.041v-542.106zM864.85 469.34h-248.545c-11.776 0-21.32-9.544-21.32-21.34s9.544-21.34 21.32-21.34h248.545c11.776 0 21.32 9.544 21.32 21.34s-9.544 21.34-21.32 21.34v0zM864.85 332.739h-248.545c-11.776 0-21.32-9.544-21.32-21.32 0-11.796 9.544-21.361 21.32-21.361h248.545c11.776 0 21.32 9.564 21.32 21.361 0.020 11.776-9.544 21.32-21.32 21.32v0zM864.85 605.962h-248.545c-11.776 0-21.32-9.585-21.32-21.361 0-11.796 9.544-21.34 21.32-21.34h248.545c11.776 0 21.32 9.544 21.32 21.34 0.020 11.776-9.544 21.361-21.32 21.361v0z" />
<glyph unicode="&#xe957;" glyph-name="price" d="M512 928c-265.152 0-480-214.912-480-480 0-265.152 214.848-480 480-480 265.024 0 480 214.848 480 480 0 265.088-214.976 480-480 480zM512 32c-229.376 0-416 186.624-416 416s186.624 416 416 416 416-186.624 416-416-186.624-416-416-416zM640 608c17.6 0 32 14.4 32 32 0 17.536-14.4 32-32 32h-96v32c0 17.536-14.4 32-32 32s-32-14.464-32-32v-32h-32c-38.656 0-96-25.536-96-96v-64c0-70.464 57.344-96 96-96h32v-128h-96c-17.6 0-32-14.464-32-32 0-17.6 14.4-32 32-32h96v-32c0-17.6 14.4-32 32-32s32 14.4 32 32v32h32c38.656 0 96 25.472 96 96v64c0 70.464-57.344 96-96 96h-32v128h96zM480 480h-32c-14.4 0.384-32 6.272-32 32v64c0 25.728 17.6 31.616 32 32h32v-128zM576 416c14.4-0.384 32-6.272 32-32v-64c0-25.728-17.6-31.616-32-32h-32v128h32z" />
<glyph unicode="&#xe958;" glyph-name="problem" d="M857.498 574.362c0 0-44.646-2.662-152.986-62.259l-6.758 9.83c3.277 81.306 11.674 180.634 34.611 240.64-13.517-7.373-63.488-49.562-121.242-92.774-29.901 71.066-39.526 207.258-4.096 280.986-275.866-197.632-439.296-480.666-439.296-657.613-0.205-138.035-20.070-346.112 313.549-346.112 519.168 0 250.675 376.218 376.218 627.302zM518.963 45.978c-376.013-10.65-135.782 356.352-175.718 282.214-5.12-9.83-33.178-96.051 100.147-166.502-65.331 81.51 53.658 178.995 97.69 224.051 0-115.712 46.899-224.051 46.899-224.051s75.981 44.646 130.662 205.21c47.104-205.619 10.24-314.982-199.68-320.922z" />
<glyph unicode="&#xe959;" glyph-name="profile" d="M254.259 351.027c65.29-67.359 156.611-109.486 257.761-109.486 197.693 0 358.666 160.993 358.666 358.687s-160.993 358.666-358.687 358.666c-197.693 0-358.687-160.993-358.687-358.687 0-94.29 36.7-180.163 96.358-244.204 1.229-2.068 2.908-3.502 4.588-4.977v0zM512 282.829c-78.008 0-149.729 28.406-205.005 75.325 93.020 30.843 127.427 68.403 140.124 93.409 17.736-7.721 37.54-11.878 59.433-12.083h4.792c23.777 0.41 45.24 5.202 63.816 14.152 11.878-25.047 45.65-63.795 141.373-95.478-55.009-46.94-126.546-75.325-204.534-75.325v0zM396.063 666.542v1.249c4.997 108.687 85.094 117.248 109.67 117.248h6.697c24.392 0 104.673-8.561 109.67-117.248v-1.249c0.205-1.044 10.424-101.56-36.495-154.317-18.555-20.849-43.377-31.273-75.694-31.478h-1.27c-32.522 0.41-57.139 10.65-75.694 31.478-47.124 52.347-37.089 153.272-36.884 154.317v0zM512 917.627c174.94 0 317.379-142.438 317.379-317.399 0-80.077-30.024-153.477-79.032-209.367-134.717 39.199-139.919 86.712-139.919 87.409v-1.085h-1.454c2.519 2.519 4.997 5.038 7.496 7.721 57.344 64.43 47.759 174.756 46.715 185.61-5.612 115.118-84.664 155.996-150.753 155.996h-6.697c-66.109 0-145.347-40.878-150.774-155.996-1.024-10.65-10.424-120.955 46.715-185.61 3.338-3.768 6.881-7.311 10.424-10.65-4.383-12.083-26.481-50.442-138.465-83.21-49.213 55.91-79.032 129.085-79.032 209.162 0 174.981 142.438 317.42 317.399 317.42v0zM250.081 82.022h523.633c11.469 0 20.644 9.155 20.644 20.644s-9.175 20.644-20.644 20.644h-523.633c-11.469 0-20.644-9.155-20.644-20.644 0-11.284 9.38-20.644 20.644-20.644v0zM702.403-42.25c0 11.489-9.175 20.644-20.664 20.644h-339.476c-11.489 0-20.664-9.155-20.664-20.644s9.175-20.644 20.664-20.644h339.702c11.264 0 20.439 9.359 20.439 20.644v0z" />
</font>
</defs>
</svg>
